<svg id="icon" xmlns="http://www.w3.org/2000/svg" viewBox="0 0 850 782.95"><g id="community"><path d="M310.05,338.13a.77.77,0,0,1-.15-.95,56.5,56.5,0,0,0-17.25-2.77,56.88,56.88,0,0,0-49.47,85.28,1.46,1.46,0,0,1,.64,1.09,54.27,54.27,0,0,0,18.05,18.64,3.76,3.76,0,0,1,2.66.09,4.06,4.06,0,0,1,.12,1.57,58.09,58.09,0,0,0,19.24,6.7,6.65,6.65,0,0,1,1.33-2.07c1.2.28,1.67,1.28,1.86,2.56a54.53,54.53,0,0,0,5.57.28,57,57,0,0,0,18.94-110.76C311,338.19,310.32,338.4,310.05,338.13Zm0,4.13c-.92,3-1.82-.2-4.14,0C306.43,339.67,310,340.18,310.05,342.26Zm-31,14.49h4.14v4.14H279ZM277,396.06c-.51,2.6-4.11,2.09-4.13,0C273.72,393.06,274.62,396.27,277,396.06Zm-6.2,16.56c-4.61-.87-1.62-11,0-12.42,2.71.73,3.25,3.64,6.2,4.13-.92,3-1.82-.2-4.13,0C267,406.37,275.82,409.86,270.75,412.62Zm-4.15-29c-1.07-1.06,1.5-2.63,2.07-2.06C269.75,382.65,267.18,384.22,266.6,383.64Zm4.15,6.22c1.07,1.07-1.5,2.63-2.08,2.07C267.6,390.85,270.17,389.28,270.75,389.86Zm-2.08,26.89c-.39,2.35-2.07,1.15-2.07,0C267,414.4,268.68,415.6,268.67,416.75Zm4.15-31c1.07,1.07-1.5,2.65-2.07,2.07C269.67,386.71,272.24,385.15,272.82,385.71Zm-2.07-45.51c1.07,1.08-1.5,2.64-2.08,2.06C267.6,341.2,270.17,339.63,270.75,340.2Zm0,24.82c3.37.26-2,8.83-6.22,8.28C262.71,366.65,271.36,370.47,270.75,365Zm-12.42,4.15c1.07,1.07-1.5,2.63-2.07,2.07C255.19,370.17,257.75,368.59,258.33,369.17Zm-2.07,6.2c-.39,2.35-2.07,1.15-2.07,0C254.58,373,256.27,374.23,256.26,375.37Zm-6.2,41.38c.39-2.35,2.07-1.15,2.07,0C251.73,419.1,250.05,417.9,250.06,416.75Zm6.2-6.21c-5.19-1.7-17.81,4-16.55-4.14,6.35,2.52,12.87.39,22.76-2.07C263.1,409.11,256.49,406.63,256.26,410.54Zm6.21-14.48c0-2,2.53-1.61,4.13-2.07C266.55,396,264.08,395.59,262.47,396.06Zm4.13,39.3c1.44-4.08,5.53-5.51,10.35-6.2C273.85,431.58,271.89,435.14,266.6,435.36ZM277,420.89c-1.07-1.07,1.49-2.65,2.07-2.07C280.09,419.89,277.52,421.46,277,420.89Zm6.21-47.59c1.07,1.07-1.5,2.64-2.07,2.07C280,374.3,282.59,372.73,283.16,373.3Zm-2.07,57.93c.39-2.35,2.07-1.15,2.07,0C282.77,433.58,281.08,432.39,281.09,431.23Zm4.13,8.28c-5.19-.89,3.45-4.46,6.21-4.15A14.41,14.41,0,0,1,285.22,439.51Zm10.35,6.2c-2.66-14.58-8.39-26.08-14.48-37.24,4.44,5.22,11.15,8.15,10.34,18.62.05,2,2.54,1.61,4.14,2.07C295.89,438.59,297.28,437.28,295.57,445.71Zm4.14-18.62c.39-2.34,2.08-1.14,2.07,0C301.39,429.45,299.7,428.24,299.71,427.09Zm-8.28-22.76c-3-10.45,8.43-13.29,12.42-10.34C305.92,403.65,300.24,405.55,291.43,404.33Zm8.28-29c.39-2.35,2.08-1.14,2.07,0C301.39,377.72,299.7,376.52,299.71,375.37Zm4.14-2.07c0-2,2.53-1.6,4.13-2.06C307.93,373.25,305.45,372.84,303.85,373.3Zm2.06,47.59c.4-2.36,2.08-1.15,2.07,0C307.59,423.23,305.91,422,305.91,420.89ZM308,381.58c-1.07-1.07,1.5-2.64,2.07-2.07C311.12,380.58,308.56,382.15,308,381.58ZM297.64,367.1c-.38-1.76.81-2,2.07-2.08-.4-2.34-2.07-1.14-2.07,0-5.14-.31-.61-7,0-8.27,5.86.34,8.62,3.79,14.48,4.14C311.63,371.87,303.64,362.49,297.64,367.1Zm26.9,39.3c1.84,1.61,4.67,2.22,8.27,2.07C333.47,412.13,321.22,412.17,324.54,406.4Zm-2.07-2.07c1.07,1.07-1.5,2.65-2.07,2.07C319.32,405.33,321.89,403.77,322.47,404.33Z" transform="translate(-87 -120.52)" fill="#43a1e2"/><path d="M603.83,336.06h-4.12v-1.59c-.41,0-.82-.06-1.24-.06a57,57,0,0,0-56.88,53.31c.06,0,.13,0,.17.06.48.48.22,1.05-.24,1.49,0,.74-.12,1.47-.12,2.21A56.53,56.53,0,0,0,544,408.16c.75-2.21,4-1.68,4,.31-1.33.91-2.64,1.77-3.45,1.3a57.8,57.8,0,0,0,10.81,19c1.7-1.92,4.59-2.63,5-5.77,4.84,2.62,6.4,9.13,4,14.14a56.75,56.75,0,0,0,74.43-5.29,56.11,56.11,0,0,0,5.86-7l-1.52.22c.26-3.71-2.53-4.36-2.06-8.27a26.19,26.19,0,0,1,7.82,1.26,56.51,56.51,0,0,0-7.82-64.33v1H637v-4.13h1.19a57.88,57.88,0,0,0-34.31-15.87Zm-60,64.14c.39-2.35,2.06-1.15,2.06,0C545.52,402.54,543.82,401.35,543.84,400.2Zm0-16.56c-1.07-1.06,1.5-2.63,2.06-2.06C547,382.65,544.41,384.22,543.84,383.64Zm99.31,0c-.41,2.36-2.08,1.15-2.06,0C641.47,381.3,643.15,382.5,643.15,383.64Zm-45.52-45.51c-.51,2.6-4.1,2.08-4.14,0C594.41,335.12,595.3,338.35,597.63,338.13Zm12.42,18.62c-3,6.13-8.08-2.73-14.48,0,.18-2.94.34-5.86-2.08-6.2C597.77,345.74,604.07,356.4,610.05,356.75Zm-12.42,4.14c-.39,2.35-2.08,1.14-2.06,0C596,358.54,597.63,359.74,597.63,360.89Zm-2.06,26.89v4.15h-4.14v-4.15Zm-2.08-10.34c1.07,1.07-1.5,2.65-2.06,2.07C590.35,378.44,592.92,376.86,593.49,377.44ZM591.43,365c-.41,2.36-2.09,1.16-2.07,0C589.75,362.68,591.43,363.88,591.43,365Zm-18.63,6.22c1.07,1.07-1.5,2.63-2.06,2.06C569.66,372.24,572.23,370.66,572.8,371.24Zm-8.27-14.49c-.06,2-2.54,1.61-4.14,2.07C560.45,356.81,562.92,357.22,564.53,356.75Zm-4.14,6.2c-.4,2.36-2.08,1.16-2.06,0C558.71,360.61,560.39,361.81,560.39,363Zm-6.2,47.59c-.4,2.35-2.08,1.16-2.08,0C552.51,408.19,554.19,409.39,554.19,410.54ZM552.11,365c1.07,1.08-1.5,2.65-2.06,2.08C549,366,551.54,364.46,552.11,365Zm-2.06,6.22c1.07,1.07-1.5,2.63-2.06,2.06C546.91,372.24,549.48,370.66,550.05,371.24ZM548,396.06c-1.08-1.07,1.49-2.64,2.06-2.07C551.12,395.06,548.55,396.63,548,396.06Zm2.06,4.14c6.93-5-5,6.94,0,0ZM558.33,423h-6.22v-4.14h6.22Zm-2.08-43.45c.06-2,2.55-1.6,4.14-2.07C560.33,379.45,557.87,379.05,556.25,379.51Zm4.14,10.35c-1.07-1.08,1.5-2.65,2.06-2.08C563.52,388.86,561,390.43,560.39,389.86Zm-2.06-18.62c1.33-2.12,4.75-2.14,4.12-6.22,6.23-2.08,3.68,4.62,4.14,8.28C562.27,374.18,561.12,371.88,558.33,371.24Zm8.26,55.85c-1.07-1.07,1.5-2.63,2.09-2.07C569.74,426.09,567.16,427.67,566.59,427.09Zm0-35.16c.06-2,2.55-1.61,4.15-2.07C570.68,391.87,568.21,391.46,566.59,391.93Zm6.21,16.54c-2.43-.33-1.74-3.76-2.06-6.2,3.51-.77,3.9,1.61,4.14,4.13C573.12,406,572.92,407.21,572.8,408.47Zm2.08-37.23c3.33,2,4.75,5.51,2.06,8.27C574.13,378.87,575.22,374.33,574.88,371.24Zm2.06,60c-1.07-1.07,1.49-2.64,2.08-2.07C580.09,430.23,577.5,431.81,576.94,431.23Zm4.14-84.82c-3.07-1.08-5.21-3.06-8.28-4.15,1.37-2.76,4.42-3.84,8.28-4.13Zm6.2,66.21c-4.87,6.64-8.36-7.29,0,0Zm-2.06,18.61c-1.07-1.07,1.5-2.64,2.06-2.07C588.35,430.23,585.79,431.81,585.22,431.23Zm4.14-4.14h-4.14V423h4.14Zm6.21,4.14h-4.14v-4.14h4.14Zm0-22.76h-4.14v-4.14h4.14Zm-6.21-6.2c-7.05-2.21,5.74-.65,2.07-6.21h8.28C601.69,403.55,590.78,398.17,589.36,402.27Zm12.41,0c-1.07-1.07,1.5-2.65,2.06-2.07C604.9,401.27,602.33,402.84,601.77,402.27Zm10.34,41.38c-1.93-2.21-7.63-.65-6.2-6.21C610.42,437.06,612.5,439.13,612.11,443.65Zm6.21-16.56c3.67,1.52.3,3.77,0,6.21C614.64,431.79,618,429.54,618.32,427.09Zm10.34-60c-.38,2.35-2.08,1.15-2.06,0C627,364.75,628.66,365.94,628.66,367.1Zm4.14,10.34v6.2c-5.63,1.52-4.16-4.11-8.28-4.13C625.17,376.7,629.71,377.79,632.8,377.44Zm0,16.55v4.14h-4.14V394Zm0,14.48c-6.68,2.56-1.57-6.69-8.28-4.14C625.19,400,634.34,403.89,632.8,408.47Zm-10.34,33.11h-4.14v-4.14h4.14Zm-6.2-89h4.14v4.14h-4.14Zm0,68.28c-.06,8.33-12.13,3.2-6.21,12.41-9-.39-3.77-3.6-4.14-10.34C611.75,424.67,611.27,420,616.26,420.89Zm-6.21-4.14c1.07,1.07-1.51,2.64-2.08,2.07C606.9,417.75,609.47,416.18,610.05,416.75Zm4.12-2.07c1.08,1.07-1.49,2.64-2.06,2.07C611,415.68,613.61,414.11,614.17,414.68Zm0-6.21c1.08,1.07-1.49,2.65-2.06,2.07C611,409.47,613.61,407.9,614.17,408.47Zm-4.12-6.2c6.29-5.65-5.65,6.29,0,0ZM608,387.78c-1.07-1.07,1.5-2.63,2.08-2.07C611.12,386.78,608.54,388.36,608,387.78Z" transform="translate(-87 -120.52)" fill="#43a1e2"/><path d="M446,448.55a57.7,57.7,0,0,0,39.53-16,7.51,7.51,0,0,1-1.69-1.3c2.55-2,4.36-4.73,7.86-5.77a58.23,58.23,0,0,0,6.45-11.09,13.46,13.46,0,0,0-1.9.31c.05-1.41,1.27-1.63,2.55-1.79.51-1.25.95-2.53,1.38-3.81a3.66,3.66,0,0,0-1.86-.61c.4-1.67,2.08-2.06,2.08-4.14a9.72,9.72,0,0,1,1,.48,56,56,0,0,0,1.7-13.33A57.15,57.15,0,0,0,446,334.41c-1.11,0-2.21.1-3.31.17,0,1-1.83,2-2.3,1.48s-.25-.95.14-1.37a58.12,58.12,0,0,0-25.11,8.73,2.45,2.45,0,0,1-2.09,1.39,56.16,56.16,0,0,0-7.67,6.34,57.1,57.1,0,0,0-16.74,40.33A57.15,57.15,0,0,0,446,448.55Zm56.46-58.69c1.07,1.07-1.5,2.63-2.06,2.07C499.32,390.85,501.89,389.28,502.46,389.86Zm-68.27-33.11c.51-2.61,4.11-2.09,4.14,0C437.41,359.76,436.51,356.54,434.19,356.75Zm4.14,72.41c.5-2.6,4.11-2.09,4.13,0C440.62,430.43,438.76,431.67,438.33,429.16Zm24.82,14.49c-1.07-1.07,1.49-2.65,2.07-2.07C466.29,442.65,463.72,444.21,463.15,443.65ZM483.84,423c.51-2.61,4.11-2.09,4.14,0C486.14,424.23,484.28,425.45,483.84,423Zm-4.13-24.83V394h4.13v4.14Zm10.34-6.2c-6.94,5,5-6.95,0,0Zm0,10.34c-1.07-1.07,1.5-2.65,2.06-2.07C493.18,401.27,490.62,402.84,490.05,402.27Zm6.2-20.69c1.07,1.07-1.49,2.64-2.07,2.06C493.11,382.58,495.68,381,496.25,381.58Zm-4.14-8.28c1.07,1.07-1.49,2.64-2.06,2.07C489,374.3,491.55,372.73,492.11,373.3ZM488,365c6.94-5-5,7,0,0Zm2.07,12.42c-1.78,7.19.05,7.86-4.14,14.49-4.18-4.78,1.42-9.23-2.07-16.56A9.73,9.73,0,0,0,490.05,377.44Zm-6.21-8.27c-.4,2.34-2.07,1.15-2.07,0C482.16,366.81,483.85,368,483.84,369.17Zm-2.07-14.49c1.07,1.07-1.5,2.65-2.06,2.07C478.63,355.68,481.2,354.11,481.77,354.68ZM479.71,425c1.07,1.07-1.5,2.65-2.07,2.07C476.56,426,479.13,424.46,479.71,425Zm-6.22,6.21h-4.13v-4.14h4.13Zm-2.07-62.06c-.5,2.59-4.11,2.08-4.13,0C468.21,366.16,469.11,369.38,471.42,369.17Zm-8.27,22.76c.92-3,1.82.2,4.14,0C466.78,394.52,463.18,394,463.15,391.93Zm2.07-16.56c-1.5,14.11-11.46-7.62,0,0ZM457,352.61h6.2v4.14H457ZM459,396.06c1.07,1.07-1.5,2.64-2.07,2.07C455.87,397.06,458.44,395.49,459,396.06ZM446.6,338.13c1.07,1.07-1.49,2.64-2.07,2.07C443.46,339.13,446,337.56,446.6,338.13Zm-2.07,37.24c-.92,3-1.82-.21-4.14,0C440.9,372.77,444.51,373.29,444.53,375.37Zm-2.07-26.89c1.07,1.07-1.5,2.63-2.07,2.07C439.33,349.48,441.89,347.9,442.46,348.48Zm-2.07,68.27c1.07,1.07-1.5,2.64-2.06,2.07C437.26,417.75,439.82,416.18,440.39,416.75Zm-2.06-66.2c1.07,1.07-1.5,2.63-2.07,2.06C435.19,351.55,437.75,350,438.33,350.55Zm-2.07-14.49c-.06,2-2.54,1.61-4.14,2.07C432.18,336.12,434.65,336.53,436.26,336.06ZM421.77,439.51h-4.13v-4.15h4.13Zm-2.07-55.87c1.07,1.07-1.5,2.65-2.06,2.07C416.57,384.64,419.13,383.08,419.7,383.64Zm-24.82-6.2c-1.07-1.07,1.49-2.64,2.07-2.07C398,376.44,395.45,378,394.88,377.44Z" transform="translate(-87 -120.52)" fill="#43a1e2"/><path d="M703.15,298.83c.33-2-1.11-2.2-2.75-2.21.57.94,1.17,1.88,1.73,2.83A7.91,7.91,0,0,0,703.15,298.83Z" transform="translate(-87 -120.52)" fill="#43a1e2"/><path d="M539.7,596.75c-2.32.21-3.21-3-4.14,0C535.58,598.83,539.2,599.34,539.7,596.75Z" transform="translate(-87 -120.52)" fill="#43a1e2"/><path d="M138.34,327.79c1.6-.47,4.08-.06,4.13-2.07C140.86,326.18,138.39,325.78,138.34,327.79Z" transform="translate(-87 -120.52)" fill="#43a1e2"/><path d="M151.2,228.75a10,10,0,0,0,1.61-.28c0,1.63-1.65,1.68-3.11,1.88-1,1.05-2,2.11-2.95,3.17,0,.39-1.57,2.08-2.61,2.93C108,277.2,87,326.13,87,379a278.11,278.11,0,0,0,1.61,29.46l.06,0a.82.82,0,0,1,.06,1.13,276.3,276.3,0,0,0,23.1,84.14c.58-.47,1.38-.73,1.68-.44.69.7-.15,1.6-1,2,16.12,34.68,40,66.31,71.82,91.11H188v2.77a239.89,239.89,0,0,0,34.58,21.58c0,.6-.18,1-.18,1.56,0,38.86-32.35,92.28-45.19,114.23h.09a18.93,18.93,0,0,0-1.65,7.72A19.68,19.68,0,0,0,195.33,754c1.65,0,4.17-.35,5.12-.35.26,0,.35,0,.35.09,11.53-1.89,24-5.71,36.84-10.77v-1.35h3.42c23.37-9.58,47.72-23.18,69.63-37.19a9.25,9.25,0,0,1-2.71-.06c-1.55-7.76,7.91-4.5,8.27-10.34,2.56.17,3.62,1.83,4,4.14q2.82-1.87,5.57-3.74c-1.85-.79-5-.27-3.38-4.53,1.56-.18,3.79,1.34,5.42,3.12,8-5.51,15.5-10.91,22.25-16a8.39,8.39,0,0,0-.78-1.6,4.26,4.26,0,0,1,2.86,0c15.56-11.88,26.89-21.89,31.15-27.08a226.74,226.74,0,0,0,27.46,2.54,4.87,4.87,0,0,0,.6-2.37c3.34-.59,3.56,1.95,6.21,2.07-.07.15-.16.28-.24.43h2.23c-.05-2.29.15-4.33,2.14-4.58,4.15-.22,3.39,2.21,3.73,4.52l2.47,0a2.7,2.7,0,0,1,2.07-2.4,4.79,4.79,0,0,1-.17,2.37c3.07-.06,6.3-.11,9.79-.11,1.34,0,2.66,0,4,0a6.37,6.37,0,0,1,5-.16s0,.07,0,.11c1.8,0,3.59-.09,5.38-.14a.94.94,0,0,1,.68,0q4.23-.13,8.43-.33c.31-3-2-3.3-2.1-5.83-2.1,1.34-2.13,4.75-6.2,4.14,3.33-3.09-3.29-11.87,6.2-12.42-4.48,4.26-.11,8.62,4.14,4.14,3.54,1.08-5.9,5,2.07,8.28a16.5,16.5,0,0,0-1.85,1.59q5.81-.31,11.56-.76c-1.4-1-3.29-2.21-5.58-.83,1.3-10.44,9-14.47,12.42-22.76,6.89.65-6.23,9.81,4.14,8.27-.74,2.72-3.65,3.25-4.14,6.21.5,3.64,3.56,4.71,8.27,4.14.56,2.53-.51,3.43-2.13,3.8a445,445,0,0,0,46-7.22c1.35-2.89,5.27-3.22,5.8-6.93,3.18.21.73,2.59-.25,5.73,1.45-.33,2.89-.68,4.34-1,0-.2.06-.35,0-.57a5.36,5.36,0,0,1,1,.32q19.65-4.71,38.1-11.14c-.13-1,1.82-2.09,2.3-1.59a.73.73,0,0,1,.22.72A346.61,346.61,0,0,0,654,594.67h-2.6v-4.14h4.12v3.2a291.18,291.18,0,0,0,45.52-35.13v-3.23h3.35c1.37-1.35,2.73-2.7,4.07-4.07-.4,0-.79,0-1.21-.07-.56-4.83,3.25-5.29,6.88-5.94,1-1.07,2-2.14,2.93-3.23-.63.52-1.53-.33-1.53-1.18.38-2.34,2.08-1.14,2.06,0a2.13,2.13,0,0,1-.42,1.06q2.26-2.57,4.47-5.19h-2v-4.14h4.14v1.48a241.12,241.12,0,0,0,26.61-40.17,14.72,14.72,0,0,1-1.8-.62c2.14-7.61,7.92-1.92,4.15-12.42h4q1.17-2.62,2.3-5.29c-1.81-.11-4,.6-6.3,1.15v-6.2c4.48-1.31,5.25,1.08,7.59,1.9.53-1.3,1-2.6,1.53-3.91a3.24,3.24,0,0,1-.84-4.19c.76.37,1.41.72,2,1.05A237.85,237.85,0,0,0,777,397.21c-4.36.5-12.43-.92-11.77-5.28,6.37,1.44,4,1.44,10.35,0-.49,2.2.27,3.18,1.52,3.65.28-5.47.4-11,.32-16.59a202.48,202.48,0,0,0-11.14-66.16,2.75,2.75,0,0,1-3.13-1.6c-6.1,1.81,4.81,3.1,2.08,8.28-1.86-1.6-4.69-2.23-8.28-2.07V307.1a8.13,8.13,0,0,0,6.29-2.48c-13.94-35.58-37.65-67.87-68.9-95.1-.56.4-1.26.61-1.52.34-.47-.47-.23-1,.22-1.46-32.72-28.18-73.54-50.87-119.88-66.14-.38,2.47-3.66,2.94-3.35-1.09q-6.19-2-12.52-3.78c-.43.19-.84.25-1,.05A.84.84,0,0,1,556,137q-17.19-4.84-35.23-8.34c-1,1.17-4.55,2.71-3.84,4.62-5.62-1.65-.48-3.34,1.43-5.07-2.55-.47-5.1-.93-7.67-1.36a.85.85,0,0,1,0,.22c-.39,2.35-2.08,1.15-2.07,0a3.07,3.07,0,0,1,.15-.53q-20.22-3.31-41.32-4.84c-.27.87-1.85,1.67-2.28,1.24s-.26-1,.14-1.38q-10.75-.72-21.69-1a7.73,7.73,0,0,1-1.21,8.54c-3.07-.9.82-2.64,0-6.2-1.84.91-3.7,1.81-4.13,4.13-2.16-2.74-7.22-2.56-8.13-6.54q-15.92.12-31.46,1.26c.13,1,.23,2.1.27,3.21-3.27.86-4.23-.6-4.38-2.86q-19.9,1.65-39.08,4.92h0c1.07,1.07-1.49,2.65-2.07,2.07s0-1.4.72-1.84C271,141.81,199.3,178.49,151.2,228.75ZM188,727.08c0-2,2.53-1.6,4.13-2.07C192.07,727,189.59,726.62,188,727.08Zm2.07-8.27c-1.07-1.07,1.5-2.64,2.06-2.07C193.19,717.81,190.62,719.38,190.06,718.81Zm8.27,10.34h-4.14V725h4.14ZM771.42,375.37c-1.84,1.27-3.69,2.5-4.14,0C767.79,372.77,771.4,373.29,771.42,375.37ZM148.68,313.3c1.07,1.07-1.49,2.65-2.07,2.07C145.54,314.3,148.11,312.74,148.68,313.3Zm-4.14-62.07c1.07,1.08-1.5,2.65-2.07,2.08C141.4,252.23,144,250.67,144.54,251.23Zm0,6.22c-.52,2.59-4.11,2.08-4.14,0C141.32,254.44,142.22,257.65,144.54,257.45Zm-4.14,4.13c1.07,1.07-1.5,2.65-2.06,2.07C137.27,262.58,139.83,261,140.4,261.58Zm-10.35-2.07c9.78,3.23,2.76,10.25,0,0ZM123.85,334c-.39,2.36-2.07,1.15-2.07,0C122.17,331.65,123.86,332.85,123.85,334Zm-14.49,12.42c0,2-2.52,1.6-4.13,2.07C105.28,346.47,107.77,346.87,109.36,346.41ZM97,418.82h8.27c.76,3.51-1.61,3.9-4.14,4.14.62,4.21,5.6,4.05,6.21,8.27,1.49,7.48,12,5.91,12.41,14.48C111.34,437.53,100.4,431.92,97,418.82Zm29-14.49h-4.14V400.2h4.14Zm4.13,101.39c.52-2.61,4.12-2.1,4.14,0C132.36,507,130.5,508.21,130.05,505.72Zm6.22-153.11h-4.15v-4.13h4.15Zm24.82,171.72c.71-2.49,5.5-1.67,6.21,0C169.18,528.81,159.72,529.12,161.09,524.33Zm12.41,33.11c-4.88,6.65-8.36-7.29,0,0Zm-2.07-35.18c1.07,1.07-1.49,2.65-2.06,2.07C168.3,523.26,170.87,521.69,171.43,522.26Zm8.29,35.18c.39-2.36,2.07-1.15,2.06,0C181.39,559.78,179.7,558.58,179.72,557.44Zm2.06-4.14c-2.15,1.71-3.73-1.83-4.14-2.07C169.67,546.62,183.22,552.14,181.78,553.3Zm-6.21-29c4.78-8.12,5.75,9.26,2.07,10.35C170.78,534,183.09,525.65,175.57,524.33Zm6.21,22.76c-1.07-1.07,1.5-2.64,2.07-2.07C184.92,546.09,182.35,547.66,181.78,547.09ZM188,561.57c-4.82-3.1-3.16-5.06-2.07-10.34,4.48-1.5,13.16,2.12,4.14,2.07C187.25,553.93,188.34,558.48,188,561.57Zm-2.07-12.42V545h4.14v4.13Zm6.2,0c-1.06-1.06,1.51-2.63,2.07-2.06C195.26,548.17,192.7,549.73,192.12,549.15Zm2.07-4.13v-4.14h4.14V545Zm-2.07,14.48c4.42-1,3.95,3,4.14,6.21-1.68-.39-2.06-2.08-4.14-2.07Zm10.34,16.56h-8.27v-4.15h8.27Zm-2.06-12.42c-2.6-.51-2.09-4.11,0-4.14-.06-2-2.53-1.6-4.14-2.06v-8.29c5.3-.09,2.53,1.55,2.07,4.15a14.72,14.72,0,0,0,6.21,4.14C203.81,560.16,200.9,560.69,200.4,563.64Zm4.14-14.49c2.94.19,5.86.35,6.21-2.06,2.78,1.36,3.85,4.42,4.13,8.28C209,555.77,203.6,555.62,204.54,549.15Zm2.07,167.59h-4.15v-4.13h4.15Zm18.61-57.93h-4.13v-4.14h4.13Zm4.15-10.34h-4.15v-4.14h4.15Zm10.34,84.83h-4.14v-4.15h4.14Zm-2.07-126.21c.06-2,2.54-1.61,4.14-2.07C241.72,607,239.25,606.62,237.64,607.09ZM248,654.67c.4-2.34,2.09-1.14,2.08,0C249.66,657,248,655.82,248,654.67Zm4.15,20.69c.05-2,2.52-1.61,4.13-2.07C256.21,675.31,253.73,674.89,252.13,675.36Zm8.27,53.79c-1.07-1.07,1.5-2.63,2.07-2.07C263.54,728.15,261,729.73,260.4,729.15Zm0-8.27c.05-2,2.54-1.61,4.13-2.07C264.48,720.82,262,720.41,260.4,720.88ZM279,675.36c-1.07-1.07,1.49-2.64,2.07-2.07C282.16,674.36,279.59,675.93,279,675.36Zm24.83,26.9h-4.14v-4.14h4.14Zm4.13-26.9h-4.13v-4.13H308Zm4.14-2.07c.52-2.6,4.11-2.08,4.13,0C314.42,674.56,312.56,675.79,312.12,673.29ZM308,654.67c3.25-7.57,3.09,4.81,8.27,2.07C314.22,663.09,310.74,654.37,308,654.67Zm6.21-18.62c.91-3,1.81.22,4.14,0C317.82,638.66,314.21,638.14,314.19,636.05Zm35.17,37.24c-5.22-3.91,1.91-7.24-2.07-12.41C353,660.93,352.21,670.64,349.36,673.29Zm2.07-41.38c-1.07-1.06,1.5-2.64,2.07-2.06C354.57,630.92,352,632.49,351.43,631.91Zm4.14,37.25c-1.07-1.07,1.5-2.65,2.06-2.07C358.7,668.16,356.14,669.73,355.57,669.16Zm0-70.34c1.93,2.2,7.63.63,6.2,6.2Q355,605.58,355.57,598.82ZM368,636.05h-6.21c-.87-4.32,1.42-5.47,2.08-8.27C367.48,628.27,368.56,631.34,368,636.05Zm2.07-26.89c-1.07-1.07,1.49-2.65,2.07-2.07C373.19,608.16,370.62,609.73,370.05,609.16Zm4.14-8.28h-4.14v-4.13h4.14Zm2.07,2.07c-1.07-1.07,1.5-2.64,2.06-2.07C379.39,602,376.83,603.52,376.26,603Zm6.2,41.38c-6.34-2,2.38-5.52,2.07-8.28C390.88,638.08,382.15,641.57,382.46,644.33Zm18.62-37.24c-1.07-1.07,1.5-2.65,2.07-2.07C404.22,606.09,401.66,607.67,401.08,607.09Zm10.35,37.24c.06-2,2.53-1.61,4.14-2.07C415.51,644.28,413,643.86,411.43,644.33ZM436.26,603c-1.07-1.07,1.49-2.64,2.07-2.07C439.4,602,436.83,603.52,436.26,603Zm10.34,39.31c-1.07-1.07,1.5-2.64,2.07-2.07C449.74,641.27,447.18,642.83,446.6,642.26Zm6.2-4.14c6.95-5-5,6.94,0,0Zm4.15-6.21c.51-2.6,4.11-2.08,4.13,0C460.17,634.92,459.27,631.71,457,631.91Zm0-10.34c-.93,1.4,1.22,2.23,2.07,2.07-1.44,2.77-5.53-1-10.35,2.07a14.72,14.72,0,0,0,6.21,4.14c0,5.8-5.65-4.93-4.15,4.13-9-1.78,1.11-10.77-4.13-14.47-6-2.32,3.17-2.24,2.07,2.06,3.1-3.09,8.71-3.7,10.35-8.28.57-3.34-2-3.55-2.07-6.2a14.71,14.71,0,0,0-4.15,6.2c-1.57-3.25-6.55-3.09-6.2-8.27,4.86-.66,7.77-3.26,14.48-2.07C465.55,609.32,461,615.35,457,621.57Zm-12.42-20.69c.06-2,2.54-1.6,4.14-2.06C448.61,600.83,446.14,600.42,444.53,600.88Zm18.62,22.76c-1-8.89,5.56-2.65,6.21-6.21C473.74,618.07,467.19,624.62,463.15,623.64ZM465.22,605v-4.14h4.14V605Zm4.14,33.1c-5.62,1.48,1.48-9.76-4.14-8.27,1.87-5.61,4.63,4.73,8.27,4.13C473,636.23,469.38,635.39,469.36,638.12Zm4.13-26.9c6.3-5.64-5.64,6.3,0,0Zm2.07,14.49c1.09-3.18,2.17-.13,2.08,2.07C476.54,631,475.47,627.91,475.56,625.71Zm0-10.35c.06-2,2.54-1.6,4.15-2.07C479.65,615.3,477.17,614.9,475.56,615.36Zm6.21,6.21c-3.19-1.09-.13-2.16,2.07-2.06-3.55-2.66,0-12.38-6.2-12.42.89-3.94,4.45-5.2,4.13-10.34,7.33,5.89-.74,14.41,4.14,22.76C484.23,619.9,483.85,621.58,481.77,621.57Zm8.28-10.35V603c3.27-.17,7.89,1,8.27-2.07C501.35,602.05,494.42,610.62,490.05,611.22Zm10.35-2.06c-.06,2-2.54,1.61-4.15,2.06C496.31,609.21,498.79,609.63,500.4,609.16Zm-6.22,12.41c-4.77.63-2.29-6-6.2-6.21C488.62,611,495.16,617.54,494.18,621.57Zm0,22.76c.4-2.35,2.08-1.15,2.07,0C495.86,646.68,494.18,645.48,494.18,644.33Zm-2.07-2.07c-6.91-.77-2.31-11,4.14-10.35C497.8,638.29,489.12,634.44,492.11,642.26Zm10.35,4.14c-5.1-9,3.34-22.26-6.21-29C505.08,614,505.81,636,502.46,646.4Zm6.21-37.24c.51-2.61,4.11-2.09,4.13,0C511.89,612.16,511,609,508.67,609.16Zm6.2-6.21c1.07,1.07-1.49,2.64-2.07,2.07C511.73,604,514.31,602.38,514.87,603Zm-2.07,12.41c.06-2,2.54-1.6,4.14-2.07C516.88,615.3,514.41,614.9,512.8,615.36Zm4.14-18.61c-1.67,1.77-5.66,1.23-6.2,4.13-3.07-.9.81-2.65,0-6.21,4.32-.87,5.47,1.42,8.27,2.08C518.62,599.09,516.93,597.9,516.94,596.75Zm2.07-2.08c-1.07-1.07,1.5-2.63,2.07-2.07C522.16,593.68,519.58,595.25,519,594.67ZM523.14,605c1.08,1.07-1.49,2.65-2.06,2.07C520,606,522.58,604.44,523.14,605Zm-2.06,18.62c2.55.91,4.25,2.64,4.14,6.21C522.67,628.94,521,627.2,521.08,623.64Zm2.06-8.28c-2-.06-1.59-2.53-2.06-4.14,2.72-2.47,3.26-.8,6.21,0C526.77,613.47,523.18,612.63,523.14,615.36Zm4.15-14.48h-4.15v-4.13h4.15Zm4.13,22.76c-1.21.22-2.6-2.9-2.06-4.13C532.49,612.2,533.28,623.31,531.42,623.64Zm2.08-12.42c.38-2.34,2.06-1.14,2.06,0C535.18,613.58,533.48,612.37,533.5,611.22Zm16.55,14.49c2.77,1.36,3.86,4.42,4.14,8.27C548,636.07,550.51,629.37,550.05,625.71Zm10.34-4.14c-1.07-1.07,1.5-2.64,2.06-2.06C563.52,620.58,561,622.14,560.39,621.57Zm0-26.9c-1.84.92-3.7,1.82-4.14,4.15-5.7-5.8,12.65-12.29,14.49-2.07C565.93,597.4,562.8,596.41,560.39,594.67Zm-4.14-10.34c5.35-7.12,5,10.64,0,0Zm10.34-2.07c1.08,1.07-1.49,2.65-2.06,2.07C563.46,583.26,566,581.69,566.59,582.26Zm8.29,10.34c-1.07-1.07,1.49-2.63,2.06-2.07C578,591.6,575.44,593.18,574.88,592.6Zm6.2,18.62c.51-2.59,4.12-2.08,4.14,0C584.29,614.23,583.4,611,581.08,611.22Zm4.14-22.75c.39-2.35,2.06-1.15,2.06,0C586.9,590.82,585.2,589.61,585.22,588.47Zm10.35-20.69c.38-2.35,2.06-1.15,2.06,0C597.24,570.13,595.55,568.93,595.57,567.78Zm16.54,39.31h-6.2V603c1.76.38,1.94-.81,2.06-2.07h4.14Zm8.29-14.49c-1.07-1.07,1.49-2.63,2.06-2.07C623.53,591.6,621,593.18,620.4,592.6Zm6.2-24.82c-1.84-1.6-4.67-2.23-8.28-2.07C618.7,559.71,628.16,560.72,626.6,567.78Zm0-4.14c.51-2.61,4.1-2.09,4.14,0C629.81,566.65,628.92,563.43,626.6,563.64Zm0-8.27c6.65-5.62,10.67,4.65,12.41,10.34C633.13,564,628.5,561,626.6,555.37Zm4.14-4.14c0-2,2.53-1.61,4.12-2.08C634.82,551.18,632.34,550.76,630.74,551.23Zm8.27-2.08c.4-2.34,2.08-1.14,2.08,0C640.68,551.51,639,550.31,639,549.15Zm2.08,26.91c0-2,2.52-1.61,4.12-2.07C645.17,576,642.68,575.59,641.09,576.06Zm6.2-16.56c.91-3,1.82.21,4.14,0C650.91,562.11,647.31,561.59,647.29,559.5ZM655.55,574c-1.07-1.08,1.5-2.64,2.08-2.08C658.71,573,656.14,574.56,655.55,574Zm2.08-37.24c-1.07-1.07,1.5-2.65,2.06-2.07C660.77,535.75,658.2,537.31,657.63,536.75Zm6.21,45.51c.38-2.34,2.08-1.14,2.06,0C665.51,584.61,663.84,583.41,663.84,582.26Zm8.28-64.14c-1.07-1.06,1.5-2.63,2.06-2.06C675.25,517.13,672.69,518.7,672.12,518.12Zm8.26,29h-4.14V543h4.14ZM699,514h-6.2v-4.14H699Zm0-10.35c.06-2,2.53-1.6,4.14-2.07C703.09,503.58,700.61,503.18,699,503.64Zm12.41,22.76c-2.2,7.71,7.76,3.28,6.2,10.35h-8.26v4.13h-4.14v-4.13h4.14c-1.88-5.37-1.05-7.7,0-14.49,5.43,5.38,1.61-3.34,8.26-2.07C718.87,525.57,716.79,527.64,711.42,526.4Zm4.14,4.14c-1.07-1.08,1.5-2.64,2.06-2.07C718.69,529.54,716.12,531.11,715.56,530.54Zm0-47.58c2.08,6.22-4.61,3.66-8.28,4.13C707.78,483.45,710.85,482.38,715.56,483Zm-2.06-18.62V460.2h4.12v4.14Zm-8.28,8.27c6.26-7.65,7,6.28,0,0ZM725.9,460.2c-2,.06-1.59,2.53-2.06,4.14-4.5.34-1-7.35-2.08-10.35,3.68,1.15,8.59,1.06,10.35,4.13C732.49,466.05,730.41,458.88,725.9,460.2Zm0-10.35v-4.14c1.76.38,2-.8,2.06-2.06C732,442.82,731,453.06,725.9,449.85Zm8.29,70.34h-4.14v-4.13h4.14ZM759,454c.73,9.63-9.72,5.68-12.41,2.06C748.35,448.68,751.68,455.81,759,454Zm-2.06-80.69c-.06,2-2.53,1.6-4.14,2.07C752.86,373.36,755.34,373.76,756.94,373.3Zm-8.29,64.14v-6.21C754.69,428.19,754.69,440.48,748.65,437.44Zm-2.06-49.66c6.73.39,1.5,3.6,4.14,10.35C743.79,400.25,747.5,391.69,746.59,387.78Zm-2.06,76.56h-4.14V460.2h4.14Zm-4.14-132.42c5.15.85.12,8-4.14,6.21C735.12,333.55,740.21,335.18,740.39,331.92Zm-10.34-39.31c-1.09,3.19-2.17.13-2.09-2.07C729.08,287.36,730.13,290.41,730.05,292.61Zm0,107.59a9.71,9.71,0,0,0,6.2,2.07c1.57,8.52-7,13-12.41,8.27C722.85,404.05,729.4,405.08,730.05,400.2ZM694.87,253.31c6.36,1.44,4,1.44,10.35,0-1.4,4.8-6.87,5.53-8.29,10.34C692.45,264,696,256.32,694.87,253.31Zm2.06,12.41c4.77,2.92-.14,13.48-6.2,12.42C692.71,273.9,695,269.94,696.93,265.72Zm-6.2,4.13c1.07,1.07-1.5,2.65-2.06,2.07C687.6,270.85,690.16,269.29,690.73,269.85Zm-6.2-20.69c1.07,1.08-1.5,2.65-2.06,2.07C681.39,250.16,684,248.6,684.53,249.16Zm-2.06-43.44c1.06,1.08-1.52,2.64-2.09,2.07C679.31,206.72,681.88,205.15,682.47,205.72Zm-4.15,12.41c-.06,2-2.54,1.61-4.14,2.07C674.24,218.19,676.71,218.6,678.32,218.13Zm-62.06-47.58c3,.46.7,6.17,4.14,6.2C619.49,181.28,611.25,172.83,616.26,170.55Zm0,20.69c-.41,2.35-2.09,1.15-2.09,0C614.58,188.89,616.26,190.09,616.26,191.24Zm-14.49,4.14c5.82-.3,6,5.06,6.2,10.34C603.51,204.15,596.42,200.69,601.77,195.38ZM579,185c1.07,1.07-1.52,2.63-2.08,2.06C575.87,186,578.43,184.46,579,185Zm-12.43-22.76h4.15v4.13h-4.15Zm2.09,26.89c-1.08-1.07,1.49-2.64,2.06-2.07C571.81,188.17,569.24,189.74,568.68,189.17Zm-2.09-10.35V183h-4.14v-4.14Zm-6.2-31c.06-2,2.53-1.61,4.14-2.07C564.47,147.74,562,147.32,560.39,147.79Zm2.06-8.27c1.07,1.07-1.49,2.64-2.06,2.07C559.32,140.52,561.89,138.94,562.45,139.52Zm-8.26,18.61c2.54.91,4.24,2.65,4.14,6.22-1.86,1.6-4.69,2.22-8.28,2.06C550.94,163.17,556.55,164.64,554.19,158.13Zm0,20.69c-.4,2.36-2.08,1.16-2.08,0C552.51,176.48,554.19,177.68,554.19,178.82Zm-10.35,2.07c1.08,1.08-1.49,2.65-2.08,2.07C540.69,181.89,543.26,180.32,543.84,180.89ZM541.76,185c1.07,1.07-1.49,2.63-2.06,2.06C538.63,186,541.2,184.46,541.76,185Zm-6.2-22.76h4.14v4.13h-4.14Zm-2.06,6.2c-.91,2.75-15,2.2-2.08,0C531.24,168.52,534.45,165.58,533.5,168.48ZM531.42,154c1.07,1.07-1.5,2.64-2.06,2.06C528.29,155,530.85,153.43,531.42,154Zm-4.13-6.21c-.92,3-1.82-.21-4.15,0C523.66,145.19,527.27,145.71,527.29,147.79Zm-4.15-16.55c4.62.3-2.67,5.22,0,10.35-1.6,3.76-2.22-1.25-2.06-4.15-2,.06-1.6,2.54-2.07,4.15C512.55,138.24,523.26,135,523.14,131.24ZM506.6,151.93c.39-2.35,2.07-1.15,2.07,0,2.4.33,3.68-.45,4.13-2.07,1.77-.38,2,.81,2.07,2.07v4.13H506.6c-.39-1.76.81-1.95,2.07-2.06C509.05,152.23,507.86,152,506.6,151.93Zm2.07,18.62c-1.07-1.07,1.49-2.64,2.07-2.07C511.81,169.55,509.24,171.12,508.67,170.55Zm-6.21-18.62c1.07,1.07-1.5,2.64-2.06,2.07C499.32,152.93,501.89,151.36,502.46,151.93Zm-12.41-4.14c4.77-.63,2.29,6,6.2,6.21-.9,3.07-2.64-.82-6.2,0ZM506.6,160.2c.85,5-3.78,4.5-2.07,10.35-9.6.64-14.31-3.63-14.48-12.42C500.35,156.23,498.85,164.65,506.6,160.2Zm-4.14,18.62c-1.07-1.07,1.5-2.63,2.07-2.07C505.6,177.82,503,179.4,502.46,178.82Zm-29-14.47c-.05,2-2.52,1.6-4.13,2.06C469.41,164.4,471.89,164.81,473.49,164.35Zm-10.34-2.07c1.07,1.07-1.5,2.63-2.07,2.07C460,163.28,462.58,161.7,463.15,162.28ZM459,156.06c-.06,2-2.54,1.61-4.14,2.07C454.94,156.12,457.41,156.53,459,156.06Zm-10.35-18.62c.91-3,1.81.22,4.13,0C452.3,140.05,448.69,139.54,448.67,137.44Zm4.13,8.28c-.39,2.35-2.07,1.15-2.07,0C451.13,143.37,452.81,144.58,452.8,145.72Zm-2.07-12.41c-2.54-.91-4.24-2.64-4.13-6.21C449.15,128,450.84,129.75,450.73,133.31Zm-2.06,18.62c-.39,2.35-2.08,1.15-2.07,0C447,149.58,448.67,150.78,448.67,151.93Zm0,12.42c1.07,1.07-1.49,2.63-2.07,2.06C445.53,165.35,448.1,163.77,448.67,164.35Zm-4.14-18.63c-1.09,3.19-2.16.13-2.07-2.06C443.56,140.47,444.62,143.53,444.53,145.72Zm-6.2,16.56h4.13v4.13h-4.13Zm-4.14-31c1,6.5-4.88,8.46,2.07,10.35C440.51,149.67,420.72,132.36,434.19,131.24Zm0,39.31c-.92,3-1.82-.21-4.15,0C430.56,167.94,434.17,168.46,434.19,170.55ZM430,145.72c-.38,2.35-2.07,1.15-2.06,0C428.38,143.37,430.05,144.58,430,145.72Zm-6.2,4.14c6.22-2.08,3.67,4.61,4.14,8.27C424.34,157.64,423.27,154.58,423.84,149.86Zm-2.07-20.69c1.07,1.07-1.5,2.65-2.07,2.07C418.64,130.17,421.21,128.6,421.77,129.17Zm-8.27,35.18h4.14v4.13H413.5Zm-8.28-33.11h4.14v4.13h-4.14Zm2.07,29c-.39,2.36-2.08,1.16-2.07,0C405.62,157.86,407.29,159.05,407.29,160.2Zm-14.48-33.1H397v8.27h-4.14ZM397,137.44c2.34.4,1.14,2.09,0,2.08,1,4.7,4.1,10.56,0,14.48-3.19-.12.66-10.89-4.14-14.48C393.54,136.27,396.46,141.32,397,137.44ZM390.74,154c2.14-2.14,3.21.92,2.07,2.06C390.67,158.2,389.6,155.14,390.74,154Zm-8.28-22.76c-.39,2.35-2.07,1.15-2.07,0C380.79,128.89,382.47,130.09,382.46,131.24Zm-8.27,14.48h4.13v4.14h-4.13Zm-4.14-8.28c-.4,2.36-2.07,1.16-2.07,0C368.37,135.1,370.06,136.3,370.05,137.44Zm0,29c-.4,2.35-2.07,1.15-2.07,0C368.37,164.06,370.06,165.27,370.05,166.41ZM368,176.75c-5.45.63-6.79-2.86-6.21-8.27C363.35,171.73,368.34,171.57,368,176.75Zm-2.06-14.47c1.07,1.07-1.5,2.63-2.07,2.07C362.77,163.28,365.34,161.7,365.92,162.28Zm-2.07-12.42c.26,3.71-2.54,4.36-2.08,8.27H351.43C351.91,151.72,358.76,151.68,363.85,149.86Zm-20.69-10.34h4.13v4.14h-4.13Zm2.07,18.61v4.15h-4.14v-4.15Zm-4.14-24.82v4.13c-3.35.59-3.57-1.94-6.21-2.07C334.25,132.87,340.85,128.24,341.09,133.31Zm0,20.69c-1.64,7.26-7.24,2.39-10.35,0C332.25,152.3,337,151.5,341.09,154Zm-14.49-6.21c1.07,1.07-1.5,2.65-2.06,2.07C323.47,148.79,326,147.22,326.6,147.79ZM308,185c1.07,1.07-1.5,2.63-2.07,2.06C304.85,186,307.42,184.46,308,185Zm-2.07-22.76c1.07,1.07-1.5,2.63-2.06,2.07C302.78,163.28,305.35,161.7,305.91,162.28Zm-8.27,10.34c1.07,1.07-1.5,2.64-2.07,2.07C294.5,173.62,297.07,172.05,297.64,172.62Zm0,12.42c-.4,2.34-2.07,1.14-2.07,0C296,182.68,297.65,183.88,297.64,185Zm-6.21-16.56c1.08,1.07-1.49,2.64-2.07,2.07C288.29,169.48,290.86,167.91,291.43,168.48Zm-2.07,8.27c1.07,1.07-1.49,2.65-2.07,2.07C286.22,177.75,288.79,176.19,289.36,176.75Zm-14.48-14.47c-2.44,3.07-1.79,9.24-8.28,8.27C269.05,167.48,268.39,161.31,274.88,162.28Zm-10.35,8.27c1.07,1.07-1.49,2.65-2.06,2.07C261.4,171.55,264,170,264.53,170.55ZM256.26,185c1.07,1.07-1.5,2.63-2.07,2.06C253.13,186,255.69,184.46,256.26,185Zm-4.13-12.42c6.29-5.65-5.65,6.29,0,0Zm4.13-12.42c-.33,2.43-3.77,1.75-6.2,2.08C250.39,159.85,253.82,160.53,256.26,160.2ZM248,176.75c-.39,2.36-2.07,1.15-2.07,0C246.31,174.41,248,175.61,248,176.75Zm-4.14,14.49h6.22v4.14h-6.22Zm-6.2,29h4.14v3.17c43.3-26.14,97.63-43.52,157.39-48.42-1.44-6.29-1.45-14-4.29-18.89,6.93,3.1,1.84,10.36,8.27,10.35v8.22c6.28-.46,12.61-.76,19-.94-.62-1.94-.54-4.57-.38-7.28,7.87,3.05.4-9.25,8.27-6.21,3,3,1.59,6.56-4.13,6.21,1.12,4.93,1.37,4.63.76,7.17q3.58-.06,7.18-.06c4.23,0,8.42.1,12.6.22.37-.83,1.81-1.53,2.22-1.12a.84.84,0,0,1,0,1.16q7.71.27,15.3.81c-.62-.32-.78-1.11-.86-2v-4.14c2.67,1.58,5.71,2.79,6.17,6.58a400.25,400.25,0,0,1,44.5,6.25c-.89-1-1.34-2.38-1-4.56,4-4,12.67-2.16,10.34,6.21l-1,.06q5.79,1.28,11.47,2.71c.56-.61,1.59-1,1.93-.69a.85.85,0,0,1,0,1.2c60.61,15.79,111.32,45.37,144.87,83.45.64-2.39,4.07-1.87,4.09.16a8,8,0,0,1-2.66,1.42,194.25,194.25,0,0,1,16,21.44c9.09,1.1,12.67-3.29,21.78-2.17.32,5.84-5.86,5.19-8.28,8.29,2.66,4.87-.27,3.84,2.08,10.34-5.66,1.51-4.18-4.11-8.28-4.14h0q2.19,4.1,4.15,8.27h2.06v4.14h-.1a153.17,153.17,0,0,1,13,61.55A192.59,192.59,0,0,1,720,419c1.07-.19,2.27.23,3.89,1.91.45,4.15-9.23,8.37-2.08,12.41-1.3,2.28-3.55,3.61-6.72,4-.21.66-.46,1.3-.68,2a7.3,7.3,0,0,1,1.2.22,7.29,7.29,0,0,1-2.41,3.27c-13.73,38.19-39.61,71.3-74.62,97.06a1.54,1.54,0,0,1,.48,1c-.37,2.27-2,1.23-2,.12a266,266,0,0,1-33.37,20.57h2.32v4.14h-4.14v-3.17a317.17,317.17,0,0,1-71.36,25.87c2.34,1.77,4.78,2.61,9.29.06.39,8.28,12,21.31,16.55,12.41,5.35,3.59-5.8,14.13,6.2,12.41-.56,4.8-5.51,4.76-8.26,2.07-.59,3.35,2,3.57,2.06,6.21.26,2.4-9.35-5.72-10.35,4.14-1.57-1.42-6.56-8.72-6.2,0-4.48.35-.93-7.34-2.06-10.35,5.44,7.49,7-1.8,12.41,2.07,2.42-.33,1.73-3.77,2.06-6.21-7.4,3.71-6.29-.17-6.21-8.27-8.16,4-6.32-4-14.48,0,4.06-3.86.65-7.58,0-12.42-1.84.92-3.7,1.82-4.13,4.14a10.15,10.15,0,0,1-3-4.87q-13.68,3-28,5c.89,6.35-5.23,7.28-8.28,4.05a4.4,4.4,0,0,1,1.85-3.22q-10.92,1.3-22.14,2a6.81,6.81,0,0,0-.4,1.18,4.27,4.27,0,0,1-2.61-1c-7.67.43-15.41.72-23.28.72a310.25,310.25,0,0,1-50.13-2.78l-8.57-.6c.15,1-1.81,2.1-2.31,1.61s-.1-1.28.54-1.73l-15.77-1.11a2.45,2.45,0,0,0-1.31,2.84c-1.68-.85-2.29-2-2.24-3.09h0l-34,28.28c-7.89,9-42.15,37.64-71.64,56.2,18-51.17,17.09-67.39,17.09-67.39l.05-.66c-.7-1.08-.82-2.75-.28-5.07a2.8,2.8,0,0,0,.63.49l2.11-27.2L255,567.81c-.34.11-.65.13-.81,0a.74.74,0,0,1-.23-.5l-7.28-3.72a184.82,184.82,0,0,1-22.16-13.43c-.58,1.52-3.19,5.61-5.5,5.24-3.83,5.6.54-4.73,4.13-4.14a14,14,0,0,1,1-1.35c-57.8-40.95-84.09-109.73-84.09-170.89a147.45,147.45,0,0,1,3.35-31.23c-3.88-2.24-6.13-5.65-3-9.63,3.92-.86,4,2.14,4.09,5.11q1.2-4.77,2.7-9.46c-2.41.62-3.15,2.9-6.79,2.28.34-2.4-.46-3.67-2.06-4.14-3.07.91.81,2.66,0,6.21H128c-.34-2.4.46-3.68,2.06-4.14.62-5.43-8-1.63-6.2-8.27,5.85,1.7,5.37-2.92,10.34-2.07-.33-2.43-3.76-1.74-6.2-2.07,1.61-1.84,2.22-4.67,2.06-8.28,2,.06,1.61,2.54,2.07,4.14,5.61,3.63,13.58,4.87,17,10.68q.83-2.25,1.71-4.47h-2.13v-4.14h3.84c16.06-37.38,46.88-70.18,87.68-95.17h-2.56Zm-72.41,57.94c1.07,1.07-1.5,2.63-2.07,2.06C162.09,279.14,164.65,277.56,165.23,278.14Zm70.34-91c1.07,1.07-1.5,2.64-2.07,2.07C232.44,188.1,235,186.53,235.57,187.1Zm0,20.69c1.07,1.07-1.5,2.64-2.07,2.07C232.44,208.78,235,207.22,235.57,207.79Zm-14.48-18.62h4.13c1,4.41-2.95,3.94-6.2,4.14C219.42,191.63,221.09,191.25,221.09,189.17Zm0,16.55c2.25.51,1.41,4.12,4.13,4.14-1.35,6.2-4.42-2-8.27,0C217.47,207.61,221.06,208.45,221.09,205.72ZM217,216.07c1.07,1.07-1.49,2.64-2.07,2.06C213.81,217.07,216.38,215.49,217,216.07Zm-4.14,2.06c1.07,1.07-1.5,2.65-2.06,2.07C209.68,219.13,212.24,217.57,212.81,218.13Zm-18.62-8.27c3.88,2.33,4.4,8,8.27,10.34C205.31,225.82,193.3,215.54,194.19,209.86Zm-2.07,6.21c-.38,2.34-2.07,1.14-2.06,0C190.45,213.71,192.13,214.92,192.12,216.07Zm2.07,31c-6.27,7.65-7-6.28,0,0Zm-12.41,2.06c-.51,2.61-4.12,2.1-4.14,0C178.56,246.16,179.46,249.38,181.78,249.16Zm-6.21,16.56c2.14-2.14,3.22.92,2.07,2.07C175.5,269.92,174.43,266.86,175.57,265.72Zm-6.2-8.27c-5.65-6.3,6.29,5.64,0,0ZM167.3,274c-4.88,6.66-8.36-7.27,0,0Zm-2.07-12.41c-3.23,9.78-10.26,2.76,0,0Zm-8.27-6.2h-4.15v-4.15H157Z" transform="translate(-87 -120.52)" fill="#43a1e2"/><path d="M467.29,172.62c-1.76-.38-2,.81-2.07,2.07h-.05c.84.06,1.67.16,2.5.22C467.53,174.16,467.49,173.31,467.29,172.62Z" transform="translate(-87 -120.52)" fill="#43a1e2"/><path d="M450.73,710.54c2.12-.25,4.19,8.92,6.22,2.07C454,713.71,451.9,704.54,450.73,710.54Z" transform="translate(-87 -120.52)" fill="#43a1e2"/><path d="M485.91,648.47s0,0,0,.06c.4,0,.79-.08,1.19-.12C486.71,648.43,486.31,648.44,485.91,648.47Z" transform="translate(-87 -120.52)" fill="#43a1e2"/><path d="M437.59,120.56c-1.25,0-2.49,0-3.74,0h-.1a10.58,10.58,0,0,1,.44,2.45C436.11,123,436.81,121.72,437.59,120.56Z" transform="translate(-87 -120.52)" fill="#43a1e2"/><path d="M475.56,644.33c.92,1.85,1.82,3.7,4.15,4.14,0,.24-.06.43-.1.62l1.94-.16a52.78,52.78,0,0,1,2.29-6.67C480.13,642,479.47,644.79,475.56,644.33Z" transform="translate(-87 -120.52)" fill="#43a1e2"/><path d="M479.71,636.05c-7.29,8.37,6.64,4.88,0,0Z" transform="translate(-87 -120.52)" fill="#43a1e2"/><path d="M806.6,526.4c.75-2,.46-2.9-.23-3.43-.88,1.56-1.74,3.14-2.64,4.67Z" transform="translate(-87 -120.52)" fill="#43a1e2"/><path d="M490.05,772.6c0-1.15-1.68-2.35-2.07,0C488,773.75,489.66,775,490.05,772.6Z" transform="translate(-87 -120.52)" fill="#43a1e2"/><path d="M762.83,583.17l-.22.24A2.5,2.5,0,0,0,762.83,583.17Z" transform="translate(-87 -120.52)" fill="#43a1e2"/><path d="M788,557.44c.3-1.81-.87-2.14-2.32-2.2l-1.17,1.62A8.16,8.16,0,0,1,788,557.44Z" transform="translate(-87 -120.52)" fill="#43a1e2"/><path d="M485.91,766.39c6.29,5.65-5.65-6.29,0,0Z" transform="translate(-87 -120.52)" fill="#43a1e2"/><path d="M539.7,727.08c-5.13,2.7-8.58-6.07-10.34,0C532.47,729.48,538.07,734.35,539.7,727.08Z" transform="translate(-87 -120.52)" fill="#43a1e2"/><path d="M500.4,778.81c-1,.71-2.61,4.63-3.95,6,1.79.75,3.58,1.51,5.39,2.23a.69.69,0,0,1,.62.08c.06.06.07.14.11.2l1.86.73C504,784.07,505.49,778.12,500.4,778.81Z" transform="translate(-87 -120.52)" fill="#43a1e2"/><path d="M494.18,780.88a7.06,7.06,0,0,0-4.34,1c1.62.73,3.24,1.45,4.88,2.15A14.48,14.48,0,0,1,494.18,780.88Z" transform="translate(-87 -120.52)" fill="#43a1e2"/><path d="M508.67,780.88c6.29,5.64-5.65-6.3,0,0Z" transform="translate(-87 -120.52)" fill="#43a1e2"/><path d="M483.84,756.05v6.21C489.88,765.3,489.88,753,483.84,756.05Z" transform="translate(-87 -120.52)" fill="#43a1e2"/><path d="M479.71,607.09c.56.58,3.13-1,2.06-2.07C481.2,604.44,478.63,606,479.71,607.09Z" transform="translate(-87 -120.52)" fill="#43a1e2"/><path d="M423.79,707.62a5.1,5.1,0,0,1-4.09.84,5.35,5.35,0,0,1,0-.89l-3.5-.07c1.89,2.41,2.36,5.55-.59,7.17-4.75-.74-3.38-3.18-4.77-7.31l-6.56-.24a12.59,12.59,0,0,0,3.05,1.34c-.24,5.72-8.32,4.07-8.28-1.57-5.62-.27-8.78-.47-9-.3a260.92,260.92,0,0,0,44.82,42.92c4.48-2.08,9.19-3.92,11.73-7.94,7.33.69,5.08,5.69,12.42,2.07.74,10.17-6.8,14.35-14.49,10.34,1.15-4.22,6.22-4.06,2.07-8.28-3.83.31-1.27,7-4.14,8.28a9.68,9.68,0,0,0-2-.36q3.06,2.19,6.21,4.31c2.18.21,4.68.73,6.11.19v3.82l1.91,1.21c2.32-.77,4.78.64,6.37,3.24,2.49-2.33,3.75-5.9,10.34-4.13-1.6,1.84-2.22,4.67-2.06,8.27a19.73,19.73,0,0,0-4.54-1.35c2.13,1.22,4.27,2.41,6.44,3.58a6,6,0,0,1,.16-2.23c2.42.33,3.69-.45,4.14-2.07,3.83.31,1.28,7,4.15,8.27,2.24-.5,1.4-4.11,4.13-4.13-2.74-3-9.46-5.21-4.13-10.34-.61-2-12.22,1-6.22-6.21-5.85-1.71-5.35,2.91-10.34,2.07,2-4.23,4.23-8.19,6.21-12.42-6.7-2.55-1.59,6.7-8.28,4.14-2.27-5.27,7.07-10.64-2.06-10.34,2.07-2.76,3.4-6.25,6.2-8.28,4-5.44-8.75,15.53,6.2,12.42-2.33,6.5.6,5.47-2.06,10.34,1.44-1.62,11.54-4.6,12.41,0,6.11-1.79-4.8-3.1-2.06-8.28,2.42,3.09,8.59,2.45,8.27,8.28,2.42-5.85,9-7.55,10.34-14.48-6.69-2.56-1.58,6.7-8.27,4.14-.65-4.84-4.05-8.55,0-12.42-3.34-.58-3.57,1.95-6.21,2.08.28,3.84,1.36,6.91,4.14,8.27-3.86,5.07-5.5-6.07-12.42,0,.4-1.68,2.08-2.06,2.08-4.14-6.38-1.54-4,5.67-10.35,4.14.47-7.93,6.15-9.16,12.42-6.21-1.35-2.11-4.76-2.14-4.15-6.21,7.72,2.2,3.28-7.75,10.35-6.2,1.42,5.56-4.27,4-6.2,6.2.57,4.89,5.52-2.37,8.27-2.07.09-3.53-1.54-5.35-4.14-6.2,7.48-5.45-1.81-7,2.07-12.42,2.4,1.74,5.55,2.73,10.34,2.08.76-3.53-1.61-3.91-4.14-4.15,9.54-5.18,2.18,13.85,8.29,20.69-4.86-.65-4.64-6.4-8.29-8.27-6.06,1.76,2.7,5.2,0,10.34,4.33-3.16,13.69,8.78,18.63,0,3.94,1.78-2.24,1.24-2.07,4.15,2.4,3.79,11,1.43,8.27,10.34,3.64-.5,4.72-3.57,4.14-8.28a14.63,14.63,0,0,1,4.14,6.21c5.31-6.45,2.52-11.58,2.07-20.69,5.68,4.44,8.63-1.2,14.47,2.07,1.22,6.72-1.39,9.62-2.06,14.48-3.66-4.27-6.4-1.81-8.28-4.13-5.22,3.91,1.92,7.25-2.06,12.4,5.35-2.66,6.5-4.27,4.14-10.34,3.64,1.87,3.41,7.61,8.26,8.28-.91,3-1.82-.21-4.12,0-5.64-1.49,1.48,9.75-4.14,8.27.3,3.83,7,1.28,8.26,4.14-5.43,2-12.36.88-8.26,12.41-3.25-.89-1.78-6.5-8.28-4.13,1.19-1.26,4.85-9.82,0-10.35.89-5.72,6.5-.11,4.14,4.14,3-.47.73-6.18,4.14-6.21-4-3.46-9.72-12-14.49-8.27a14.61,14.61,0,0,0,6.21,4.13c-3.7,4.22-7.64.59-4.14,8.28h-6.21c5.77-7.74-3.77-11.75,0-16.55-8.32,1.32-15.69,3.61-14.47,14.48-3.72.27-4.37-2.53-8.29-2.07,1.23,7.18,10.22,5.11,14.49,4.14-1.34-5-4.18-10.64,4.14-10.35-5.58,5.39,2.53,6.24,2.06,12.42-7.45-.85-2.83,3.77,2.07,2.07.55,6.76-8,4.38-8.27,10.34-.63-2.68.18-10.4-8.28-10.34-2.8.63-1.71,5.18-2.07,8.27-6.22-2.08-3.66,4.62-4.14,8.27,1.85-1.6,4.68-2.22,8.29-2.06.18-5.64-3.45-4.17,0-8.28,2.41,1.27,3,14.59,8.27,6.21,7,2.62,7.65,11.58,3.65,18.36,1.87.67,3.74,1.34,5.63,2a31.26,31.26,0,0,1,3.13-14.13c1-6.54-10.27-.77-8.28-8.28,10,3.81,2-1.2,6.21-8.27,3.83-2,1.27,11.84,4.13,4.13,4,2.76-2.37,9.19,2.08,14.49,5.11.27,10,.31,12.42-2.07-1.8-6-3.11-2.33-8.28-2.08-5.39-1.64,5.9-3.45,8.28-4.13,2.2,6.9-.66,7.06,2.06,14.48-3.51.77-3.9-1.61-4.14-4.13-6.36-1.55-4,5.67-10.34,4.13V783c-4.85.21-4.26,5.85-4.16,11l1,.33c3.94-4.23,3.81-2.55,4.8,1.52l3,.88c3.36-2,6.61-7.1,7.82-3.4.57,3.7-2,4.24-2.08,2.07a10.08,10.08,0,0,0-1.72,2.53c31.54,8.93,66.13,13.74,103.32,13.74,5.9,0,10.84.08,15.52.08a208.76,208.76,0,0,0,33.14-2.17c6.74,8.2,29.81,31,58.67,52.19,2.18-1.34,3.19.58,2.87,2.08,25.46,18.35,55,35.09,81.83,39.49,0-.08.09-.08.26-.08.78,0,3,.26,4.51.26a17,17,0,0,0,17-17,18.73,18.73,0,0,0-1.39-6.68h.09c-9.26-16-23-57.72-27.13-90.56-3.82-.14-6.1-1.82-5.59-6.29a13.2,13.2,0,0,1,4.93.22c-.37-4-.57-7.86-.57-11.44,0-.52-.18-.87-.18-1.3,77.36-39.66,114.14-96.95,115.8-171.61-3.7.25-4.35-2.54-8.27-2.07-.48-2.76,6.33-3.46,8.32-1.17,0-.7,0-1.39,0-2.09a232.12,232.12,0,0,0-3.33-40.19h-7.08c-1-5,3.19-6.89,6-5.56a168,168,0,0,0-21.19-54.44H908v-4.14a2,2,0,0,0,.84,0,174.86,174.86,0,0,0-25.34-30.39,4.56,4.56,0,0,0-.33,1.42H879v-4.15a1.53,1.53,0,0,0,1.33-.18,242,242,0,0,0-41.61-30.39A247,247,0,0,1,833.25,458a5,5,0,0,1,.24,2.17l-.71-.17c-1,4.27-2.15,8.37-3.31,12.16,3.27.28.35,6.75,6.08,4.55-1.35,5.87-5.86,4.23-7.62.29-.42,1.22-.83,2.41-1.25,3.53.2.11.4.22.61.32a3.79,3.79,0,0,1-2.07,3.33q-2.06,5-4.22,9.79a13.21,13.21,0,0,1,2.15-.7c-2,2.55-2,7.2-5.62,8.15-.68,1.42-1.34,2.86-2,4.27h1.43a34.3,34.3,0,0,0-2.61,2.36q-3,6-6.18,11.74c2.84,1.59,5.3,3.57,10.85,2.44a9.74,9.74,0,0,0-2.06,6.21c7.82,3,4-5.68,10.35-4.14-.89,3.95-.77,8.9-6.23,8.28,1.28,1.84,2.51,3.69,0,4.14,6.69-.41-.84,5.27,6.23,6.2.83,5-3.78,4.5-2.08,10.35-6.63.42-3.38-9-10.35-8.28,1.26-5,3-9.44,2.08-16.55-11.17-2.89-6.85,9.72-14.48,10.34-.39-1.76.81-1.95,2.06-2.06-.2-1.56-3.1-.8-5.79-.89q-5.54,8.86-11.46,17.12c1.09.63,2.41,1,4.84.32v8.27c-7.31-1.11-10.66,1.76-12.42,6.21a4.34,4.34,0,0,1-1.8-2.31q-7.07,8.94-14.55,17.13c2,3.1-.86,4.79-4.4,4.71q-4.05,4.26-8.21,8.33v3.18h-3.26c-4.93,4.7-10,9.19-15.1,13.5a2.67,2.67,0,0,1-.26,3h-3.39q-5.24,4.27-10.6,8.28h1.58v4.14h-4.14v-2.23q-3,2.19-6,4.3h3.91V634h-4.14v-4q-14.58,10.25-29.74,18.79c2.59,1,3.34,3.84,2.85,7.94-5.38.81-6.89-3.34-5.37-6.52-43.38,24.07-89.29,38.24-131.39,46.49.07.47.16.91.19,1.41a4.88,4.88,0,0,1-2.4-1q-5.16,1-10.24,1.87c-.21,2.88-1,6.18-1.84,7.37,7.92,1.7,2.44-10,10.34-8.27-.12,3.74-7.59,16.07-2.06,12.42,6.2,1.36-2,4.42,0,8.27-5.47-2.11-3.17-12-14.48-8.27-.17-3.64,4.1-7.88,5.19-11-5.28.88-10.49,1.68-15.6,2.39a1.21,1.21,0,0,1,.06.38c-.39,2.35-2.07,1.14-2.07,0,0,0,0-.07,0-.12-1.31.18-2.64.37-3.94.53,2.83,6.62,11.28,7.61,12.19,16.14a9.76,9.76,0,0,0-6.21-2.07,9.73,9.73,0,0,1,2.07,6.21,9.72,9.72,0,0,1,6.2-2.07c1.15,4.59-3.94,2.94-4.13,6.2-4.86-.65-4.63-6.4-8.27-8.27-7.33.23,4.39,6.84-2.07,6.2-7,.76-3.45-9-6.21-12.4,6.4,2.36,6.75-3.32,4.53-9.7-11.65,1.45-22.76,2.49-33.2,3.22-.45,2.1-1.76,3.48-4.43,2.33.17-.35.66-1.15,1.15-2.1l-4.06.24c-1.49,1.61-3.84,3.51-1.43.08-3.2.18-6.33.33-9.37.45,5.22,2.55,10.92,4.63,13.71,9.61,1.84-4.54,8.82-6,8.28,2.07C471,717,471.16,722,469.36,725c1.34,2.11,4.76,2.14,4.13,6.21-3.51.76-3.9-1.61-4.13-4.14-6.32-1.49-7.54,2.12-12.41,2.07V723c6.17,2.46,7,.57,12.41-2.07-.53-4.29-9.09-.56-10.34-4.14-4,.85-1.64,8-8.29,6.21.71-4.15-.41-6.47-4.13-6.21.43-3.83,1.4-6.68,1.69-9.35C439.24,707.65,431,707.69,423.79,707.62Zm86.95,44.29v-4.14h4.13v4.14Zm26.9,8.28c-.06,2-2.55,1.6-4.14,2.07C533.56,760.25,536,760.65,537.64,760.19Zm-2.08,10.34c-1.07-1.07,1.5-2.63,2.08-2.07C538.71,769.53,536.13,771.11,535.56,770.53ZM889.36,646.4c-1.08-1.07,1.49-2.64,2.06-2.07C892.49,645.4,889.92,647,889.36,646.4Zm2.06-33.11c5.27.26,8,3,8.28,8.28A9.65,9.65,0,0,1,891.42,613.29Zm24.83,26.9H908v-4.14h8.29Zm-14.49-22.76V607.09c4.32,4.51,5.9-1,12.41,0C915.09,615.6,906.43,614.53,901.76,617.43Zm24.83-24.83h-4.14c.38-1.75-.81-2-2.06-2.07C919.56,586.52,929.8,587.51,926.59,592.6ZM924.51,574c-1.07-1.08,1.5-2.64,2.08-2.08C927.66,573,925.1,574.56,924.51,574Zm0-14.49c7-5-5,6.94,0,0Zm2.08-29c-7.54,1.32-8.14-4.29-8.28-10.35C922.19,522.53,928.27,522.64,926.59,530.54Zm-8.28,78.62h4.14v4.13h-4.14Zm-2.06-10.34c-5.66,1.5-4.17-4.11-8.29-4.15C907,592,918.23,593.77,916.25,598.82ZM908,605c-3.59-1.91-11.09.07-10.34-6.2C901.24,600.73,908.73,598.75,908,605Zm-4.14-14.49c1.07,1.07-1.49,2.65-2.06,2.07C900.69,591.53,903.26,590,903.82,590.53Zm-4.12-74.47c1.76.37,1.94-.81,2.06-2.07,4-.82,3,9.43-2.06,6.2Zm-6.22,0h4.14v4.13h-4.14Zm-2.06-43.45c-.06,2-2.53,1.61-4.15,2.07C887.33,472.66,889.82,473.08,891.42,472.61ZM785.91,884.32h-4.14v-4.14h4.14Zm-6.22-120c-.75-3.53,1.61-3.91,4.14-4.14-2.16-5.86-2.16-8.62,0-14.49,4.36,1.84,6.12,6.3,12.42,6.21-.5,8.76,4.29,12.26,10.35,14.48,1.5,5.65-4.12,4.17-4.14,8.28-2.79-1.36-3.86-4.42-4.14-8.28C787.16,767.24,789.65,760.61,779.69,764.33Zm4.14-107.59c-.51,2.61-4.1,2.09-4.14,0C780.62,653.73,781.51,657,783.83,656.74Zm-4.14-16.55c.4-2.35,2.08-1.15,2.08,0C781.36,642.54,779.69,641.34,779.69,640.19Zm4.14,70.35c.06-2,2.55-1.61,4.14-2.08C787.91,710.48,785.44,710.07,783.83,710.54Zm2.08,6.2c-.06,2-2.55,1.6-4.14,2.07C781.83,716.8,784.29,717.2,785.91,716.74Zm12.41,12.41V725h4.14v4.14Zm4.14,134.48c-.41,2.36-2.08,1.15-2.08,0C800.78,861.29,802.46,862.48,802.46,863.63Zm-2.08,12.42c-.63-5.46,4.32-5.34,8.28-6.22C805.41,871.41,805.57,876.4,800.38,876.05Zm10.34-206.89H806.6V665h4.12Zm-4.12-6.22c1.17-5.7,2.18-11.59,10.34-10.34C814,656.61,814.42,663.89,806.6,662.94Zm26.89-53.78c1.82,6.64-5.37,4.28-6.2,8.27C822.07,615.35,828.92,608.28,833.49,609.16Zm-4.14-10.34c1.07,1.07-1.5,2.63-2.06,2.06C826.22,599.82,828.78,598.24,829.35,598.82Zm6.2,33.09v4.14h-6.2v-4.14ZM825.21,605c-9.64,2.77-25.46,1.47-18.61-10.35,4.08,1.44,5.52,5.52,6.2,10.35,4.41,1,3.94-3,4.14-6.2C818.46,602.11,827.06,598.34,825.21,605ZM819,615.36c-.06,2-2.52,1.61-4.14,2.07C814.92,615.42,817.41,615.83,819,615.36Zm-4.14,20.69v4.14h-4.14v-4.14Zm20.69,39.31c.87-4,.75-8.9,6.2-8.27C840.89,671.05,841,676,835.55,675.36Zm-6.2-14.48c-7.28-2.38-13.13-6.18-12.41-16.55,12.75.35,19.52,6.67,26.9,12.41C841.19,663.07,837.09,657.79,829.35,660.88ZM845.9,538.81c-6-.36-5-9.83,2.08-8.27C848.85,534.86,846.54,536,845.9,538.81Zm2.08,33.1v4.15h-4.14v-4.15Zm-4.14-49.65v-6.2C849.86,513,849.86,525.3,843.84,522.26Zm2.06-12.41h-4.15v-4.13h4.15Zm-2.06,43.45v4.14h-4.15V553.3Zm-2.09,60v4.14h-4.12v-4.14Zm10.35,31c-4.51.37-6.57-1.69-6.2-6.21C847.84,640.33,853.53,638.77,852.1,644.33Zm2.08-12.42c-1.07-1.06,1.5-2.64,2.06-2.06C857.31,630.92,854.74,632.49,854.18,631.91ZM879,596.75c-4.73-.58-7.78.49-8.28,4.13-6.21-1.36,2-4.42,0-8.28-4.43-1-3.94,3-4.15,6.22-3.67,1.23-8.58-6.08-10.34,0-2.54-.91-4.24-2.65-4.14-6.22-3.9,4.11-9.17,5.66-8.26-4.13h37.23C879.46,590.31,878.85,593.14,879,596.75Zm-29-72.42c.06-2,2.52-1.6,4.14-2.07C854.12,524.27,851.63,523.87,850,524.33Zm8.28,16.55c5.46-.63,5.34,4.33,6.2,8.27C859.07,549.79,859.19,544.84,858.32,540.88Zm4.12,31c-1.07-1.07,1.5-2.63,2.08-2.07C865.6,570.92,863,572.49,862.44,571.91ZM858.32,574c-1.07-1.08,1.5-2.64,2.06-2.08C861.45,573,858.89,574.56,858.32,574Zm0-37.24c-1.07-1.07,1.5-2.65,2.06-2.07C861.45,535.75,858.89,537.31,858.32,536.75Zm2.06-29h-6.2v-4.14h6.2Zm16.55,31h4.14V543h-4.14ZM868.67,574c0-2,2.52-1.61,4.12-2.08C872.75,573.93,870.26,573.52,868.67,574Zm2.06-97.25c1.07,1.07-1.5,2.65-2.06,2.07C867.59,477.74,870.16,476.18,870.73,476.74Zm-4.15,41.38c1.08,1.07-1.49,2.65-2.06,2.07C863.45,519.12,866,517.56,866.58,518.12Zm-6.2-20.69c6.93-5-5,6.94,0,0Zm-6.2-6.2c.06-2,2.53-1.61,4.14-2.07C858.26,491.17,855.78,490.76,854.18,491.23Zm2.06-22.76c-.5,2.61-4.1,2.09-4.14,0C853,465.47,853.92,468.68,856.24,468.47Zm-4.14-8.27c-2.1,4.78-4.16,9.62-10.35,10.34C842.68,464.56,846.12,461.1,852.1,460.2ZM850,472.61c-.41,2.35-2.08,1.15-2.06,0C848.36,470.26,850,471.46,850,472.61Zm-8.29,22.76c4.33-.88,5.5,1.42,8.29,2.06C848,501.74,840.89,503.11,841.75,495.37Zm-2.06,51.72c1.08,1.08-1.49,2.64-2.06,2.06C836.56,548.09,839.13,546.52,839.69,547.09Zm-14.48-26.9h-4.15v-4.13h4.15Zm-2.06-14.47c1.67.39,2.06,2.07,4.14,2.06,2.34-.39,1.13-2.07,0-2.06,4.71-6.06,3.9,2.62,2.06,6.2C824.84,512.29,822.76,510.22,823.15,505.72Zm4.14,33.09v-8.27c3.7-.27,4.36,2.53,8.26,2.07C836.18,538.06,832.68,539.4,827.29,538.81Zm-2.08,39.32c5,1.29,1.09,10.44-4.15,8.27C819.57,580.76,825.19,582.24,825.21,578.13ZM819,561.57c2.61,2.77,6.23,4.06,2.06,8.27-2.28-3.91-5.15-7.24-6.2-12.4C818.38,556.67,818.76,559,819,561.57ZM814.86,574v4.14h-4.14V574Zm-8.26-24.84h4.12v4.15H806.6Zm-4.14,18.63c3.33-.58,3.55,2,6.2,2.06C809.49,573.86,799.24,572.87,802.46,567.78Zm2.06,8.28v4.13h-6.2v-4.13Zm-8.27-20.69h4.13v4.13h-4.13Zm0,31c-.4,2.35-2.08,1.15-2.08,0C794.58,584.05,796.25,585.25,796.25,586.4ZM800.38,603v8.27c-4.33.88-5.48-1.41-8.27-2.06C793.91,606.13,795.2,602.6,800.38,603Zm0,35.17v4.14h-4.13v-4.14Zm-8.27,18.62c1.76-6.07,5.2,2.69,10.35,0,1.61-8-11.09,2.51-10.35-8.27,7.72,2.21,5.9-5.14,12.41-4.14,2.38,2.44,2.34,7.31,2.08,12.41-6.69-1.85-2.91,6.75-6.22,8.28-3.94-.87-8.89-.75-8.27-6.21,1.76-.38,1.94.81,2.06,2.07C797.08,660.15,794.36,657.24,792.11,656.74Zm-12.42-86.9c5.86-1.7,5.37,2.92,10.34,2.07C789.85,578.08,777.71,577.45,779.69,569.84Zm-18.61,45.52c.5-2.6,4.1-2.09,4.14,0C763.36,616.64,761.5,617.87,761.08,615.36Zm8.26,37.24c-1.84,1.27-3.69,2.51-4.12,0C765.73,650,769.32,650.52,769.34,652.6Zm-6.2-2.06v4.13H759v-4.13Zm-2.06,57.92c.83-5.36,6.44-6,10.34-8.27C770,705,767.69,708.88,761.08,708.46ZM771.42,592.6c2.55.91,4.25,2.65,4.15,6.22C771.14,599.78,771.63,595.86,771.42,592.6Zm2.06,262.76c-1.07-1.07,1.5-2.65,2.09-2.07C776.64,854.36,774.05,855.93,773.48,855.36Zm0-283.45h4.15v4.15h-4.15Zm-6.2,10.35h4.14v4.14h-4.14Zm-2.06,12.41c-.77-3.51,1.6-3.9,4.12-4.14-.68,7.34-5.67,5.09-2.06,12.42-4.64-2.24-9-4.8-14.48-6.2C752.84,591.08,762.55,591.83,765.22,594.67ZM746.59,764.33h4.14v4.13h-4.14ZM728,770.53h-4.12v-4.14H728Zm12.43,29c-1,.32-4.63-2.86-4.14-4.13C739.06,787.87,745.83,797.83,740.39,799.49ZM736.25,754h4.14v4.14h-4.14Zm8.28,14.48c.26,3.72-2.54,4.36-2.08,8.27-9.56,1.3-8.67-7.88-12.4-12.4C736.45,764.12,739.92,766.86,744.53,768.46ZM728,749.84V745.7h4.15v4.14ZM725.9,621.57c3.68,1.52.31,3.76,0,6.21C722.23,626.26,725.6,624,725.9,621.57ZM728,634v4.14c1.86-1.27,3.7-2.5,4.15,0-.51,2.6-4.1,2.09-4.15,0-1.75-.38-1.93.81-2.06,2.07C721.88,641,722.87,630.77,728,634Zm-20.68,4.14h4.14v4.14h-4.14Zm-4.13,14.48h4.13v4.14h-4.13Zm6.21,76.55c.62,5.46-4.33,5.34-8.29,6.21C700.45,729.91,703.94,728.57,709.36,729.15ZM694.87,739.5c.91-3,1.82.21,4.14,0C698.49,742.1,694.89,741.59,694.87,739.5Zm-2.06-8.28h4.12v4.14h-4.12Zm-2.08,10.35c-.38,2.34-2.08,1.15-2.06,0C689.05,739.21,690.73,740.42,690.73,741.57Zm-2.06-29c-.59,4.78-5.54,4.74-8.29,2.06C681,709.88,685.92,709.92,688.67,712.61ZM543.84,787.08c6.29-5.65-5.65,6.29,0,0Zm2.06-18.62h-6.2v-4.13h6.2Zm8.29,12.42c-1.84-1.28-3.7-2.5-4.14,0-6.51-4,6.08-6.14,8.28-8.28-3.27-3.07-2.32-9.24,4.12-8.27C563.83,774,555.06,773.48,554.19,780.88Zm6.2-49.66h-4.14v-4.14h4.14Zm2.06,18.62c0,2-2.52,1.61-4.12,2.07C558.37,749.9,560.86,750.31,562.45,749.84Zm8.29,37.24c.38-2.35,2.08-1.14,2.06,0C572.41,789.43,570.74,788.23,570.74,787.08Zm18.62,10.34h-6.22v-6.2h6.22Zm2.07-8.27c-5.28-.25-8-3-8.29-8.27C589.63,779.92,592.37,782.67,591.43,789.15Zm6.2-8.27c.06-2,2.54-1.61,4.14-2.07C601.71,780.82,599.24,780.41,597.63,780.88Zm0-16.55v-4.14h4.14v4.14Zm4.14,12.4c-1.07-1.06,1.5-2.63,2.06-2.06C604.9,775.75,602.33,777.31,601.77,776.73Zm14.49-14.47c.06-2,2.52-1.61,4.14-2.07C620.34,762.2,617.85,761.79,616.26,762.26Zm45.52-60c-.41,2.35-2.09,1.14-2.09,0C660.1,699.91,661.78,701.11,661.78,702.26Zm0,10.35c-.27,3.7,2.52,4.36,2.06,8.27-6.07-1.86-6.37-1.86-12.41,0C649.41,712.67,657.41,714.46,661.78,712.61Zm-12.43-24.83c-.22,5.28-6.93,4.11-12.4,4.14C635,684.44,645.09,689,649.35,687.78Zm-18.61-12.42c1.07,1.07-1.51,2.65-2.08,2.07C627.59,676.36,630.16,674.8,630.74,675.36Zm6.21,26.9c-4.23,4.42-8.19-.58-12.43-2.07C623.25,688.12,639.35,690.89,637,702.26ZM626.6,741.57c-1.84,1.27-3.7,2.49-4.14,0C623,739,626.58,739.48,626.6,741.57Zm-4.14,4.13c2,7.52-9.3,1.74-8.29,8.28C610.66,753,615.59,743.16,622.46,745.7Zm-12.41-39.31c2.81-7.48,9.56,2.47,4.12,4.15C613.16,710.85,609.57,707.68,610.05,706.39Zm-2.08,60c1.07,1.07-1.49,2.65-2.06,2.07C604.84,767.39,607.41,765.82,608,766.39Zm-2.06-20.69c-.5,3.65-3.56,4.72-8.28,4.14C595.55,743.62,602.23,746.18,605.91,745.7Zm-22.77-2.06c3.56-.35,8.14,11.73,8.29,2.06,4.64,1.5,6.8,12-2.07,12.42C591.53,749,582.35,751.33,583.14,743.64Zm2.08,20.69h-4.14c.39-1.77-.81-2-2.06-2.07C578.19,758.24,588.44,759.24,585.22,764.33Zm-6.2-26.9c.38-2.35,2.06-1.15,2.06,0C580.68,739.78,579,738.58,579,737.43Zm2.06-22.76c-.06,2-2.53,1.6-4.14,2.07C577,714.73,579.49,715.13,581.08,714.67ZM574.88,754c-.93,3-1.82-.21-4.14,0C571.24,751.38,574.86,751.89,574.88,754Zm-16.55-57.93c7.33-1.29.18,9.2-2.08,6.21.1.14,1.86-3.91,2.08-4.14S558.17,696.08,558.33,696.05Zm-4.14,14.49c7.72.18,5.9,2.31,12.4,0v8.27c2.55-2.31,4.25-1.8,4.15,2.07-4-.87-8.91-.75-8.29-6.21C558.8,714.2,552.11,716.76,554.19,710.54Zm-12.43-4.15c-1.07-1.07,1.5-2.63,2.08-2.07C544.92,705.39,542.35,707,541.76,706.39Zm2.08,39.31c4.77-.63,2.31,6,6.21,6.21-.51,2.25-4.12,1.41-4.15,4.14-2.6-.51-2.08-4.12,0-4.14-.5-2.6-4.1-2.09-4.14,0C534.91,749.89,544.09,747.82,543.84,745.7Zm-10.34-29c-1.84,1.27-3.7,2.5-4.14,0C529.86,714.14,533.48,714.66,533.5,716.74Zm-10.36-12.42c1.08,1.07-1.49,2.65-2.06,2.07C520,705.32,522.58,703.76,523.14,704.32Zm-6.2,0c.4-2.34,2.07-1.14,2.07,0C518.62,706.68,516.93,705.47,516.94,704.32Zm4.14,8.29c-1.07-1.08,1.5-2.65,2.06-2.07C524.22,711.61,521.65,713.17,521.08,712.61Zm4.14,18.61c1.07,1.08-1.5,2.64-2.08,2.08C522.07,732.22,524.65,730.65,525.22,731.22Zm-18.62-4.14c1.07,1.07-1.5,2.65-2.07,2.07C503.46,728.08,506,726.52,506.6,727.08Zm-24.83-12.41c1.07,1.07-1.5,2.64-2.06,2.07C478.63,715.67,481.2,714.1,481.77,714.67Zm-4.13-2.06c-1.08-1.08,1.49-2.65,2.07-2.07C480.78,711.61,478.21,713.17,477.64,712.61ZM473.49,725c.06-2,2.54-1.59,4.15-2.06C477.58,725,475.1,724.56,473.49,725Zm-55.85,6.21c3.33-.58,3.56,1.95,6.2,2.08C424.66,737.3,414.42,736.32,417.64,731.22Zm8.27,0c.4-2.35,2.07-1.15,2.07,0C427.59,733.57,425.9,732.38,425.91,731.22Zm2.07-4.14h-4.14V723H428ZM450.73,725h4.15c.57,4.72-.5,7.78-4.15,8.29-3.18-1.11-.13-2.17,2.07-2.08-.9-1.83-1.81-3.69-4.13-4.14C448.29,725.32,449.48,725.13,450.73,725Zm-8.27,4.14c4.67,2.36-8,11.32,4.14,6.21,1.42,5.56-4.28,4-6.21,6.21-3.95-.87-8.9-.75-8.27-6.21h6.21c.37-1.76-.81-2-2.07-2.06C436.72,730.32,442.43,732.57,442.46,729.15Z" transform="translate(-87 -120.52)" fill="#43a1e2"/><path d="M858.32,592.6c0-1.14-1.68-2.34-2.08,0C856.24,593.76,857.92,595,858.32,592.6Z" transform="translate(-87 -120.52)" fill="#43a1e2"/></g></svg>