<svg id="icon" xmlns="http://www.w3.org/2000/svg" viewBox="0 0 850 609.19"><g id="podcast"><g id="mic"><path d="M465.62,682.54c.71-2.89-.62-3.76-1.91-4.66a28.9,28.9,0,0,1-2.33,3A8.49,8.49,0,0,1,465.62,682.54Z" transform="translate(-87 -207.41)" fill="#43a1e2"/><path d="M402.9,723.13c9.11,3.29,3.41-15.37,0-9.22C408.31,715.48,400.49,718.55,402.9,723.13Z" transform="translate(-87 -207.41)" fill="#43a1e2"/><path d="M415.74,690.74a9.61,9.61,0,0,1,2.08-.43c-.29-1.59-.15-3.16,1.68-4.08,2.14,1.55,4.95,2.43,9.23,1.84-2.67,9.68,1.47,9.41,7.37,5.54-1.9,2.5-4.33,6.41-7.18,9.11v1.77a13,13,0,0,1,7.18-3.5c-2.82,5.86-.65,8.11,0,14.75-3.58-2.39-4.52-4.3-7.18-4.59V719a5.36,5.36,0,0,0,1.65-1.41c2.53,2.3,1.14,4.17-1.65,5.46v16.78c6.42,3.37,6.63-.82,12.72-1.94-5.32-3.91-4.36-14.09-7.38-20.3,4.35,0,5.43,3.18,11.07,1.85,2.8-4.59,3.57-11.2,3.69-18.45,2.42.43,7.31,10.4,0,9.22,4.28,2.7,9.27-5,11.07,5.53,1.43-4.09,6.12-4.94,5.53-11.06,8.93,3.54-2.23,8.66-3.69,12.91-.54,4.86,7.16,1.45,5.54,7.38-5,.17-3.71-3.07-7.38,0-1.07,6,1.26,8.58,1.84,12.92-4.58.29-5.71-2.9-9.22-3.7,4.11,6.07-3.83,8.14,0,12.92,4.86.56,6.06-2.56,5.54-7.38,3.38,2.76,4.59,7.71,9.22,9.23,1.5-.35,1.84-1.86,3.69-1.85-1.67-5.39-6.79-.53-7.38-3.69-1.36-7,6.8-2.1,7.38,0,6.34-.8,10.34.73,14.76,1.85-3.16-1.76-3.72-6.12-7.38-7.38,1.66-3.18,4.68-3.33,7.39-1.9V724.92c-.5.05-1.08.57-1.86,1.9-2.73-.81.73-2.36,0-5.54a4.4,4.4,0,0,1,1.86.27v-9.49h0c0-.19,0-.34,0-.51V689l5.32-2.69c0-3,0-6-3.48-5.57-1.58,1.12-4.76,11-5.54,1.85-5-.16-3.72,3.07-7.38,0-2.33.46-1.87,3.67,0,3.69-1.67,5.06-6.79-3.6-7.38,3.69-2.08-3-5.84-4.35-9.83-5.46a27.05,27.05,0,0,1-35.55-1.9c-4.32.23-5,4.11-10,3.67A9.14,9.14,0,0,1,415.74,690.74Zm49.88,41.62c3.45,3.61,6.76.56,11.08,0C478.31,738.18,462.75,741.8,465.62,732.36Zm3.7-18.45c.35-2.1,1.84-1,1.84,0C470.81,716,469.31,714.93,469.32,713.91Zm9.22,0v-3.7c3.94-.86,3.51,2.64,3.69,5.53C480.73,715.4,480.39,713.9,478.54,713.91Zm3.69-25.84c-.05,1.8-2.26,1.43-3.69,1.85C478.59,688.12,480.79,688.49,482.23,688.07Zm-5.53,5.54c1.56.34,1.73-.72,1.84-1.85,5.69,2.33-2.06,5.55-3.69,1.85C475.2,691.51,476.7,692.58,476.7,693.61Zm-11.08-1.85c2.12.65,4.68,3.26,1.85,3.7.8,2.74,2.36-.73,5.53,0-.23,3.3,2.26,3.89,1.85,7.38-3.14.67-3.48-1.45-3.69-3.7-3.31-.23-3.9,2.26-7.38,1.85C463.19,696.71,464.07,693.91,465.62,691.76Zm-7.37-3.69c1.49.35,1.83,1.86,3.68,1.85v3.69c-2.14-.3-3.28.41-3.68,1.85C453.49,695,460.78,692.28,458.25,688.07Zm0,12.92c.95,1-1.34,2.36-1.85,1.85C455.44,701.88,457.73,700.48,458.25,701Zm-14.77-5.53c7.3.3-.58-2.84,3.69-5.54,6,.35,1.34,3.21,3.7,9.22-6.68-2.5-3.68,6.8-5.54,12.92C437.47,709.68,445.51,702.89,443.48,695.46Zm-1.84,20.28c6.19-4.45-4.46,6.19,0,0Zm-5.54-25.82c1,1-1.33,2.36-1.84,1.84C433.31,690.81,435.6,689.41,436.1,689.92Z" transform="translate(-87 -207.41)" fill="#43a1e2"/><path d="M408.37,734.13v-.42C407.16,732.51,406.12,731.61,408.37,734.13Z" transform="translate(-87 -207.41)" fill="#43a1e2"/><path d="M495.14,682.54c.62.55,1,.88,1.27,1.1l.14-.07C495.49,682.37,491.74,678.75,495.14,682.54Z" transform="translate(-87 -207.41)" fill="#43a1e2"/><path d="M480.38,627.19c-5.41,1.57,2.41,4.64,0,9.23,3-2.18,8.62,3.63,13.07,2.82l-1.66-2.73a.46.46,0,0,1-.34-.09.7.7,0,0,1-.18-.77l-5.95-9.8c.14,3.31.6,6.64,2.45,8.72C483.43,634,483.63,628.86,480.38,627.19Z" transform="translate(-87 -207.41)" fill="#43a1e2"/><path d="M469.32,682.54c0,1,1.49,2.1,1.84,0C471.16,681.51,469.67,680.45,469.32,682.54Z" transform="translate(-87 -207.41)" fill="#43a1e2"/><path d="M521,477.75c-.55.27-1.09.57-1.59.88l2,1.39C521.2,479.3,521.18,478.44,521,477.75Z" transform="translate(-87 -207.41)" fill="#43a1e2"/><path d="M396,688.4v3.82c1.29-2.39,4.82-2.56,6.92-4.15-.35-1.49-1.86-1.84-1.85-3.68C396.15,682.52,398.34,687.73,396,688.4Z" transform="translate(-87 -207.41)" fill="#43a1e2"/><path d="M489.6,599.52a2.36,2.36,0,0,0-1.59,1.37,8.34,8.34,0,0,1,1.45.68A4.17,4.17,0,0,0,489.6,599.52Z" transform="translate(-87 -207.41)" fill="#43a1e2"/><path d="M524.66,560.77a4.94,4.94,0,0,0,3.53-4l-4.06,2A4.64,4.64,0,0,0,524.66,560.77Z" transform="translate(-87 -207.41)" fill="#43a1e2"/><path d="M478.54,675.16c0-1-1.49-2.1-1.84,0C476.69,676.19,478.19,677.25,478.54,675.16Z" transform="translate(-87 -207.41)" fill="#43a1e2"/><path d="M473,660.4v5.54C478.39,668.65,478.39,657.68,473,660.4Z" transform="translate(-87 -207.41)" fill="#43a1e2"/><path d="M473,675.16c-2.44-2.66-8.43-4.65-3.68-9.22-.11-.36-.62-.53-1.31-.63a26.54,26.54,0,0,1-1.36,6.51c1.9,1.34.43,6,2.67,7C471.32,678.4,470.57,675.18,473,675.16Z" transform="translate(-87 -207.41)" fill="#43a1e2"/><path d="M474.85,669.62c5.61,5-5-5.61,0,0Z" transform="translate(-87 -207.41)" fill="#43a1e2"/><path d="M408.43,689.92c-4.16,1.22.52,2.19,1.88,4.64a11,11,0,0,1,1.17-1.39c.11-.11.26-.18.37-.29A17,17,0,0,1,408.43,689.92Z" transform="translate(-87 -207.41)" fill="#43a1e2"/><path d="M476.7,749c-3.81,9.87,6.48,5.9,0,0Z" transform="translate(-87 -207.41)" fill="#43a1e2"/><path d="M454.55,713.91c-.5-.52-2.79.89-1.84,1.83C453.22,716.26,455.51,714.86,454.55,713.91Z" transform="translate(-87 -207.41)" fill="#43a1e2"/><path d="M493.3,808a.65.65,0,0,0,.64.06v-1.7C493.29,806.74,492.74,807.44,493.3,808Z" transform="translate(-87 -207.41)" fill="#43a1e2"/><path d="M450.87,730.51c.5.51,2.79-.89,1.84-1.85C452.2,728.15,449.91,729.55,450.87,730.51Z" transform="translate(-87 -207.41)" fill="#43a1e2"/><path d="M445.33,730.51c0-1-1.5-2.1-1.85,0C443.48,731.54,445,732.6,445.33,730.51Z" transform="translate(-87 -207.41)" fill="#43a1e2"/><path d="M396,733.57v3.34c.89-.53,2-1,3.22,1,.85,3.37-2.07,3-3.22,4.39v5c1.55,2.06,5.84-2.18,5.07,3.5H396v7.81a5.86,5.86,0,0,1,5.07-.44c2.34,5.36-3.32,2.71-5.07,4v34.41h-8.55v3.84c3.22.13,6.23.83,8.09,2.06-.12,6.22-4.22.32-7.39,5.53,2.78,2.5,3.63,6.91,7.19,8.6h3.12c1.77-2,0-7.43,6.31-4.91,1,3.59-.9,4.23-2.78,4.91h38.2a8.38,8.38,0,0,0,1.47-3.06c2.51.08,3.61,1.57,4.7,3.06h13.05c.25-1,.47-2,.7-3.06,1.17.74,1.62,2.2,2.67,3.06h6.36c-2.49-2.16-.09-9.2-7.19-6.75v-9.23c4.35,1.81,11.71.6,11.07,7.38a8.7,8.7,0,0,0-5.53-1.84c-.56,4.87,3.85,4.76,7.38,5.53-.59,2.22-2.79,2.83-3.51,4.91h12.84c-.16-1.47.39-3,1.74-3.06-1.89-4.26-12.35.05-11.07-7.38,4.09-1,2.63,3.53,5.53,3.69,1.5-.35,1.85-1.85,3.69-1.85-2.32-2.46-5.55-3.62-1.84-7.38-.2-3.48-6.1-1.28-5.53-5.53-4.9-.58,1.72,10.34-5.54,7.38,1.84-6.28-1.16-6.87,5.54-9.22-5.32-.23-1-10.12-7.38-9.23.15-2.62.29-5.22-1.85-5.53,5.17-7.41,3.59,7.31,9.23,5.53v5.53a6.89,6.89,0,0,1,9.22,0,.09.09,0,0,1,0,.05v-6.74a28.54,28.54,0,0,1-3.7-.69c-.39-3.45,1.09-5,3.7-5.48v-9.31c-1.93.21-4.28-2.6-3.07-4.49-3.54,2.31-6.56-1.57-11.7-1-.24-3.31,2.26-3.89,1.84-7.38-3.15-.08-4.77,1.37-5.53,3.69-5.52-3.7-8.82-9.63-18.45-9.22,1.34-5.64-1.89-6.72-1.85-11.07a8.64,8.64,0,0,1-5.53,1.84c1,3.76,5.55,3.62,1.84,7.38-3.94.87-3.51-2.64-3.68-5.53-2.16,4.37-9.36,3.69-10.88,8.71v13.47c4.77,1,4.5,1.47,10.88,3.65-3.16,3.11-4.82-.19-10.88,1.79v15a10.18,10.18,0,0,1-2.21,6.28,4.44,4.44,0,0,1,.17.95,4,4,0,0,1-.76-.23,10.24,10.24,0,0,1-7.47,3.27,9.92,9.92,0,0,1-2.84-.45v1.1h-3.69V792a10.26,10.26,0,0,1-3.75-7.86v-9.69c-1.1.22-2.19,0-3.62-1.53,8.32-4.34-4.4-7.14-1.85-16.6,1.49.35,1.84,1.85,3.68,1.84,2-.27,1.66-2.81,1.79-4.9V743.13c-.56.7-1.14,1.42-1.79,2.14-5.19-2.18-5.61-9.15-7.38-14.76C396.79,730.19,396.45,732,396,733.57Zm86.25,41.22c-3.53-.78-7.94-.67-7.38-5.54C476.21,772.19,483.88,768.83,482.23,774.79Zm-14.76-3.7c1.57.35,1.74-.71,1.85-1.84H473v3.69c-1.57-.33-1.74.72-1.84,1.85h-3.69ZM449,815.38c-1-4.09,3.52-2.63,3.69-5.54C457.31,810.59,452.82,817,449,815.38Zm9.23-7.39h-3.7v-3.68h3.7Zm12.91-20.29c-1.36,3.28-3.36.27-5.54,0-1.87,1.2-1.91,4.25-5.53,3.69-.78-3.86,1.26-4.88,1.84-7.38C466.52,783.72,467.64,786.91,471.16,787.7ZM456.4,752.64c6-1.64,2.59,6,5.53,7.39-3.52,7-3.52,7.81,0,14.76-5.18-2.31-6.1-7.56-3.68-12.92C459.16,756.07,451.89,757,456.4,752.64Zm-3.69,1.85c1,1-1.34,2.36-1.84,1.85C449.91,755.38,452.2,754,452.71,754.49Zm0,5.54v3.68H449V760Zm-1.84,7.38c4.64,1.85-1.47,8.15-5.54,7.38C443.71,768.86,451.41,772.25,450.87,767.41ZM449,758.18c-5.21,1.53-4.78-2.6-9.22-1.84C439.67,751.13,449.27,752.92,449,758.18ZM432.42,749H438v3.68h-5.53Zm3.68,5.53c0,1.79-2.25,1.43-3.68,1.85C432.46,754.54,434.67,754.9,436.1,754.49Zm-1.84,3.69c5.82.33,11,1.3,11.07,7.38C439.33,765.42,435.39,763.2,434.26,758.18Zm9.22,18.45c-5.88,1.58-5.7-2.9-9.22-3.69C435.6,768.81,444.78,772.05,443.48,776.63Zm12.92,5.53c1.69,9.19-5.81,7.86-1.85,14.77-5.68,1.38-2.24-6.36-9.22-3.69,3.33,5.77-.57,1-5.53,3.69,4.91-8.46-7.66-7.54-7.38-16.61C439.06,776,450.62,779.81,456.4,782.16Zm-20.3,29.52c-5.33-5.55,3.21-7.64,3.7-12.91h7.37c1.45,1.28,4.11,10.29,0,11.07-6.55,2.87-1.11-6.26-5.53-5.53-5.75,3.72.89,11.61-11.07,11.07C429.71,811.44,433.2,811.87,436.1,811.68ZM425,809.84c-.34,2.1-1.84,1-1.84,0C423.55,807.75,425,808.82,425,809.84Zm-24-7.38h-3.69v-3.69h3.69Zm-1.85-5.53c-.95-1,1.34-2.36,1.85-1.85C402,796,399.72,797.43,399.2,796.93Zm18.45,1.84c-2.44,4.93-3.95,10.8-12.9,9.22.29-2.14-.42-3.28-1.85-3.68C404.84,799.48,410.39,798.27,417.65,798.77ZM399.2,772.94c-.58-4.28.3-7.08,1.85-9.23C406.72,764.06,404.93,773.65,399.2,772.94Z" transform="translate(-87 -207.41)" fill="#43a1e2"/><path d="M439.8,725c11.43,4.27,5.42-5.38,0,0Z" transform="translate(-87 -207.41)" fill="#43a1e2"/><path d="M402.9,689.92c-6.75,2.9,4.29,2.75,1.85,7.38-2.29-1.77-6.29-1.83-8.77-3.4v5.23c.45,0,.89,0,1.38,0,3.19,3.16-2.71,7.26,5.54,7.38,2.58-.65.16-3.24-1.85-3.68,2.65-.45,4.5-1.66,7.35-2.57a10.23,10.23,0,0,1,.67-3.33C406,695.65,405.81,691.42,402.9,689.92Z" transform="translate(-87 -207.41)" fill="#43a1e2"/><path d="M493,816.59h1V814a9.14,9.14,0,0,0-2.49-.46A11,11,0,0,1,493,816.59Z" transform="translate(-87 -207.41)" fill="#43a1e2"/><path d="M396,707.91v3.46a11.07,11.07,0,0,0,3.22.69C400.72,708.08,397.58,708.77,396,707.91Z" transform="translate(-87 -207.41)" fill="#43a1e2"/><path d="M482.23,796.93c3.06,3.35,5.83,7,11.71,7.55v-7.92h-1.05c2.77,3.75-4.67,4.08-2.49,0h-4.47v-3C484.94,794.93,482.73,795.08,482.23,796.93Z" transform="translate(-87 -207.41)" fill="#43a1e2"/><path d="M399.2,721.28c-.5-.51-2.79.9-1.84,1.85C397.87,723.64,400.16,722.24,399.2,721.28Z" transform="translate(-87 -207.41)" fill="#43a1e2"/><path d="M489.6,594c-.5-.52-2.79.89-1.83,1.83C488.27,596.34,490.56,594.94,489.6,594Z" transform="translate(-87 -207.41)" fill="#43a1e2"/><path d="M484.07,754.49c.34.33,1.41-.15,1.86-.78v-1a0,0,0,0,0,0,0C485.41,752.14,483.12,753.53,484.07,754.49Z" transform="translate(-87 -207.41)" fill="#43a1e2"/><path d="M387.43,814.45v2.14H390A29,29,0,0,0,387.43,814.45Z" transform="translate(-87 -207.41)" fill="#43a1e2"/><path d="M487.77,811.68c.5.52,2.79-.89,1.83-1.84C489.1,809.33,486.81,810.73,487.77,811.68Z" transform="translate(-87 -207.41)" fill="#43a1e2"/><path d="M491.48,816.59c-.31-2.15-4.92-2.05-5.91,0Z" transform="translate(-87 -207.41)" fill="#43a1e2"/><path d="M482.86,762.88a6.68,6.68,0,0,0,1.21-1A2.82,2.82,0,0,0,482.86,762.88Z" transform="translate(-87 -207.41)" fill="#43a1e2"/><path d="M462.34,646.33a26.92,26.92,0,0,1,4.93,10c1.93,0,3.57.53,3.89,2.18,5.45-1.6-4.28-2.77-1.84-7.39,2.16,2.76,7.66,2.18,7.38,7.39,2.16-5.23,8-6.74,9.22-12.92-6-2.28-1.42,6-7.38,3.69-.58-4.31-3.61-7.62,0-11.07-3-.52-3.18,1.74-5.54,1.85.25,3.43,1.22,6.16,3.7,7.38-3.45,4.52-4.9-5.42-11.08,0,.35-1.5,1.85-1.84,1.85-3.7C464.1,643,463.47,644.91,462.34,646.33Z" transform="translate(-87 -207.41)" fill="#43a1e2"/><path d="M729.25,409.94c.07-.15.12-.29.2-.45a3.16,3.16,0,0,0-.43,0Z" transform="translate(-87 -207.41)" fill="#43a1e2"/><path d="M721.42,266a.69.69,0,0,0,.24-.05,3.23,3.23,0,0,0,1.28-1.14,2.56,2.56,0,0,1-.87-1.05C719.64,264.46,720.24,265.09,721.42,266Z" transform="translate(-87 -207.41)" fill="#43a1e2"/><path d="M394.28,671.18a47.36,47.36,0,0,0,1.7,5.91v6.52c1.2-.84,2.56-1.54,3.22-2.92C392.09,679.14,399.94,671.23,394.28,671.18Z" transform="translate(-87 -207.41)" fill="#43a1e2"/><path d="M680.05,318.52c1.87.64,3.4,1.62,3.28,4.26-6.3-1.67-6.43-1.4-9.66.28L634.9,350.69l-9,6.4a3.91,3.91,0,0,0-1.6,3.19,23.84,23.84,0,0,0,7.37,1.24c1.32,5-3.6,3.74-3.69,7.32l.38.78c.72-2.64,5-5.5,8.84-4.41,1.94,6.86-6.24,3.62-7.39,7.39h0l3.72,7.65a14,14,0,0,1,4.62,4.77,11.64,11.64,0,0,1,.89-1.36c4.17-3,.71.83-.64,1.77v0a11.44,11.44,0,0,1,1,2.86c.67-.77,2.26-.63,3.37-1,0,1.6-1.8,1.49-3.2,1.74a14.25,14.25,0,0,1,.15,2h4.89c.39,3.15-3.14,4.77,0,5.53-1.62,3.24-4.17,2.21-5.84,0a15.28,15.28,0,0,1-.75,1.83,14,14,0,0,1-2.66,3.53,22.79,22.79,0,0,1-1.9,1.64,1.15,1.15,0,0,1,.08.41c-.28,1.67-1.28,1.33-1.67.61l-13.21,6.63-6.81,3.41-41.18,20.67a.29.29,0,0,1,.14.05c1,1-1.33,2.35-1.84,1.85a.76.76,0,0,1,0-1l-18.21,9.14a6,6,0,0,1,5.32,1.12c-.34,2.09-1.85,1-1.83,0-2.17-.16-7.07,2.83-9.58,1.93L541.26,450s0,0,0,.07c-.27,1.57-1.18,1.36-1.61.73l-.09,0a13.92,13.92,0,0,1-7.67,1.39c-.49,1.21-1.71,1.68-1.69,3.38h-3.7v-5a13.92,13.92,0,0,1-5.9-6.05l0-.05c-6.17-.46.19-7.17-3.3-7.34.69-1.39,1.43-1.76,2.13-1.53a14.11,14.11,0,0,1,3.59-7.07,1.32,1.32,0,0,1-.19-.63c.25-1.56,1.16-1.36,1.6-.73a13.54,13.54,0,0,1,2.48-1.61l16.27-8.16c.38-2.25,2.15-3.12,1.79-6.11,1.78.29,1.48,2.66,2,4.21l48.81-24.49h-1v-3.7h3.67v2.35l1-.51,6.8-3.42,13.19-6.61a13.43,13.43,0,0,1,4.25-1.15,13.7,13.7,0,0,1,4.43.11,13.9,13.9,0,0,1,5.4,2.13l-3.72-7.66a2.43,2.43,0,0,1-1.45-3l-.38-.78s0,0,0,.06c-5-4.62-3.51-5.11-12.91-3.69a5.28,5.28,0,0,0-.2-1.86l-15.56,8.1,0,0-6.77,3.51,0,.05-5.84,3a6,6,0,0,1,.68,3.8c-1-1.11-3-1.18-4.35-1.89L513.78,416c2.53,2.24,4.83,7.3,7.2,2.73,3.93-4.56-.52,5.85-1.85,7.38-2-3.45-5.86-5-7-9.22l-3.58,1.86c3.58,0,1.75,5.31,5.09,5.51-.55,3.81-6.1-1.65-5.57-5.26l-5.67,2.95a2.85,2.85,0,0,0,.17.46,3.61,3.61,0,0,1-.8-.13l-34.5,18a4.45,4.45,0,0,1,2.1,4.32c3.7-.64,5.76.37,5.53,3.68a11.76,11.76,0,0,1-10.69-6.4l-2,1.06c5.61,5.35,6.91,15,18.26,14.56-.23,3.32,2.26,3.9,1.85,7.39-3.49-5.74-11.1-7.35-16.61-11.07.68-3.14-1.44-3.49-3.69-3.69V443l-4.8,2.5a26.57,26.57,0,0,1,1.12,4.59c-1.75-.48-2-2.48-3.15-3.53L383,484.09a2.46,2.46,0,0,0,1.45,1c-.35,2.1-1.86,1-1.85,0a4.08,4.08,0,0,0-1.44-.08l-1.41.73a5.93,5.93,0,0,0-.84,3,1.86,1.86,0,0,1-1.66-1.74l-11.06,5.76c.27.92-1.58,2-2,1.51a.71.71,0,0,1-.2-.34l-47.74,24.86c.32,5.06,0,9.52-5.56,8.7A8.81,8.81,0,0,0,312.5,522c-3.94-.86-3.51,2.64-3.69,5.54a8,8,0,0,1-2.62-3.48L224.1,566.83a5.18,5.18,0,0,1-.16,1.32,9.54,9.54,0,0,1-2.9.28L197.2,580.84a22.93,22.93,0,0,0-7.72,6.59l0-.06c-.12.16-.18.36-.29.52a22.81,22.81,0,0,0-2.49,4.4c-.14.32-.3.63-.42,1a22.22,22.22,0,0,0-.83,2.78l-.06-.13a15.15,15.15,0,0,0-7,20.27l3.5,7.2c-16.49,10.59-34.78,23.12-52.31,36.81C102,681.68,79.41,727.8,89.41,774.36a105.51,105.51,0,0,0,19.85,42.23h3.58a3.91,3.91,0,0,0,.4-1.21c.88.36,1.29.77,1.44,1.21h5c1.43-.89,2.57-1,3.46,0h17.24c-1.24-1.07-2.42-2.16-3.56-3.25-1.29,1.51-4.13,3.94-1.43.19l1-.65a94,94,0,0,1-8.52-9.43c-.61,3.31-.93,6.9-5.34,6.39.3-2.15-.41-3.28-1.85-3.69.35-2.1,1.86-1,1.85,0,1.68-1.07,1.9-3.6,4.53-3.73q-2-2.61-3.68-5.24c-1.59,2.92-5,4-10.08,3.43a7.06,7.06,0,0,1,6.89-8.73,82.58,82.58,0,0,1-5.34-11.82,10.44,10.44,0,0,0-1.55.26,1.4,1.4,0,0,1,1.16-1.38,82.3,82.3,0,0,1-2.62-9.39c-7.94-37,10.47-74.65,31.84-91.33,16-12.51,32.86-24.11,48.31-34.1l7.44,15.29A15.11,15.11,0,0,0,219,666.58a22.55,22.55,0,0,0,3.63,1.5c.46.14.93.24,1.39.36a23.23,23.23,0,0,0,4.7.65c.27,0,.53.11.79.11s.25,0,.37,0a23.15,23.15,0,0,0,3.08-.32c.52-.08,1.05-.09,1.57-.21a22.7,22.7,0,0,0,4.55-1.51h0L301.29,638c-.44-.94,1.51-2.09,2-1.61a.62.62,0,0,1,.2.58l20.4-9.54-.31-.27c-2.75-3.06-.83-1.28.57.15l93.52-43.78v-.64H419l6.72-3.15,21.58,23.06c1-2.63,2.33-1.72,3.43,0l4.8-2.32.62,1-4.79,2.42a23.09,23.09,0,0,1,1.32,3c-1.25,3.84-1.61.1-2.87-2.25l-8.11,4.11c2.31-.12,5.11,3.92,1.75,5.51,5.4,3.84,13.3,5.17,16.61,11.07,1.64-4,7.87-5.35,7.38,1.85-5.92-1.61-5.77,2.84-7.38,5.53,1.2,1.89,4.25,1.91,3.69,5.54-3.14.68-3.48-1.44-3.69-3.69-5.64-1.33-6.73,1.89-11.07,1.85v-5.53c5.5,2.19,6.27.5,11.07-1.85-.47-3.83-8.11-.51-9.22-3.7-3.56.76-1.46,7.16-7.39,5.55.63-3.71-.37-5.78-3.68-5.55.72-6.4,3.2-9.76,0-14.75a3.18,3.18,0,0,1,.67-1.19l-22.35,11.32a45.53,45.53,0,0,0-22.81,26.58,44.72,44.72,0,0,0-1.75,7.54.45.45,0,0,0,.11,0,5.48,5.48,0,0,1-.2.86,44.72,44.72,0,0,0,.15,11.9c1.12-2.54,2.42-4.89,5.58-5.39-1.09,4.8.74,6.64,5.55,5.54-.48,8.47-2,8.91,0,16.61,8.29-.65,5.34-5.53,7.37-9.23,1.7.61,3.62,1,5.38,1.54A27.13,27.13,0,0,1,441,635.88a28.28,28.28,0,0,1,3.07.18,3.86,3.86,0,0,0-2.39-1.49c-.34-1.57.73-1.74,1.84-1.85h3.69a12.15,12.15,0,0,1-.05,3.89,26.81,26.81,0,0,1,7.73,3.12,9.81,9.81,0,0,1,1.55-1.47c1.38-1.86.56-.25-.23,2.28a25.17,25.17,0,0,1,3.27,2.64c1.89-3.07,5.74-3.18,9.88-1.23-1.2-1.88-4.25-1.9-3.7-5.53,6.89,2,2.92-6.92,9.23-5.53,1.27,5-3.81,3.55-5.53,5.53.51,4.36,4.93-2.12,7.38-1.85.08-3.15-1.37-4.78-3.7-5.53,6.68-4.86-1.61-6.22,1.85-11.07a11.12,11.12,0,0,0,6.9,2L478,613.7c-4.86.27-9.89,0-12.33-1.26,2.58-5.15,7.29.47,11.78.19a8.36,8.36,0,0,1-.64-1.86,17.34,17.34,0,0,0-3.76-2,1.9,1.9,0,0,1,3.58-.5,8.57,8.57,0,0,1,4.08-6.65,4.23,4.23,0,0,1,.48-.23c2.66-3.24,5.53-6.26,6.63-11.07,3.91,1.49,7.18,7.6,3.68,11.07.35,1.5,1.86,1.84,1.85,3.69,5.37-1.6,2.07-2.76,1.84-7.38,7.1-1.45,7.1,8.84,0,7.38-1.84,3.07,1.53,5.35,1.64,6.53l4.86,8c2.19,1.83,4.14,3.91,4.56,7.51l1.2,2c.22,0,.41-.05.65,0a3.7,3.7,0,0,1,.13,1.34l4.47,7.36c-.21-2.51-.73-5.28-.9-8.7,5.07,4,7.7-1.07,12.91,1.85,1.08,6-1.25,8.57-1.84,12.9-3.26-3.8-5.71-1.61-7.39-3.68a6.15,6.15,0,0,0-.86.79l3.65,6c.24-1.22-.07-2.76-.93-5,3.24,1.67,3,6.79,7.37,7.38-.81,2.68-1.63-.19-3.68,0a2.15,2.15,0,0,0-1.31,0l.42.69a8.57,8.57,0,0,1,0,8.8c1.82.24,3.93.18,4.56,1.6-4.85,1.78-11,.79-7.37,11.07-2.9-.8-1.59-5.8-7.39-3.69a12.58,12.58,0,0,0,2-4.81,8.58,8.58,0,0,1-6.09-3.47l.4.9h-5.54a7,7,0,0,0,1-7.59l-4-6.61c-6.08,1.34-10.84,4-9.9,12.36-3.32.23-3.89-2.26-7.39-1.85,1.1,6.4,9.11,4.55,12.92,3.69-1.19-4.49-3.73-9.49,3.69-9.23-5,4.8,2.25,5.57,1.84,11.07-6.65-.75-2.52,3.37,1.85,1.85.48,6-7.16,3.91-7.38,9.22-.56-2.38.16-9.27-7.38-9.22-2.5.57-1.53,4.62-1.85,7.38-5.55-1.86-3.27,4.11-3.69,7.38,1.65-1.44,4.17-2,7.39-1.84.16-5-3.07-3.72,0-7.39,2.15,1.14,2.69,13,7.37,5.54a8.17,8.17,0,0,1,5.2,6.49L506,678.8c-1.53-2.68-8.66.24-7.14-5.49,8.94,3.4,1.76-1.07,5.54-7.37,3.41-1.74,1.12,10.56,3.68,3.68,3.54,2.46-2.11,8.2,1.85,12.92l1.8.08,8.43-4c-1.29-2.14-2.76.09-6.54.28-4.8-1.47,5.27-3.09,7.39-3.69a16.25,16.25,0,0,1,.63,2.69l16.54-8c.59-1.38,2-2.32,4.42-2.13l23.49-11.3c-1.86-2-4.95-2.81-4.51-7.14,3.18-.31,7.27,10.46,7.39,1.84a4.28,4.28,0,0,1,.69.31l-25.94-77.79h-.58V572l-3.91-11.71,7.68-3.7-3.63-24.93,12.74-6a8.31,8.31,0,0,0,4.58-9l109.84-51.42v-.41h.88l.41-.19a2.52,2.52,0,0,0,1.22-3.4l-.31-.65a3.06,3.06,0,0,0,.64.86c-.4-2.8.17-5.1.86-9.54,4.84,4.8,1.44-3,7.36-1.84q1.68,7.19-5.53,5.54c-1.44,5,2.95,4.26,4.85,6l63.48-18.67a22.13,22.13,0,0,1-.06-3.92c2.75-.6,3.35,1,3.6,2.88l2.77-.82a5.84,5.84,0,0,1,1.64-1.85l-.32-.67a6.3,6.3,0,0,0,.48.55,3.84,3.84,0,0,1,2.89-.09,5.46,5.46,0,0,1,.22,2.53,9.37,9.37,0,0,0,5.5.89,8.4,8.4,0,0,0,1.67-5.26h7.39c-1,.76-1.83,1.64-2.73,2.48,2.88,1.26,5.79,2.47,8.8,3.51a122.73,122.73,0,0,0,17.91,4.7v-1.47c2.4-1.21,3.72.32,4,2.13a119,119,0,0,0,14.32,1.29c-.38-.93,1.53-2,2-1.58s.05,1.21-.58,1.61c.71,0,1.41,0,2.11,0a115.2,115.2,0,0,0,22.45-2.26v-1.23H842v.44c1.11-.25,2.22-.54,3.32-.82a3.21,3.21,0,0,0,.37-1.46,1.57,1.57,0,0,1,1.81.87c1-.29,2.1-.58,3.15-.89a5.07,5.07,0,0,0,4.63.16L881.41,432a5.07,5.07,0,0,0,2.69-3.42c48.82-33.34,67.33-98.35,40.72-153.07A120.54,120.54,0,0,0,854.9,213.9s0,0,0,0c-1.64,1.13-3.3,2.23-3.7,0a1.86,1.86,0,0,1,.58-1,121.43,121.43,0,0,0-63.62-2.31,5.29,5.29,0,0,1,.33,3.35h-7.39a5.25,5.25,0,0,1,.13-1.51c-.65.19-1.3.36-2,.57a5,5,0,0,0-4.36,0l-26.14,12.71a5,5,0,0,0-2.72,3.68A120.22,120.22,0,0,0,703.34,283c.93,1.13,0,3.09-1.6,4.19-.21.58-.43,1.14-.63,1.72-1.12,3.23-2,6.49-2.85,9.77a9.49,9.49,0,0,0-3.59.92A9.59,9.59,0,0,0,690,311.46Zm-87.13,57.76h3.7V380h-3.7ZM546.8,404c-.34,2.1-1.86,1-1.84,0C545.3,401.86,546.8,402.94,546.8,404Zm-7.37,0c1,1-1.35,2.36-1.86,1.85C536.62,404.84,538.91,403.45,539.43,404Zm-11.08,7.38c-.34,2.1-1.86,1-1.84,0C526.86,409.24,528.35,410.31,528.35,411.33Zm-48,40.59c-5-5.61,5.61,5,0,0ZM124.31,811.68H128v3.7h-3.7Zm-1.84,1.85h-5.53V808c-1.57-.33-1.74.72-1.85,1.85C108.58,804,125,806.82,122.47,813.53ZM91.11,749c-1-1,1.33-2.36,1.84-1.85C93.9,748.07,91.61,749.47,91.11,749ZM93,728.66c.35-1.49,1.85-1.83,1.84-3.69h3.7C99.35,728.91,95.85,728.49,93,728.66Zm11.07,48c0-1.79,2.26-1.43,3.69-1.84C107.66,776.58,105.45,776.22,104,776.63Zm3.69,35c-1-.95,1.33-2.35,1.85-1.84C110.51,810.79,108.22,812.2,107.71,811.68Zm0-7.37c-1-1,1.33-2.36,1.85-1.85C110.51,803.42,108.22,804.82,107.71,804.31Zm3.68-11.07c-1.56-.35-1.73.72-1.83,1.84-2.17-.3-1.56-3.37-1.85-5.54C110.84,788.87,111.19,791,111.39,793.24Zm0-97.78c6.19-4.46-4.45,6.19,0,0Zm83-99.64c-.95-.94,1.34-2.35,1.84-1.83C197.22,594.94,194.93,596.34,194.42,595.82Zm1.84-11.06c-.95-1,1.34-2.36,1.85-1.84C199.07,583.87,196.78,585.27,196.26,584.76Zm201.1,72c-3.86-1.64.59-10.3,5.54-9.22-3.24,6.53,1.22,4.53,1.85,11.07C400,660.5,399.41,646.16,397.36,656.71Zm7.39-16.6h3.68v3.68h-3.68Zm7.37,25.83h-3.69v-3.7h3.69Zm3.69-16.61h-3.69c.35-1.57-.72-1.74-1.84-1.84C409.55,643.9,418.68,644.79,415.81,649.33ZM414,638.26c3-.52,3.17,1.74,5.53,1.85C420.23,643.69,411.1,642.8,414,638.26Zm7.38,0c.35-2.1,1.84-1,1.84,0C422.84,640.35,421.34,639.29,421.35,638.26Zm1.84-3.69H419.5v-3.68h3.69Zm40.59-1.85c.05-1.79,2.26-1.42,3.69-1.83C467.42,632.68,465.21,632.32,463.78,632.72Zm7.38-9.22c.95,1-1.34,2.36-1.84,1.84C468.36,624.39,470.65,623,471.16,623.5Zm-1.84-3.69c.95,1-1.34,2.35-1.85,1.85C466.52,620.7,468.8,619.3,469.32,619.81ZM497,656.71V653h3.69v3.69Zm59-201.09c1,.95-1.33,2.35-1.83,1.83C553.23,456.51,555.52,455.1,556,455.62Zm-9.22-3.7c-5-5.61,5.62,5,0,0Zm0,53.5c1,1-1.34,2.36-1.84,1.85C544,506.32,546.3,504.92,546.8,505.42Zm-3.69-5.53c.36-2.1,1.85-1,1.85,0C544.6,502,543.11,500.92,543.11,499.89ZM545,472.22c6.18-4.46-4.47,6.19,0,0Zm-1.85-16.6c.95.95-1.34,2.35-1.84,1.83C540.31,456.51,542.6,455.1,543.11,455.62Zm0,7.38c-.35,2.09-1.84,1-1.84,0C541.61,460.9,543.12,462,543.11,463Zm-7.37,20.29c4.61-.32,4.47,4.13,7.37,5.53,5.69,4.52-4-3.32-3.68,1.85-1,2.73-2.74,4.65-3.69,7.38C531.63,496.17,538.15,489.56,535.74,483.29Zm1.83,24c4.78-6.35,4.47,9.49,0,0Zm1.86-7.38c1,1-1.35,2.35-1.86,1.85C536.62,500.78,538.91,499.38,539.43,499.89Zm-5.55-16.6c-1.35-3-9,.42-7.37-5.54C531.32,477.24,535.74,477.13,533.88,483.29Zm-5.53-24c1,1-1.33,2.36-1.84,1.85C525.56,460.19,527.85,458.8,528.35,459.3Zm-12.92-29.52c-2.57-2.21-.14-.71,1.86,0C514.19,435.94,509.77,435.94,515.43,429.78Zm1.86,24c-.83,2.68-1.62-.19-3.7,0C514,451.45,517.27,451.91,517.29,453.77Zm-3.7-7.38a8.64,8.64,0,0,0-1.84,5.53c-3.84-1-3.91-2.87-1.85-5.53Zm-3.69-18.45c-.35,2.09-1.85,1-1.85,0C508.41,425.84,509.91,426.92,509.9,427.94Zm-1.85,9.23c3.29,1.35.27,3.35,0,5.53C504.78,441.35,507.79,439.35,508.05,437.17Zm0,18.45c-.81,2.67-1.61-.19-3.68,0C504.82,453.29,508,453.75,508.05,455.62ZM504.37,463c.95.95-1.33,2.35-1.85,1.84C501.57,463.89,503.86,462.48,504.37,463Zm-3.69-18.45c.05-1.8,2.26-1.44,3.69-1.85C504.32,444.49,502.11,444.13,500.68,444.55Zm1.84-18.45c-.35,2.09-1.84,1-1.84,0C501,424,502.53,425.07,502.52,426.1ZM497,427.94c2.84,2.08,4.54,5.3,7.38,7.38C502,439.92,495.42,433.37,497,427.94ZM497,439c1.88,2.15,1.46,4.36,0,1.84C495.67,438.58,495.06,436.81,497,439Zm0,16.61c-.05,1.79-2.26,1.43-3.69,1.83C493.35,455.66,495.56,456,497,455.62Zm-11.07-24c1,.95-1.33,2.36-1.85,1.84C483.12,432.52,485.41,431.12,485.92,431.63Zm-27.67,20.29c7.27-.5,5.64,7.89,12.91,7.38-2.27,7.6-5.1-.95-7.38-3.68-4.85-.55-1.45,7.15-7.38,5.53C458,459,458.83,456.2,458.25,451.92Zm1.84,22.15c3.46-3.53-1.1-3.35,0-9.23C465.76,462,465.76,476.89,460.09,474.07Zm-1.84,5.53h-3.7v-5.53c2.43.65,2.9,3.24,5.54,3.68C460.43,479.32,459.37,479.49,458.25,479.6Zm-1.85-14.76c2.68.81-.19,1.61,0,3.69,3.55,7.17-1.58.5-3.69-1.85C447,462.17,458,468.72,456.4,464.84Zm-1.85-5.54c-.35,2.1-1.84,1-1.84,0C453.06,457.21,454.56,458.28,454.55,459.3Zm-1.84-9.22c-.35,2.1-1.85,1-1.84,0C451.22,448,452.72,449.06,452.71,450.08ZM449,468.53c7.54-.55-.31,2.56,1.85,7.37-6-.92-3.91,9.18-9.23,3.7C441.25,473.06,450.29,476,449,468.53Zm-3.69,14.76c-4.47,6-8.81-5.13,0,0ZM438,474.07c1.86,5.55-4.11,3.27-7.38,3.68v-3.68c-1.57-.35-1.74.72-1.84,1.83C423.31,469.82,432.91,474.86,438,474.07Zm-20.3-3.7c-.35,2.1-1.84,1-1.84,0C416.16,468.28,417.66,469.35,417.65,470.37ZM402.9,516.5c-.35,2.1-1.86,1-1.85,0C401.4,514.41,402.9,515.47,402.9,516.5Zm-1.85,9.22c1,1-1.33,2.36-1.85,1.85C398.25,526.61,400.54,525.21,401.05,525.72ZM393.67,511c5.62-5-5,5.61,0,0Zm-11.07-20.3c-5-5.61,5.61,5,0,0Zm3.7,5.53c0,2.7,7.77,5.85,0,5.54v-3.69c-2.63.16-5.23.3-5.54-1.85ZM390,507.27V511H386.3v-3.7Zm-14.76-12.92c-.44,3.26-3.18,4.21-7.37,3.7C368.29,494.8,371,493.84,375.22,494.35Zm-14.76,1.85c3.29,1.35.27,3.36,0,5.54C357.18,500.39,360.2,498.38,360.46,496.2Zm-7.38,5.54c1,1-1.33,2.35-1.85,1.84C350.29,502.63,352.58,501.23,353.08,501.74Zm-5.53,1.84c1,.95-1.33,2.36-1.85,1.84C344.75,504.47,347,503.07,347.55,503.58Zm-3.69,3.69c-.45,2.33-3.67,1.87-3.69,0C341,504.59,341.79,507.46,343.86,507.27Zm-33.21,24c1,1-1.33,2.36-1.84,1.85C307.85,532.14,310.14,530.75,310.65,531.25Zm-5.54,1.85c-.81,2.68-1.61-.19-3.68,0C301.89,530.78,305.09,531.24,305.11,533.1Zm-11.06,9.22c5.61-5-5,5.62,0,0Zm-51.66,18.45h3.69v3.7h-3.69Zm-33.21,73.8c0-1.79,2.26-1.43,3.69-1.85C212.82,634.53,210.61,634.15,209.18,634.57Zm1.85-7.38c-1-1,1.33-2.35,1.84-1.85C213.82,626.3,211.53,627.7,211,627.19Zm7.38,9.23h-3.7v-3.7h3.7Zm7.37-11.08h-3.69v-3.68h3.69Zm31.37,25.83h-3.69v-3.68h3.69Zm-5.54-11.06v-3.69h3.69v3.69Zm22.14-3.69c-.95-1,1.34-2.35,1.85-1.85C276.56,635.53,274.27,636.93,273.75,636.42Zm0-7.38c.05-1.79,2.27-1.43,3.69-1.85C277.39,629,275.19,628.62,273.75,629Zm1.85,11.07c.45-2.32,3.67-1.87,3.68,0C278.47,642.79,277.66,639.92,275.6,640.11Zm14.76-51.66c-1-1,1.33-2.35,1.84-1.85C293.16,587.56,290.87,589,290.36,588.45Zm14.75,38.74c3.51,3.46,4.64.2,9.23,0C317.16,632.86,302.29,632.86,305.11,627.19Zm3.7-14.75v-3.7h3.69v3.7Zm3.69-24v-3.69h3.68v3.69Zm3.68,25.82c-1.38-6.91,7.06-4,7.38-9.22,4,.28,4,4.65,3.69,9.22C323.4,610.26,322,615.2,316.18,614.27Zm0-44.27c2.9-6.75,2.76,4.28,7.38,1.84C321.75,577.5,318.64,569.73,316.18,570Zm7.38,16.6c-1.64,1.13-3.3,2.23-3.68,0C320.34,584.28,323.54,584.74,323.56,586.6Zm0,29.52c3.53.78,7.95.67,7.39,5.54C327.42,620.88,323,621,323.56,616.12Zm9.23-7.38c2.28-6-6-1.4-3.69-7.38C332.6,601,339.92,610,332.79,608.74Zm18.44-33.2c5.07,0,4.39,8.7,1.85,11.06C348.43,583.11,354.78,580.14,351.23,575.54Zm5.55-27.68c1,1-1.34,2.35-1.85,1.84C354,548.75,356.26,547.35,356.78,547.86Zm-1.85,49.81c-2.47-1.27.91-4.92-1.85-9.22C359.73,586.68,356.35,596.41,354.93,597.67Zm3.69-14.75c-.95-1,1.34-2.36,1.84-1.85C361.42,582,359.13,583.43,358.62,582.92ZM366,546c3.24.44,4.21,3.17,3.68,7.37h-5.53C363.37,549.54,365.41,548.51,366,546Zm1.85,48c-1-1,1.33-2.36,1.83-1.85C370.64,593.1,368.35,594.49,367.85,594Zm-.71-54.33L243.85,601.53l-15.06,7.55a12.76,12.76,0,0,1-16.33-4.53,12.44,12.44,0,0,1-.94-1.2,12.9,12.9,0,0,1,5.73-17.27L242,573.69H238.7V570h3.69v3.47l69.95-35.1c-.37-.93,1.54-2,2-1.58a.7.7,0,0,1,.21.48l14.67-7.37a1.18,1.18,0,0,1-.12-.49c.31-1.85,1.52-1.23,1.79-.34l24.34-12.22c-1.13-2.16-1.85-6.18-2.15-7.73,4.43-.69,2.48,5,4.38,6.84a12.63,12.63,0,0,1,6.56-.31c.08-3.07,5.87-6.23,7.51-2.85-.15,2.74-3.79,2-5.09,3.62a12.73,12.73,0,0,1,5.09,3.86v-1.94h3.69V522h-2.58c.07.13.16.23.23.36A12.9,12.9,0,0,1,367.14,539.66Zm9.93,46.94q-6,.51-5.54-5.53Q377.58,580.56,377.07,586.6Zm-1.85-12.91c-1-1,1.34-2.36,1.85-1.85C378,572.8,375.74,574.2,375.22,573.69Zm1.85-49.82c-.95-1,1.34-2.35,1.84-1.84C379.86,523,377.57,524.39,377.07,523.87Zm5.53-7.37c1,1-1.33,2.36-1.84,1.84C379.8,517.39,382.09,516,382.6,516.5Zm1.85,36.89c5.66,1.81-2.13,4.92-1.85,7.38C377,559,384.72,555.85,384.45,553.39Zm7.38,38.75H386.3v-3.69h5.53Zm9.22-11.07c-4.34,0-5.43-3.18-11.07-1.85-1.7-4.44-5.4-6.9-9.22-9.22.25-5.31,7.2-2.06,14.76-3.69.75,5.4,6.31,6,9.23,9.23C404.09,578,401.49,578.44,401.05,581.07Zm3.7,3.69c6.81,5.6-5.61,6.22,0,0Zm-1.85-11.07c-.3-5.21,5.54-4.3,5.53-9.22,3-.53,3.18,1.73,5.54,1.84C412,570.49,408.37,573,402.9,573.69Zm5.53-12.92c.05-1.79,2.26-1.43,3.69-1.84C412.07,560.73,409.86,560.36,408.43,560.77ZM425,577.38c-8.09-.8-6,5.65-12.91,1.84V570c4.14-1.42,5.88,8.52,9.23,1.84-1-4.17-2.88,2.24-5.54-1.84.15-2.92-.88-7,1.84-7.38,6.33-.33-.16,6.23,7.38,7.38C422,573.66,425.2,572.35,425,577.38Zm9.23,7.38c.35-2.1,1.85-1,1.84,0C435.75,586.85,434.26,585.78,434.26,584.76Zm20.29,12.91c.35-2.09,1.86-1,1.85,0C456.05,599.77,454.55,598.7,454.55,597.67Zm1.85,18.45c6.19-4.46-4.46,6.19,0,0Zm3.69,1.85c.54-1.14,4.59-7.1,0-7.38C463.21,602.2,467.56,621.18,460.09,618Zm22.14-20.3c-2.17-.3-1.55-3.36-1.85-5.53,3.14-.68,3.49,1.44,3.69,3.68C482.51,595.49,482.34,596.55,482.23,597.67Zm3.69-7.38c-4.53-1.62-10.64-1.65-11.07-7.37,6.62.67,6.75,5,12.92,1.84A8.64,8.64,0,0,0,485.92,590.29Zm14.76-12.91c4,3.49,4.29,9.36,11.07,5.54,4.8,1.46-5.26,3.08-7.38,3.68.56-7.53-2.56.32-7.38-1.84C497.78,581.86,502.79,583.18,500.68,577.38Zm0-5.54c.35-2.09,1.85-1,1.84,0C502.17,573.94,500.68,572.87,500.68,571.84Zm7.37,1.85c1,1-1.33,2.35-1.83,1.85C505.26,574.58,507.55,573.18,508.05,573.69Zm11.08,12.91c5.74,4.89,1.74,13.27-5.54,14.76C514.73,595.73,521.88,596.11,519.13,586.6Zm-3.7-12.91c6.2-4.46-4.45,6.19,0,0Zm0,5.53c-4.46,6.06-8.81-5.12,0,0Zm-3.68,11.07V594h-3.7v-3.7Zm-3.7,7.38v3.69h-3.68v-3.69Zm-9.22,14.77c.35-2.1,1.85-1,1.85,0C500.33,614.53,498.83,613.45,498.83,612.44Zm1.85-7.39h5.54v3.69h-5.54Zm1.84,9.22c.35-2.09,1.85-1,1.85,0C504,616.37,502.51,615.3,502.52,614.27Zm3.7,7.39c-1-1,1.33-2.36,1.83-1.85C509,620.77,506.72,622.16,506.22,621.66Zm0-5.54c-1-1,1.33-2.35,1.83-1.85C509,615.23,506.72,616.63,506.22,616.12Zm5.53-14.76c1,1-1.34,2.36-1.85,1.85C508.94,602.26,511.23,600.85,511.75,601.36Zm1.84,24c.45-2.31,3.68-1.85,3.7,0C515.65,626.48,514,627.58,513.59,625.34Zm9.23,1.85c-4.88-1.88-2.83-10.7-12.92-7.38-.22-4.67,7.8-10.45,3.69-12.91,5.21-6.3,3.59,6.72,1.84,9.22,7.06,1.51,2.18-8.89,9.23-7.38-.11,3.34-6.78,14.34-1.84,11.07C528.35,621,521.05,623.76,522.82,627.19Zm1.84-25.83c2.48,1.22,3.44,3.95,3.69,7.38C525.11,608.3,524.15,605.57,524.66,601.36Zm0,14.76c-1-1,1.33-2.35,1.85-1.85C527.47,615.23,525.18,616.63,524.66,616.12Zm-3.68,48c-.05,1.79-2.27,1.43-3.69,1.85C517.34,664.14,519.54,664.51,521,664.09Zm-1.85,9.22c-1-.95,1.33-2.35,1.85-1.84C521.93,672.42,519.63,673.83,519.13,673.31Zm9.22-1.84h-5.53v-3.69h5.53Zm0-11.07c-2.32-.45-1.86-3.67,0-3.69-.45-2.32-3.66-1.86-3.69,0-6.11-1.8,2.07-3.65,1.85-5.54,4.25-.56,2.06,5.34,5.53,5.54C531.59,658.71,528.37,658,528.35,660.4Zm1.86-79.33v-3.69h3.67v3.69Zm1.83,7.38c-.95-1,1.34-2.35,1.84-1.85C534.84,587.56,532.55,589,532,588.45Zm5.53,49.81v-3.69h3.7v3.69Zm1.86,18.45c0-1.79,2.25-1.43,3.68-1.84C543.07,656.66,540.85,656.3,539.43,656.71Zm18.45-12.92c.34-2.09,1.84-1,1.84,0C559.36,645.89,557.86,644.82,557.88,643.79Zm1.84-20.29c-.06,1.8-2.26,1.43-3.7,1.84C556.08,623.55,558.29,623.91,559.72,623.5Zm-5.53,35.06c-.83,2.67-1.63-.19-3.7,0C550.94,656.23,554.17,656.69,554.19,658.56Zm-7.39-38.75v7.38c2.27-2.06,3.78-1.6,3.69,1.85-3.53-.78-7.94-.67-7.38-5.54-3.26-.42-9.23,1.86-7.37-3.69C542.62,620,541,621.88,546.8,619.81Zm-7.37-12.91c6.54-1.16.16,8.2-1.86,5.54.09.12,1.66-3.49,1.86-3.7S539.29,606.92,539.43,606.9Zm-1.86-14.76c-5-5.61,5.63,5,0,0ZM535.79,535l0,.1.35,2.44c.55.91,1.36,1.56,1.41,3,.06.46-.32.47-.94.31L538.26,552l-1.57.76L530,556c4.26,2.94,1,13.4,2,19.59-2.18-2.35-7-.79-9.22,1.84-5.17,0,4.4-5-3.69-3.69,1.81-3,4.91-4.24,7.38-1.85,5-1.66-3.6-6.79,3.7-7.37a19.74,19.74,0,0,1-9.55-4l-7.73,3.72c3.28,2.54.18,5.29-2.07,1L483.73,578.2c2.14,1.39,6,1,7.72,2.87-1.76,8.88,13,7.83,7.38,14.75-6.33-5-8.87-13.85-17.74-16.35L471.63,584c-1.95,2.14-2.36,5.81-4.16,8.11-2.86-1.59-1.49-4,.34-6.28l-7.92,3.81c1.26.86,2.55,1.69,3.89,2.47-2.14,2.73-2.14,4.65,0,7.38,3.39-2.15,1.28-9.79,9.22-7.38-.12,5.41-7,4-5.53,11.07,1.88-1.2,1.91-4.24,5.53-3.69-.81,6.48-3.89,7.83-9.22,5.53-1.46-5.63-5-9.17-7.75-13.52l-3.25,1.57c0,.3,0,.55-.07.89a4.69,4.69,0,0,1-2.24.22l-.31.14-.42-.45a1.72,1.72,0,0,1-.41-.44l-5.21-5.56c-1.09,2.4-1,5.37,1.21,6.09-.8,2.73-2.36-.73-5.53,0a32.14,32.14,0,0,1,3-7.54l-9.53-10.18-2.82-3-2.83-3-2.94-3.14a2.37,2.37,0,0,1-1.46,1.06,4.24,4.24,0,0,1,.23-2.37l-3.33-3.56-13.65-14.59,35.91-17.28c-1.43-1-2.73-2.06-2.55-4.63,4.33-.58,6.92-2.91,12.91-1.85a11.18,11.18,0,0,1,.7,1.16l3-1.44V522h3.26l8.08-3.89,16.64-8a.63.63,0,0,1,.71-.34l5.61-2.7c-2.47-.25-5.68-2.67-4.78-5.35,2.73,1,4.65,2.73,7.38,3.68a2.17,2.17,0,0,1-.15.49l1.67-.8c-.17-2.43.77-4.71,4-3.37a4.07,4.07,0,0,1-.12,1.5l7.56-3.64a89,89,0,0,0,1.41-9.4l-29.84,14.36a4.14,4.14,0,0,1-1.14,2.71c-1.42,1.24-4,.59-5.54,1.85-1.07.85-1.29,2.79-1.3,4.06.19,1.84,0,1.26,0,0-.09-.82-.25-2.12-.54-4.06,2.73-1,4.65-2.73,7.38-3.7.1-.2.18-.3.27-.45l-12.64,6.09-4.2,2c.61,3.61-1.32,4.68-1.88,7.11a3.58,3.58,0,0,1-3.38-4.58L404.25,540l2.23-35,29.62-14.26c-.94-1,1.34-2.35,1.85-1.84a.72.72,0,0,1,.11.9L449.87,484l-.85-.75c-3.09-3.44-.28-.77,1.06.65L471,473.88c-3-2.81-6.08-11.81,2-10.88.05,4.27-3.05,5.41-1.88,10.81L495.64,462l8.53,6c0-.85,1.63-1.71,2.05-1.3.71.71-.38,1.67-1.19,1.9l13,9.12a3.93,3.93,0,0,1,1.07.05c.41-7.79-2.85-11.91-3.7-18.45,8.52,1.59,0,10.67,7.39,11.07-1.6,5.22-1.64,5.69-.16,10.56l1.75,1.22-7.77,3.74a1.32,1.32,0,0,1,.65,1.09c-.36,2.1-1.86,1-1.86,0a2.46,2.46,0,0,1,.17-.59l-5.79,2.78c1.59,2.53,2.51,5.89,1.11,8.19l18.13-8.72,1.32,9.13c2.28-3.88,1.45-1.19.19,1.3l1.56,10.68,1,6.53.59,4.06,0,.23.59,4.06a4.21,4.21,0,0,0,3.29-2.6c4.78,3.2-5.17,12.6,5.54,11.07C542.61,537.35,538.25,537.34,535.79,535ZM465.62,516.5c1,1-1.33,2.36-1.84,1.84C462.82,517.39,465.11,516,465.62,516.5Zm24-14.76a5.11,5.11,0,0,1,5.54-3.69C494.33,500.32,492.79,501.84,489.6,501.74Zm51.67,38.74c-1-1,1.33-2.35,1.84-1.84C544.06,539.59,541.77,541,541.27,540.48Zm0-24c-1.64.82-3.3,1.62-3.7,3.69-5.08-5.17,11.28-11,12.92-1.85C546.2,518.93,543.41,518.05,541.27,516.5Zm7.38-25.83c-.95-1,1.34-2.36,1.84-1.85C551.45,489.78,549.16,491.18,548.65,490.67Zm0-11.07c8,.76-1.94,10.71,0,0Zm5.54,35c-1-1,1.33-2.35,1.83-1.85C557,513.76,554.69,515.16,554.19,514.65ZM552.33,487c.81-2.27,2.36-3.79,5.55-3.69C557.07,485.56,555.52,487.08,552.33,487Zm5.55-11.08c-1-.94,1.33-2.35,1.84-1.83C560.67,475,558.38,476.42,557.88,475.9Zm1.84-12.9v-3.7a8.62,8.62,0,0,0,5.53,1.85C564.22,465,562.37,465.06,559.72,463Zm3.69,48c.34-2.1,1.84-1,1.84,0C564.91,513.06,563.39,512,563.41,511Zm-1.86-27.68c.06-1.8,2.28-1.43,3.7-1.85C565.19,483.24,563,482.88,561.55,483.29Zm1.86-5.54c-.95-.95,1.33-2.35,1.84-1.85C566.2,476.86,563.91,478.26,563.41,477.75Zm0-5.53c-.95-1,1.33-2.36,1.84-1.85C566.2,471.33,563.91,472.73,563.41,472.22Zm3.69-16.6c-1-1,1.34-2.36,1.84-1.85C569.9,454.73,567.61,456.12,567.1,455.62Zm44.27,12.91c-.34,2.1-1.85,1-1.84,0C609.88,466.44,611.37,467.51,611.37,468.53Zm-1.84-7.38c-.36,2.1-1.85,1-1.85,0C608,459.06,609.53,460.12,609.53,461.15Zm-1.85,14.75c0,1.81-2.25,1.44-3.68,1.85C604,476,606.26,476.32,607.68,475.9Zm-7.37-51.65c1,1-1.33,2.36-1.86,1.85C597.5,425.14,599.79,423.74,600.31,424.25Zm0,22.14c0,1.8-2.27,1.43-3.69,1.84C596.67,446.44,598.87,446.81,600.31,446.39Zm-3.69,11.06c2,.46,1.24,3.68,3.69,3.7C599.52,466.26,594.51,461.25,596.62,457.45Zm3.69,16.62c-.47,2.31-3.68,1.85-3.69,0C597.43,471.38,598.24,474.25,600.31,474.07Zm-29.53,7.37c-.95-.95,1.33-2.36,1.86-1.84C573.59,480.55,571.3,482,570.78,481.44Zm1.86,11.08c.34-2.1,1.83-1,1.83,0C574.13,494.61,572.62,493.53,572.64,492.52Zm9.22-1.85h-3.69V487h3.69Zm7.37-20.3c.36-2.09,1.85-1,1.85,0C590.72,472.47,589.23,471.4,589.23,470.37Zm11.08,22.15c-1.64-1.44-4.16-2-7.39-1.85C593.27,485.32,601.7,486.22,600.31,492.52Zm0-3.7c.45-2.32,3.66-1.86,3.69,0C603.17,491.51,602.38,488.63,600.31,488.82Zm0-7.38c5.93-5,9.51,4.16,11.06,9.23C606.13,489.16,602,486.51,600.31,481.44Zm11.06-5.54c.36-2.09,1.86-1,1.86,0C612.87,478,611.37,476.93,611.37,475.9Zm5.53-59h3.7v3.69h-3.7Zm1.86,68.26c.81-2.68,1.62.19,3.69,0C622,487.45,618.78,487,618.76,485.13Zm5.53-29.51H620.6v-3.7h3.69Zm3.69,9.22c-1-.95,1.34-2.36,1.84-1.84C630.78,464,628.49,465.35,628,464.84Zm5.53-44.28c.35-2.09,1.86-1,1.84,0C635,422.66,633.51,421.58,633.51,420.56Zm0-12.91c8.73,2.88,2.45,9.14,0,0Zm46.13,51.65c-1-.95,1.33-2.35,1.83-1.85C682.43,458.41,680.14,459.81,679.64,459.3ZM640.9,350.45c6.18-4.46-4.47,6.19,0,0Zm0,97.78c-.95-1,1.34-2.35,1.84-1.84C643.69,447.35,641.4,448.74,640.9,448.23Zm1.84-33.2c-1-1,1.33-2.36,1.84-1.85C645.53,414.13,643.24,415.54,642.74,415Zm5.53,59h-3.69v-3.7h3.69Zm5.53-55.35c.47-2.33,3.68-1.87,3.69,0C655.85,419.85,654.2,420.94,653.8,418.72Zm0-7.39c.65-2.22,4.92-1.49,5.55,0C661,415.32,652.59,415.61,653.8,411.33Zm11.08,33.22h-5.53v-3.7h5.53Zm0-9.23c.06-1.79,2.25-1.43,3.7-1.85C668.52,435.27,666.3,434.91,664.88,435.32Zm31.37,14.76h-3.69v-3.69h3.69Zm55.35-25.83c0-1.79,2.25-1.43,3.67-1.85C755.24,424.2,753,423.83,751.6,424.25Zm5.53,12.92c-1.86-5.55,4.11-3.27,7.37-3.7C764.06,436.72,761.33,437.68,757.13,437.17Zm3.69-7.39c.78-3.52.67-7.94,5.53-7.38C765.58,425.93,765.69,430.35,760.82,429.78Zm11.06-11.06c-4.28-.64-8.64-1.2-7.38-7.39,7.22-1.06,10.72,1.6,14.77,3.7-.58,5.08-6.41,3.89-5.55-1.85C771.56,413.48,772.17,416.55,771.88,418.72Zm-3.69,14.75a8.62,8.62,0,0,1,7.39-7.37C773.4,428.83,774,434.34,768.19,433.47Zm12.92,9.23c-4,.33-5.88-1.51-5.53-5.53,1.49.35,1.83,1.84,3.69,1.84,2.09-.35,1-1.85,0-1.84C783.47,431.77,782.75,439.51,781.11,442.7Zm-1.84-35.05c6-2.28,1.41,6,7.37,3.68C785,418.28,778.48,413.44,779.27,407.65Zm16.59,33.2h-3.69v-3.68h3.69Zm-3.69-12.91c3.86-.78,4.9,1.27,7.39,1.84C797.7,433.62,791.4,434.84,792.17,427.94Zm5.55-20.29c.34-2.1,1.84-1,1.84,0C799.2,409.74,797.7,408.68,797.72,407.65ZM808.78,439h-5.53v-3.69h5.53Zm-5.53-14.76c0-1.79,2.25-1.43,3.69-1.85C806.89,424.2,804.67,423.83,803.25,424.25Zm5.53,5.53c6.18-4.46-4.47,6.19,0,0Zm7.39-16.6c-1-1,1.33-2.35,1.84-1.85C819,412.29,816.67,413.69,816.17,413.18Zm3.67-64.57c-1-1,1.34-2.35,1.86-1.85C822.66,347.72,820.37,349.12,819.84,348.61ZM818,339.38c.34-2.09,1.85-1,1.83,0C819.5,341.48,818,340.41,818,339.38Zm12.91,55.35c-1.56-.33-1.74.72-1.85,1.85h-3.68v-3.7c1.57.35,1.73-.71,1.84-1.83h3.69Zm-3.69-5.53c-4.49-1.16-1-9.33,3.69-7.38C833,387.62,828,386.3,827.23,389.2Zm3.69-40.59c-.95-1,1.34-2.35,1.84-1.85C833.72,347.72,831.43,349.12,830.92,348.61Zm1.84,60.88c.06-1.8,2.27-1.43,3.7-1.84C836.4,409.44,834.2,409.08,832.76,409.49Zm16.61-31.36c-1-1,1.34-2.35,1.84-1.85C852.17,377.24,849.88,378.64,849.37,378.13Zm7.37,46.12c-1.57-.34-1.73.72-1.83,1.85h-3.7v-3.7c1.57.35,1.75-.72,1.86-1.84h3.67Zm14.78,1.85c-5.32-3.08,3.42-7.47,7.37-7.38C880.25,425,872.09,421.75,871.52,426.1ZM786,219.21a4,4,0,0,0,4.85,1.26,4,4,0,0,0,2.09-3c1.34-.27,2.69-.46,4-.69a4,4,0,0,0,.13,2.16,4.19,4.19,0,0,0,5.6,1.94,4.12,4.12,0,0,0,2-5.23c1.31-.13,2.63-.14,4-.22a3.94,3.94,0,0,0-.26,3.7,4.19,4.19,0,1,0,7.54-3.66c-.1-.21-.35-.25-.48-.43h.28c1.7,0,3.41.35,5.12.42a3.93,3.93,0,0,0-.6,4.1,4.16,4.16,0,0,0,7.54-3.51c1.23.13,2.46.13,3.69.31a4.06,4.06,0,0,0,0,3.39,4.19,4.19,0,0,0,5.6,1.94,3.94,3.94,0,0,0,2-3.89c1.38.3,2.74.71,4.11,1,.05.45-.1.89.11,1.32a4.18,4.18,0,0,0,5.6,1.93c.63-.3.92-.92,1.31-1.45.86.27,1.75.37,2.61.67,2.78,1,5.45,2.1,8.11,3.25a4.13,4.13,0,0,0-1.72,5.37,4.19,4.19,0,0,0,5.6,1.94,3.56,3.56,0,0,0,1.78-1.95,10.36,10.36,0,0,1-2.44-1.24c.27-4,4.65-4,9.22-3.69a15.46,15.46,0,0,1,2,7.38c.13,0,.25,0,.38,0,1,.62,2,1.27,3,1.92-.36.07-.72-.11-1.06.06a4.19,4.19,0,1,0,3.66,7.54,4,4,0,0,0,2-4.47c2.07,1.54,4.07,3.17,6,4.84h0c1.11.95,2.2,1.91,3.27,2.9a4,4,0,0,0-1,4.56,4.19,4.19,0,0,0,5.6,1.93c.47-.22.62-.71.95-1.06.9.95,1.74,2,2.61,2.95a4.05,4.05,0,0,0-2.57.15,4.19,4.19,0,0,0,3.67,7.54,4,4,0,0,0,2-4,114.59,114.59,0,0,1,13.49,21c.06.2-.06.4,0,.6s.35.25.48.43a112.88,112.88,0,0,1,8.19,23.35,4,4,0,0,0-4.62-1.06,4.19,4.19,0,1,0,3.67,7.54A4.09,4.09,0,0,0,927,307c.17.87.38,1.73.53,2.6-.09.48-.13,1-.22,1.45-.4.06-.78-.12-1.16.07a4.19,4.19,0,0,0-1.94,5.6c.3.61.91.86,1.41,1.25-.34,1.31-.72,2.61-1.11,3.9a4,4,0,0,0-5-1.36,4.19,4.19,0,0,0-1.93,5.6,4.08,4.08,0,0,0,5,2,118.11,118.11,0,0,1-4.75,11.11c-.31.07-.6-.08-.9.06a4.13,4.13,0,0,0-2,5.34c-.72,1.32-1.51,2.61-2.29,3.9a3.94,3.94,0,0,0-2.35.15,4.19,4.19,0,0,0-1.94,5.6c.11.23.38.27.53.47-.73,1.06-1.61,2-2.38,3.08a4.06,4.06,0,0,0-3.41,0,4.19,4.19,0,0,0-1.94,5.6c.13.26.43.31.6.53-.87,1-1.74,2.09-2.66,3.1a4.08,4.08,0,0,0-2.6.16,4,4,0,0,0-2,4.43c-1.58,1.56-3,3.22-4.72,4.7-.15.05-.32-.05-.47,0-.53.25-.72.79-1.08,1.21-1.39,1.18-2.94,2.23-4.4,3.36a4.14,4.14,0,1,0-7.72.84,4,4,0,0,0,4,2c-1.4,1-2.76,2-4.21,2.93a4,4,0,0,0-5-1.41,4.15,4.15,0,0,0-2,5.38c-.51.28-1,.59-1.51.86l-2.19-4.5-4.65-9.57h0l-3.22-6.61c-5.75.4-6.68-6.9-5-10.28l-1.1-2.26-.23-.48c-1.61,1.11-3.21,2.13-3.6-.06a1.91,1.91,0,0,1,3-1.23l-13.11-27-9.31-19.16h0l-9.32-19.16L800.12,253l-4.66-9.58h0l-9.31-19.16L784,219.79C784.64,219.59,785.3,219.39,786,219.21Zm24.66,83.27c.36-2.09,1.86-1,1.86,0C812.12,304.58,810.62,303.51,810.62,302.48Zm1.86,3.7v3.68h-3.7v-3.68Zm1.83-16.61c1,1-1.33,2.35-1.83,1.84C811.52,290.47,813.81,289.06,814.31,289.57Zm-9.22,9.23c1-2.85,1.93-.12,1.85,1.84C806,303.48,805,300.75,805.09,298.8Zm1.85,29.51c-.81,2.27-2.36,3.79-5.55,3.69C800.53,328.07,804,328.49,806.94,328.31Zm-51.13-95.53a7.4,7.4,0,0,1,1.73-1.56c1.26-.75,2.58-1.42,3.88-2.12l5.27-2.57,3.76-1.82c1.09-.48,2.18-.94,3.27-1.37l.11-.05a7.63,7.63,0,0,1,9,3.71l1.39,2.86,1,2,3.67,7.54,1,2,3.67,7.54,1,2,3.66,7.54,1,2,3.61,7.44s0,.06,0,.1a7.27,7.27,0,0,1,.63,2.46,7.39,7.39,0,0,1-1.52,5.21,7.14,7.14,0,0,1-2.59,2.21l-8.3,4-6.14,3a6.56,6.56,0,0,1-.87.23,7.63,7.63,0,0,1-9.11-3.68l-1.39-2.86-1-2-3.66-7.54-1-2-3.67-7.54-1-2L759.55,250l-1-2-3.62-7.44s0-.07,0-.1a7.28,7.28,0,0,1-.64-2.46A7.45,7.45,0,0,1,755.81,232.78Zm10.54,47.57c-6.41,1.6-6.34-2.85-3.69-5.54C764.93,275.62,766.44,277.17,766.35,280.35Zm-58.48,17.5c-.21-.42-.62-.6-.93-.91.37-1.27.69-2.55,1.11-3.81a3.94,3.94,0,0,0,4.47.93,4.18,4.18,0,0,0,1.94-5.6,4,4,0,0,0-3.9-2,113.81,113.81,0,0,1,6-12.78c.21-.39.39-.79.61-1.17.6-1.06,1.23-2.1,1.87-3.13a18.51,18.51,0,0,0-2.5-.06v-9.23c6.91.16,6.77-6.75,12.91-7.37a12.7,12.7,0,0,0,0,3.66,4.16,4.16,0,0,0,1.44-3.21,113.32,113.32,0,0,1,10.61-10.29,4.12,4.12,0,0,0,.19,3,3.9,3.9,0,0,0,3.38,2.07l1.74,3.57a3.67,3.67,0,0,0,2.92,6l1.73,3.57A4,4,0,0,0,751,265a3.9,3.9,0,0,0,3.39,2.07l1.73,3.57a3.68,3.68,0,0,0,2.92,6l1.74,3.57a3.68,3.68,0,0,0,2.92,6l.81,1.66a1.13,1.13,0,0,1,0-.18c.36-2.1,1.85-1,1.85,0-.25,1.44-1,1.37-1.49.86l.6,1.23a3.67,3.67,0,0,0,2.92,6l1.73,3.57a3.68,3.68,0,0,0,2.93,6l1.73,3.57a3.68,3.68,0,0,0,2.92,6l1.74,3.57a3.68,3.68,0,0,0,2.92,6l1.74,3.57a3.67,3.67,0,0,0,2.92,6l1.74,3.57a3.67,3.67,0,0,0,2.92,6l1.73,3.57a3.68,3.68,0,0,0,2.92,6l1.74,3.56a3.69,3.69,0,0,0,2.92,6l1.74,3.56a3.67,3.67,0,0,0,2.92,6l1.73,3.57a4,4,0,0,0-.46,4A3.91,3.91,0,0,0,810.3,382l1.73,3.57a3.68,3.68,0,0,0,2.92,6l1.74,3.57a3.68,3.68,0,0,0,2.92,6l1.74,3.57c-.09.14-.25.22-.32.36-1.48.11-2.95,0-4.43,0-.06-.17,0-.34,0-.51a4.2,4.2,0,0,0-5.61-1.94,4.16,4.16,0,0,0-2.12,2.47c-1.16,0-2.33.08-3.48,0-.07-.24.07-.49,0-.73a4.1,4.1,0,0,0-.26-.41c-.51,2.23-3.63,1.77-3.67-.08.82-2.64,1.61.11,3.62,0a4.19,4.19,0,0,0-5.3-1.45,4,4,0,0,0-1.6,1.8c-.52-.06-1.05-.16-1.57-.23a8.64,8.64,0,0,1-4.37,1.73,14,14,0,0,1,.61-2.4,4,4,0,0,0-4.92-1.32c-.28.14-.34.46-.57.64-3.83-.84-7.54-2.12-11.26-3.33a4.32,4.32,0,0,0,1.86-3.36l-2.31.55a4.58,4.58,0,0,1,.68-3.85,4.17,4.17,0,0,0-4.31-.42,4.12,4.12,0,0,0-2,5.18c-1.43-.55-2.77-1.35-4.18-2a3.91,3.91,0,0,0-.11-1.7,4.18,4.18,0,0,0-5.6-1.93c-.3.14-.36.48-.61.68-3.26-1.65-6.41-3.45-9.51-5.4a4.16,4.16,0,0,0-.19-3.11,4,4,0,0,0-4.27-2l-1.44-3a3.77,3.77,0,0,0-3.22-6.62l-1.44-3a3.77,3.77,0,0,0-3.22-6.62l-1.43-3a3.77,3.77,0,0,0-3.23-6.62l-1.43-3a3.77,3.77,0,0,0-3.22-6.62l-1.44-3a4.88,4.88,0,0,0,1-1.51c-1.66-.77-2.77-1.94-2.53-3.56,1.16.26,2,.47,2.62.62a.88.88,0,0,0,0-.15,4,4,0,0,0-4.27-2l-1.44-2.95a3.77,3.77,0,0,0-3.22-6.63l-1.44-2.95A3.77,3.77,0,0,0,712.9,315L711.47,312a3.77,3.77,0,0,0-3.22-6.63l-.67-1.37a9.23,9.23,0,0,0-1-1.32A4,4,0,0,0,707.87,297.85Zm34.5,78.43c-1-1,1.34-2.35,1.84-1.85C745.17,375.39,742.88,376.79,742.37,376.28Zm-3.69,5.54c-.36,2.09-1.86,1-1.86,0C737.18,379.72,738.68,380.79,738.68,381.82Zm-25.84-60.89c.06-1.79,2.27-1.43,3.7-1.84C716.48,320.89,714.28,320.52,712.84,320.93Zm-16.6-12.56a4.35,4.35,0,0,1,1.65-1.56,4.5,4.5,0,0,1,2.71-.37,4.63,4.63,0,0,1,3.57,2.28l.75,1.35.83,1.71,3.83,7.87.83,1.71,3.83,7.87.83,1.71,3.82,7.87.83,1.7,3.83,7.88.83,1.7,3.83,7.88.83,1.7,3.83,7.88.83,1.7.75,1.54a4.64,4.64,0,0,1-.34,4.37,5.11,5.11,0,0,1-.73.82c-.41.46-.61,1.07-1.19,1.36a4.93,4.93,0,0,1-6.55-2.27l-.08-.17L723.19,370l-2.29-4.71-2.36-4.87-2.3-4.71c0-.11,0-.23,0-.34-.27-.4-.48-.85-.75-1.26l-1.59-3.27-2.29-4.71-2.27-4.65c-2.16,0-2.3-2.05-2.13-4.39l-.26-.53-2.37-4.87-2.19-4.51-.1-.2-1.38-2.85-1-2.15-.93-1.91,0-.09-.07-.16-3.26-6.7c-.12-.23,0-.47,0-.71A4.46,4.46,0,0,1,696.24,308.37ZM695,339.53l2.61,5.36c.16,0,.29,0,.47,0,.07.42.11.83.14,1.23l2.49,5.13.09.18,9.22,19c3-.77,3.87,3.29,2.56,5.27l.77,1.58.81,1.67,11.68,24c1.39.32,2.91.15,5.44-.86-.68,3.14,1.44,3.48,3.7,3.69,2.54,4.21-4.76,6.94,0,7.38a2.44,2.44,0,0,1-3.13,2.13l.66,1.36,5,10.33a3.68,3.68,0,0,1-.64,1,15.29,15.29,0,0,1,9.15,9.19c-7-2.68-3.53,5.06-9.23,3.68.26-3.43,1.23-6.16,3.7-7.38-1.18-1.85-4.14-1.92-3.7-5.4a3.69,3.69,0,0,1-1.67,1L684,444.16a3.9,3.9,0,0,1-4.62-2l-36.5-75.05h-.12s0-.06.07-.1l-4.42-9.1,48.67-34.68Z" transform="translate(-87 -207.41)" fill="#43a1e2"/><path d="M449,621.66c-2.65,1-4.5-7.19-5.54-1.85C445.37,619.6,447.22,627.77,449,621.66Z" transform="translate(-87 -207.41)" fill="#43a1e2"/><path d="M522.82,634.57c-4.58,2.41-7.66-5.42-9.23,0C516.37,636.7,521.36,641.05,522.82,634.57Z" transform="translate(-87 -207.41)" fill="#43a1e2"/><path d="M447.59,603.11l.77.83.72-.35A1.61,1.61,0,0,0,447.59,603.11Z" transform="translate(-87 -207.41)" fill="#43a1e2"/></g></g></svg>