<svg id="icon" xmlns="http://www.w3.org/2000/svg" viewBox="0 0 745.68 850"><g id="github"><path d="M645.35,410.75v4.38H641v-3a40,40,0,0,0-6.55,3.4,11.22,11.22,0,0,1,0,1.83,3.78,3.78,0,0,0-1.44-.91,51.42,51.42,0,0,0-12.91,12.89c-9.79,13.38-14.89,29.65-14.89,49.22s5.24,35.85,14.89,49.09c6.11,8.47,13.28,14.21,21.28,17.29,1.66-4.16,8.61-3.24,8.56,2.21a41.71,41.71,0,0,0,6.15.49c13.51,0,24.82-6.62,34.61-20s14.89-29.64,14.89-49.09-5.24-35.84-14.89-49.22-21.1-20-34.61-20a41.72,41.72,0,0,0-10.9,1.44ZM614.7,465.47c0,2.12-2.67,1.69-4.36,2.19C610.38,465.53,613,466,614.7,465.47Zm-4.36,39.4c-1.13-1.14,1.58-2.8,2.18-2.19C613.65,503.81,610.94,505.46,610.34,504.87ZM612.52,483c-1.14-1.13,1.58-2.8,2.18-2.19C615.83,481.92,613.12,483.58,612.52,483Zm4.38-4.38c-1.13-1.13,1.58-2.79,2.18-2.19C620.21,477.54,617.5,479.21,616.9,478.6Zm0-8.75c-1.13-1.14,1.58-2.8,2.18-2.19C620.21,468.79,617.5,470.46,616.9,469.85Zm19.68,52.52c.43-2.48,2.21-1.22,2.21,0C638.36,524.86,636.58,523.59,636.58,522.37Zm8.77-15.32c2.37.54,1.47,4.36,4.38,4.38C648.79,517.49,642.84,511.55,645.35,507.05Zm0-10.95c.06-2.12,2.67-1.68,4.38-2.18C649.66,496.05,647,495.62,645.35,496.1Zm0,30.65c1-3.18,1.92.22,4.38,0C649.17,529.5,645.37,529,645.35,526.75Zm4.38,17.51c.53-2.76,4.34-2.22,4.38,0C653.13,547.44,652.19,544,649.73,544.26Zm21.88-4.39c1-3.17,1.93.23,4.38,0C675.44,542.63,671.63,542.09,671.61,539.87Zm6.56-35h-4.38v-4.39h4.38Zm11-41.59c.4-2.48,2.2-1.21,2.18,0C690.89,465.77,689.12,464.49,689.12,463.28Zm13.12-8.76c1.13,1.14-1.58,2.8-2.18,2.19C698.93,455.58,701.64,453.93,702.24,454.52Zm-2.18,39.4c1.13,1.14-1.58,2.79-2.18,2.18C696.75,495,699.46,493.32,700.06,493.92Zm-10.94-46c10.34,3.42,2.9,10.85,0,0Zm0-4.38c-.43,2.49-2.2,1.22-2.18,0C687.34,441.1,689.12,442.37,689.12,443.58Zm-4.38,70c1.13,1.13-1.59,2.79-2.18,2.19C681.42,514.68,684.14,513,684.74,513.62ZM676,421.7h4.36v4.38H676Zm-6.58,37.2h4.38v4.38h-4.38Zm-4.36,70c-.42,2.49-2.2,1.22-2.2,0C663.28,526.45,665.05,527.72,665.05,528.93Zm-2.2-8.75c-.4,2.49-2.2,1.22-2.18,0C661.08,517.7,662.85,519,662.85,520.18Zm-2.18-8.75c-.43,2.49-2.2,1.22-2.2,0C658.9,509,660.67,510.21,660.67,511.43Zm-2.2,17.5c0,2.14-2.67,1.7-4.36,2.19C654.15,529,656.78,529.42,658.47,528.93Zm4.38,17.52c-6.22-1.8-11.11-4.94-13.12-11C656.76,529.56,661,540.43,662.85,546.45Zm-13.12-78.79c1.13,1.13-1.58,2.8-2.2,2.19C646.39,468.71,649.11,467.05,649.73,467.66Zm-2.2-39.39h-4.36v-4.38h4.36Z" transform="translate(-139.16 -87)" fill="#43a1e2"/><path d="M400.23,833.15c-.6-.61-3.32,1.05-2.19,2.18C398.64,835.93,401.36,834.28,400.23,833.15Z" transform="translate(-139.16 -87)" fill="#43a1e2"/><path d="M754.81,625l2.37-1.14A1.74,1.74,0,0,1,757,623C755.21,622.66,754.94,623.76,754.81,625Z" transform="translate(-139.16 -87)" fill="#43a1e2"/><path d="M544.67,896.61c0,1.22,1.78,2.48,2.19,0C546.86,895.39,545.09,894.12,544.67,896.61Z" transform="translate(-139.16 -87)" fill="#43a1e2"/><path d="M396.35,929.94V937h7.34A33.24,33.24,0,0,0,396.35,929.94Z" transform="translate(-139.16 -87)" fill="#43a1e2"/><path d="M463.69,699.64c2.25-.25,4.44,9.44,6.57,2.19C467.11,703,464.92,693.31,463.69,699.64Z" transform="translate(-139.16 -87)" fill="#43a1e2"/><path d="M527.17,876.92c5.48.37,5.31-4.91,8.75-6.58C530.44,870,529.07,873.71,527.17,876.92Z" transform="translate(-139.16 -87)" fill="#43a1e2"/><path d="M514,857.21c-.6-.6-3.32,1.06-2.19,2.19C512.45,860,515.17,858.34,514,857.21Z" transform="translate(-139.16 -87)" fill="#43a1e2"/><path d="M379.16,809.34l2.39-.4c-1-1.45-1.54-3.43-1-6.44,3.87.79,7,2.34,8.89,5.09l6.23-1.07c0,1.61,0,3.27,0,4.93-.08-4.45,2.22-9.8,4.57-11.13-7.15.35-14.15,5-15.32-4.38-3.93-.28-4.61,2.68-8.76,2.19,2.73,8.33-6.44,4.79-4.6,12.25,2.94-.36,5.86-.78,8.79-1.27Z" transform="translate(-139.16 -87)" fill="#43a1e2"/><path d="M405.14,937h1.75C406.15,936.63,405.58,936.49,405.14,937Z" transform="translate(-139.16 -87)" fill="#43a1e2"/><path d="M510.41,869.35a7.85,7.85,0,0,0,1.43-1.2A3.36,3.36,0,0,0,510.41,869.35Z" transform="translate(-139.16 -87)" fill="#43a1e2"/><path d="M461.46,937h2.4a.83.83,0,0,0-.17-1C463.29,935.6,462,936.21,461.46,937Z" transform="translate(-139.16 -87)" fill="#43a1e2"/><path d="M398,811.26c1.42,2.22,5,2.25,4.38,6.56-4.7.51-6.54-2.3-6.76-5.82q0,4.62,0,9.49c3.5-.78,7.73-2.66,6.72,5.08,7.28-.68-6.6-10.37,4.38-8.75.09-3.74-1.64-5.66-4.38-6.56,1.9-6.37,3.28-2.47,8.75-2.19,2.7-7.08-7.07-1.68-4.37-8.75C400.89,801,402.87,809.52,398,811.26Z" transform="translate(-139.16 -87)" fill="#43a1e2"/><path d="M557.81,717.15c-5.43,2.85-9.09-6.43-10.95,0C550.15,719.68,556.07,724.83,557.81,717.15Z" transform="translate(-139.16 -87)" fill="#43a1e2"/><path d="M518.4,675.57c-1.61.46-2.42,1.74-2.18,4.06l.21.22C518,679.31,518.75,678,518.4,675.57Z" transform="translate(-139.16 -87)" fill="#43a1e2"/><path d="M518.4,669c-.59-.61-3.31,1-2.17,2.18C516.82,671.79,519.54,670.14,518.4,669Z" transform="translate(-139.16 -87)" fill="#43a1e2"/><path d="M402.42,841.9c-2.26-1.76-4-4.07-6.62-5.43,0,2.58.05,5.2.07,7.87,1.52.58,2.66,1.54,4.36,1.93C397.78,843.58,398.32,841.78,402.42,841.9Z" transform="translate(-139.16 -87)" fill="#43a1e2"/><path d="M557.81,929.44c0-1.22-1.78-2.49-2.18,0C555.6,930.66,557.38,931.92,557.81,929.44Z" transform="translate(-139.16 -87)" fill="#43a1e2"/><path d="M476.83,811.26c-.6-.61-3.32,1.06-2.2,2.18C475.24,814.05,478,812.39,476.83,811.26Z" transform="translate(-139.16 -87)" fill="#43a1e2"/><path d="M463.69,831c0,1.21,1.78,2.47,2.19,0C465.89,829.74,464.11,828.46,463.69,831Z" transform="translate(-139.16 -87)" fill="#43a1e2"/><path d="M500.9,758.73c6.66,6-6-6.66,0,0Z" transform="translate(-139.16 -87)" fill="#43a1e2"/><path d="M503.09,765.3c0,1.22,1.78,2.48,2.19,0C505.28,764.08,503.51,762.81,503.09,765.3Z" transform="translate(-139.16 -87)" fill="#43a1e2"/><path d="M343.32,800.32c.61.6,3.33-1.06,2.19-2.19C344.92,797.52,342.2,799.18,343.32,800.32Z" transform="translate(-139.16 -87)" fill="#43a1e2"/><path d="M525,774.05c6.65,6-6-6.66,0,0Z" transform="translate(-139.16 -87)" fill="#43a1e2"/><path d="M409,822.2c.61.6,3.32-1.05,2.19-2.19C410.57,819.4,407.86,821.07,409,822.2Z" transform="translate(-139.16 -87)" fill="#43a1e2"/><path d="M494.34,774.05c0,1.22,1.77,2.49,2.18,0C496.53,772.83,494.76,771.57,494.34,774.05Z" transform="translate(-139.16 -87)" fill="#43a1e2"/><path d="M498.71,747.78v6.58C505.1,757.57,505.1,744.57,498.71,747.78Z" transform="translate(-139.16 -87)" fill="#43a1e2"/><path d="M794.16,456.71c-.28-2.9-1.17-4.42-2.44-5.12.2,1.69.37,3.4.5,5.12Z" transform="translate(-139.16 -87)" fill="#43a1e2"/><path d="M560,629.61a6,6,0,0,0,4.32-5.93l-4.25.1A6.71,6.71,0,0,0,560,629.61Z" transform="translate(-139.16 -87)" fill="#43a1e2"/><path d="M415.55,822.2c10.81,3.9,4.05-18.23,0-10.94C422,813.12,412.7,816.76,415.55,822.2Z" transform="translate(-139.16 -87)" fill="#43a1e2"/><path d="M422.11,835.33c6.66,6-6-6.66,0,0Z" transform="translate(-139.16 -87)" fill="#43a1e2"/><path d="M516.23,927.25c.59.61,3.31-1.06,2.17-2.19C517.81,924.46,515.09,926.11,516.23,927.25Z" transform="translate(-139.16 -87)" fill="#43a1e2"/><path d="M433.05,820c-10.83,2.91-3.41,10.34,0,0Z" transform="translate(-139.16 -87)" fill="#43a1e2"/><path d="M496.27,623.47l-3.68-.15C490.26,627.71,496.66,626.47,496.27,623.47Z" transform="translate(-139.16 -87)" fill="#43a1e2"/><path d="M426.49,795.94c-.61-.61-3.32,1-2.19,2.19C424.91,798.74,427.63,797.07,426.49,795.94Z" transform="translate(-139.16 -87)" fill="#43a1e2"/><path d="M503.09,852.84c-4.51,11.71,7.7,7,0,0Z" transform="translate(-139.16 -87)" fill="#43a1e2"/><path d="M474.63,828.76c-.59-.6-3.31,1.06-2.18,2.2C473.05,831.56,475.77,829.9,474.63,828.76Z" transform="translate(-139.16 -87)" fill="#43a1e2"/><path d="M708.84,642.49l1.47-.37-1.46.29A.22.22,0,0,1,708.84,642.49Z" transform="translate(-139.16 -87)" fill="#43a1e2"/><path d="M459.32,824.38c13.56,5.07,6.43-6.38,0,0Z" transform="translate(-139.16 -87)" fill="#43a1e2"/><path d="M525,920.69c-.61-.61-3.33,1-2.19,2.18C523.39,923.48,526.11,921.82,525,920.69Z" transform="translate(-139.16 -87)" fill="#43a1e2"/><path d="M422.11,806.88c6.31.27,3.81,9.33,10.94,8.75C432.58,810.82,424.16,802.87,422.11,806.88Z" transform="translate(-139.16 -87)" fill="#43a1e2"/><path d="M696.65,130.32l1.65-.94L671,146.57c-37.67-10.76-80.66-17.32-125.17-18.38a10.12,10.12,0,0,1-1.8,0c-3.6-.07-7.19-.18-10.81-.18-2.21,0-4.4.08-6.61.11-.59.42-1.33.64-1.61.35a.72.72,0,0,1-.19-.32l-4.24.07a1.84,1.84,0,0,0,.05.25,22.94,22.94,0,0,1-4.77-.17q-16.86.57-33.43,2.21a7.21,7.21,0,0,1,1,4.53c-2.14-.06-1.7-2.68-2.19-4.37a1.7,1.7,0,0,0-.5,0l-.72.07c-.73.3-.88,1.18-1,2.13-1.66.35-2-.61-2.13-1.76A517.57,517.57,0,0,0,425,139.38h1.45v4.38h-4.38V140q-8.89,2-17.69,4.2c4.26,1,3,.88,8.94-.47-3.28,4.74-10.95,5.1-10.94,13.12-6.88-5.64,4.95-6.12.62-12.29-2,.52-4.06,1-6.07,1.56a46,46,0,0,0-3.3,6.36c-3.34-.5-2.11-5.64.64-7.89a97.07,97.07,0,0,0-24.85-29.32H358.65a6.51,6.51,0,0,1,3.3-5.43C331.29,89.61,291.53,85.36,261.78,87.5c1.2.86,8.19,10.58.57,1.55a7.4,7.4,0,0,1-.75-1.54,167.18,167.18,0,0,0-18.34,2.3,111.53,111.53,0,0,0-9.37,18.93h0c.64.64,0,1.44-.7,1.91a152.88,152.88,0,0,0-8.46,37.48h.4c.39,1.74.05,2.77-.71,3.37-.5,6-.69,12.07-.61,18.07a2.11,2.11,0,0,0,1.32.44c-.32,1.51-.75,2.19-1.26,2.41.72,24.15,6,47.13,14.44,63.65-37.69,40.75-56.76,90-56.76,147.68a435.9,435.9,0,0,0,2.77,49.73c.65-.26,1.43.54,1.43,1.35-.19,1.12-.65,1.45-1.11,1.4a332.25,332.25,0,0,0,6.92,38.32,13.76,13.76,0,0,0,7.32-.33v4.38c2.8-3,10.33-3,13.12,0-1.37,8-11-5.91-8.75,4.38-6.12.13-6.79-5.2-11.28-6.71,1.29,5.14,2.66,10.21,4.18,15.11a303.36,303.36,0,0,0,13.65,35.43.14.14,0,0,0,0-.06c2.94,1.43,4.07,4.67,4.37,8.75H214a189.11,189.11,0,0,0,19.8,31.24,193.05,193.05,0,0,0,56.77,47.58l.94.47a280.17,280.17,0,0,0,65.24,27.56l2.12.47a434.18,434.18,0,0,0,50.9,10.2c-2.71-1-4.73-2.69-9.58-1.54-2-5.27-6.4-8.18-11-10.94.3-6.3,8.55-2.44,17.52-4.37.89,6.4,7.48,7.09,10.94,10.94-.76,2.82-3.73,3.43-4.34,6.41q8.37,1.14,16.87,2l2.12.23c-19.08,17.19-30.85,41.93-35.09,74-2.81,1.36-5.8,2.63-8.88,3.85-.6,2.76-2.57,5.26-5.7,5.44.47-1.53.83-2.7,1.07-3.71a138.93,138.93,0,0,1-17.82,5l-.94.23a173.31,173.31,0,0,1-21.22,2.84h1.7v4.37h-4.37v-4.19c-4.69.31-9.44.51-14.26.51h-2.59A74.62,74.62,0,0,1,303,740.9c.3,1,1.13,2,3.12,2.51-.68,3-5.48,1.82-8.75,2.19-.53-3.13,1-4.23,1.9-5.89a98.41,98.41,0,0,1-22.09-11.15,107.2,107.2,0,0,1-12.72-10c-.58.69-1.73,1.17-2.11.8-.67-.68,0-1.54.83-2a140.28,140.28,0,0,1-25.8-33.54,115.15,115.15,0,0,0-34.39-37l-.47-.23a153.76,153.76,0,0,0-18.65-11.1c-.1.24-.2.47-.31.68-2.59-.08-2.91-.93-2.46-2A64.8,64.8,0,0,0,167,629.4L160.36,628l-3.53-.47a16.69,16.69,0,0,0-14.84,9l-.94,1.65-1.89,7.53a16.74,16.74,0,0,0,9.66,15.08c10.6,4.71,21,13.89,31.09,27.32a181.27,181.27,0,0,1,22.14,35.56l.47,1.18,7.3,16.49a93.2,93.2,0,0,0,31.32,44l.24.24c.39.3.8.58,1.19.88,5.39-1,9.57-3.12,11-8,5.46,1.1,9,4.14,13.12,6.56,12.14.27,23.6,1.21,21.89,15.33-9.07-1.14-9.37-11.05-21.89-8.77-3.32.47-4.61,3-4.51,6.85A109.68,109.68,0,0,0,288.72,807h.71c3.34.64,6.82,1.22,10.38,1.75,1.7-2.19,1.82-1.48,1.42.22a296.2,296.2,0,0,0,37.89,3H346c.59,0,1.17,0,1.75,0v-7.21h4.39v7.12c1.93,0,3.86-.14,5.78-.25a5.32,5.32,0,0,0-1.41-.3c-.73-3.57,6.76-3.39,7.18-.06.56-.05,1.1-.12,1.66-.18,1.34-4.39,5.32-6.14,4.29-12.89,7.72-.3,9.79-6.26,17.5-6.58-.61,3.54,2.08,3.78,2.19,6.58,2.56-5.41,8.39-5.41,11,0,3.24-1-.87-2.8,0-6.58,1.95,1.71,4.94,2.37,8.75,2.2,3.78,3.75-3.22,8.61,6.57,8.75,3.07-.77.19-3.85-2.19-4.37,5.58-.94,8.14-4.71,19.69-4.38-1.8-5.49-7.66-6.93-10.94-11-6.46,1.9,5.08,3.28,2.19,8.75-5.14-.69-4.89-6.76-8.75-8.75-8,3.44,5.09,3.27,2.19,8.75-2.87-2.22-8.07-2.13-10.94-4.37.61-4.5,5.84-4.37,8.75-6.57-.41-1.76-2.2-2.18-2.19-4.37-7.08-2.7-1.67,7.09-8.75,4.37-.38-5.48,4.89-5.31,6.56-8.75-9.39-2.05,3.28-13.5-8.75-10.94,2.43-4.13,3.07-10.06,8.75-10.95q-2,8.53,6.57,6.58c-.57,10-2.33,10.57,0,19.69,9.84-.77,6.34-6.56,8.75-10.94,5.37,1.92,12.62,2,13.14,8.75-6.42-.57-6.74,5-13.14,4.38,3.73,2.1,4.8,6.87,6.56,11,4.23-.23-3.39-8.17,2.2-11,2.54,1.84,5.86,2.89,10.94,2.18-3.16,11.48,1.75,11.16,8.75,6.57-4.46,5.84-11.28,18.23-19.69,13.14,6.18,7.35-3.18,18.19,4.38,21.88,1.36-3.73,6.6-3.6,8.75-6.57,6.36,5.8-8.09,9.3-15.33,8.75,6.4,4.71,2.07,6.54,4.39,15.33-9.95-3.42-12.05,2.66-17.52,8.75-6.16-2.58-6.66-10.85-8.75-17.5-5.05-.68-2.43,6.32-6.56,6.56,1.23,4.94,3.41-2.65,6.56,2.19,1.21,4.85-4.18,3.12-4.37,6.56-1.19,11.12,7.75,0,6.56,8.76H398c.16-3.7-.79-4.55-2.12-5.4.06,6.63.13,13.52.2,20.72.07,4.34.12,10.88.15,18.68,2-1.17,4.1-2.24,6.15-3.36,1.59,5.83-4.41,4.06-6.13,6.57v2.18c5.28-.32,5.23,4.69,6.13,8.75a8.21,8.21,0,0,1-6.1-.62c0,3.65,0,7.44,0,11.3,4.13,0,8.09.89,10.46,2.46-.15,7.38-5,.38-8.76,6.56,3.84,3.46,4.54,10,10.94,10.94,4.23-.88.19-10,8.76-6.56,2.18,7.68-7,4-6.73,9.75h4.41a6.54,6.54,0,0,1,.13-1,6.66,6.66,0,0,1,5,1h27.83v-3.19c3.14-.68,3.93,1,4.18,3.19h5c1-2.89,3.27-4.42,4-7.56,7.08.21,4.67,9.92,15.32,6.56-.14.35-.31.67-.47,1h4.78c1.17-2.1,1.64-4.9,2.26-7.56,2.22,1.42,2.25,5,6.56,4.37a6.65,6.65,0,0,1-2.18,3.19h7.32c-.25-.69.55-1.75,3.61-3.19,1.94,1.46,2.12,2.51,1.53,3.19h3.49a.69.69,0,0,1,.83,0h14.38a11.6,11.6,0,0,1,1.66-3.19c.86-4.24-10-3.2-6.57,2.19-2.78-.49-2.87-6.53,0-6.56-2.24-5.06-14.65.06-13.13-8.75,4.85-1.21,3.12,4.17,6.56,4.37,1.78-.42,2.19-2.19,4.38-2.19-2.75-2.92-6.58-4.3-2.19-8.76-.23-4.13-7.23-1.51-6.56-6.56-5.8-.69,2,12.26-6.57,8.76,2.19-7.45-1.37-8.16,6.57-10.95-6.3-.26-1.13-12-8.75-10.94.18-3.11.35-6.2-2.19-6.56,6.13-8.79,4.25,8.67,10.94,6.56V901A8.17,8.17,0,0,1,514,901c2.51,6.89-3.44,5.32-4.38,8.76,4.53,5,8.4,10.57,19.7,8.76-.89,5.26,4,4.75,2.19,10.94-4.17,4.1-5.49.23-10.94,0a10.31,10.31,0,0,1,2.19,6.56c5.58-.25,11.26-.4,10.94-6.56.84,3.35,2.88,5.5,5,7.56H547c0-.33-.08-.64-.12-1a4.16,4.16,0,0,1,3.7,1h4c-2.11-3-3.6-6.57-9.88-5.37.9-5.28-4-4.77-2.19-10.94,3.75,3,8.62,7.06,8.76-2.19,6.65,2.19,2.78,3.6,0,6.56-1.09,5.52,10.86-6.1,8.74,4.38,7.19-.13,8.38-6.23,17.53-4.38.43,7-9.57,3.57-8.76,10.94a5.41,5.41,0,0,0,.58,1h2.09c1.82-1.86,4-7,8.27-5.37,0,1.94-3.36,4.07-4,5.37H595v-3.19h4.39V937h71.11V913.09c-.94-.25-1.47-1.27-1.1-3.35a8.34,8.34,0,0,0,1.1.34V893.79c-1.31.73-3.26,0-3.28-1.56.8-2.64,1.62-.75,3.28-.16V757.53q0-38.41-11.39-65.4c-3.9,2.24-7.63-2-11.59-3.43-.61-5.72,2.48-8.27,5.84-8.28a93.69,93.69,0,0,0-20.07-24.64,506,506,0,0,0,74.46-13c-.25,0-.51,0-.74,0l-.24.05.16-.05c-5.06-.37-5.58-5.88-2.5-8.79,3.71.5,4.88,3.54,4.42,8.23a289.77,289.77,0,0,0,45.39-17c-3.62-.12-2.45-9.85,2.7-6.6V623c1.61-1.1,3.19-2.13,4-1q7.46-3.78,14.62-7.92l-1.41.71a203.51,203.51,0,0,0,57.94-47.34l.24-.24c1.44-1.74,2.83-3.6,4.22-5.46h-5.17v-4.37h6.56V560a178.42,178.42,0,0,0,12-19,19.65,19.65,0,0,1-1-3.28,3.78,3.78,0,0,1,2.65.18c1.26-2.38,2.49-4.83,3.7-7.33-1.36-2.75-1.74-6.49-6.35-6,1.32-5.25,3.14-10,2.2-17.51-11.82-3.06-7.25,10.29-15.33,10.94-.4-1.86.86-2.06,2.18-2.18-.4-3.22-11.77,2.93-10.94-6.57,5.13-.72,9-2.63,13.14-4.37,2.7-7.09-7.09-1.68-4.38-8.77,7.16.13,8.36,6.23,17.51,4.38a10.24,10.24,0,0,0-2.18,6.57c8.27,3.17,4.19-6,10.94-4.37-.94,4.17-.81,9.41-6.58,8.75,1.34,1.94,2.65,3.91,0,4.38,5.84-.36,1.44,3.67,3.93,5.64.9-2.07,1.79-4.15,2.65-6.29v-5.92a6,6,0,0,1,2.16.23c2.12-5.66,4.17-11.49,6.06-17.61a298.64,298.64,0,0,0,10.48-47.07,10.93,10.93,0,0,1-3.4,1,12.55,12.55,0,0,1,4.37-8.23A437.85,437.85,0,0,0,884.84,384q0-86.91-56.76-147.67a162.21,162.21,0,0,0,10.13-37.5c-2.89,2.42-7.91,1.37-6.84-4.72h7.52q5.67-48.33-16.47-104c-13.42-4.24-32.73-1.65-58.17,7.77A383.06,383.06,0,0,0,696.65,130.32ZM196.7,439.21c1.13,1.13-1.58,2.79-2.19,2.18C193.37,440.27,196.09,438.6,196.7,439.21ZM192.32,437c1.13,1.13-1.59,2.79-2.19,2.19C189,438.08,191.72,436.41,192.32,437Zm-2.19,15.31v-8.75c3.84,2,4,7.67,6.57,10.94C201.32,459.88,194.4,451.25,190.13,452.33ZM168.24,671.19c-1.12-1.13,1.59-2.79,2.19-2.18C171.56,670.14,168.85,671.79,168.24,671.19Zm2.19-13.13c-1.13-1.13,1.58-2.8,2.19-2.19C173.76,657,171,658.66,170.43,658.06Zm35,48.14h-4.38v-4.37h4.38ZM223,763.11c.42-2.48,2.21-1.22,2.19,0C224.73,765.6,223,764.33,223,763.11Zm13.14-43.77h4.38v4.38h-4.38Zm2.19,13.13h4.38v4.37h-4.38Zm4.38,32.83c1.13,1.13-1.58,2.79-2.19,2.19C239.33,766.36,242.05,764.69,242.66,765.3Zm-2.19,8.75c.05-2.13,2.68-1.7,4.37-2.19C244.79,774,242.17,773.56,240.47,774.05Zm4.37-28.45c7.34-5.29-5.29,7.34,0,0ZM328,778.43h4.37v4.37H328Zm-10.94-21.88c-.07,2.12-2.69,1.7-4.38,2.18C312.75,756.6,315.37,757,317.07,756.55Zm-2.19,24.06c-1.14-1.12,1.58-2.79,2.19-2.18C318.2,779.57,315.48,781.22,314.88,780.61ZM293,760.92h4.38v4.38H293Zm4.38,8.75c-.41,2.49-2.2,1.22-2.19,0C295.6,767.19,297.37,768.46,297.37,769.67Zm-15.32-28.45c-.42,2.49-2.19,1.22-2.19,0C280.27,738.74,282.06,740,282.05,741.22ZM258,771.86h-6.56v-4.37H258Zm2.19,2.19c-1.13-1.13,1.58-2.79,2.19-2.19C263.49,773,260.77,774.66,260.16,774.05ZM262.35,750c-1.13-1.13,1.59-2.78,2.19-2.19C265.68,748.92,263,750.58,262.35,750Zm6.56,10.95h-4.37v-4.37h4.37Zm-4.37-37.2c.54-2.76,4.35-2.21,4.37,0C267.94,726.89,267,723.49,264.54,723.72Zm10.95,52.52c-.37,2.54.48,3.89,2.18,4.37-4.73,7.42-9.63-10-4.37-13.12,1.34,3,8.42.32,8.75,4.37C283.07,776.53,278.92,776,275.49,776.24Zm13.12,6.56h-4.37v-4.37h4.37Zm0-15.31h-4.37v-4.38h4.37Zm-4.37-19.71c3.54-.6,3.76,2.08,6.56,2.19C291.67,754.23,280.83,753.17,284.24,747.78Zm6.56,32.83c3.73-.8,4.14,1.71,4.38,4.38H290.8ZM293,795.94c2.69.95,4.5,2.8,4.38,6.56C289.77,804.41,289.86,799.13,293,795.94Zm6.56-15.33c-6,1.6-4.4-4.35-8.75-4.37,2.21-3.62,9.3-2.38,13.13-4.38C303.9,776.21,298,774.65,299.55,780.61Zm10.94,19.71c-1.9,6.36-3.27,2.46-8.75,2.18,4.05-3.24,3.28-11.31,10.95-11C315.12,797.37,299.06,799,310.49,800.32Zm2.2-17.52c2.12.07,1.69,2.69,2.19,4.38,2.35-6.94,9.82-.08,19.69-2.19C333.07,794.36,313.19,792.4,312.69,782.8Zm21.88,19.7c.42-2.48,2.2-1.21,2.19,0C336.35,805,334.57,803.72,334.57,802.5Zm2.19-6.56h-4.38v-4.39h4.38ZM339,806.88c.42-2.48,2.19-1.22,2.19,0C340.73,809.37,338.94,808.1,339,806.88ZM391.47,750c-1,3.19-1.92-.22-4.38,0C387.64,747.23,391.45,747.77,391.47,750Zm2.2,4.39v4.37h-4.39v-4.37Zm-15.33-2.19c1.13,1.13-1.58,2.79-2.19,2.19C375,753.22,377.74,751.56,378.34,752.17Zm0,6.56c-1,3.18-1.92-.22-4.37,0C374.5,756,378.32,756.53,378.34,758.73Zm0,10.94c-.53,2.76-4.35,2.21-4.37,0C374.93,766.5,375.88,769.9,378.34,769.67ZM363,765.3c-1,3.18-1.93-.23-4.38,0C359.19,762.54,363,763.09,363,765.3Zm-17.52,37.2c-6.35-1.9-2.45-3.27-2.19-8.75,4.87-1.2,3.12,4.17,6.57,4.38C349.35,800.5,345.55,799.61,345.51,802.5Zm2.19-41.58c3.54-.61,3.78,2.07,6.57,2.19C355.14,767.35,344.31,766.3,347.7,760.92Zm4.39,19.69c-.68-5.77,4.56-5.64,8.75-6.56C357.4,775.72,357.57,781,352.09,780.61Zm8.75,0c-1.14-1.12,1.58-2.79,2.19-2.18C364.16,779.57,361.45,781.22,360.84,780.61ZM363,756.55c3.19-5.85,12,.91,10.94,6.56C365.82,765.43,366.91,758.5,363,756.55Zm6.56,13.12c-1.13-1.12,1.58-2.79,2.19-2.18C372.91,768.62,370.2,770.28,369.59,769.67Zm6.56,17.51c-4.53-4.51,0-11.1,6.57-10.94-2,6.77-5.45,12.06-8.75,17.51C369.72,794.61,370.76,783.77,376.15,787.18Zm4.38-4.38c7-.43,9.47,3.67,10.94,8.75C386.14,790.33,380.22,789.69,380.53,782.8Zm8.75-2.19c-6.43-4.55,5.24-11.3-6.56-6.56-.56-7.14,2.6-10.53,8.75-10.94-.06,2.13-2.68,1.7-4.38,2.19a15.62,15.62,0,0,0,6.58,4.37C395.53,776.66,390.22,776.45,389.28,780.61ZM398,876.92c7.34-5.29-5.29,7.34,0,0Zm146.63,56.89c1.14,1.13-1.58,2.8-2.19,2.19C541.35,934.87,544.06,933.21,544.67,933.81ZM840.13,528.93h4.36v4.38h-4.36Zm-4.38,19.71c3.53-.62,3.76,2.06,6.56,2.18C843.19,555.07,832.35,554,835.75,548.64Zm-6.56-13.14h4.36v4.37h-4.36Zm0,32.83c-.43,2.48-2.2,1.22-2.2,0C827.42,565.84,829.19,567.11,829.19,568.33ZM881.7,397.62c-.4,2.49-2.2,1.22-2.18,0C879.93,395.14,881.7,396.41,881.7,397.62Zm-41.57,91.92a10.3,10.3,0,0,0,2.18-6.56h8.77C847.79,485.53,845.71,489.3,840.13,489.54Zm13.13-28.44c-5.09-.76-10.26-1.42-8.77-8.77,8.57-1.26,12.72,1.89,17.53,4.38-.69,6-7.61,4.62-6.58-2.19C852.87,454.88,853.6,458.52,853.26,461.1Zm-6.56,4.37c-.92,4.18-.79,9.42-6.57,8.75C841.05,470,840.92,464.8,846.7,465.47Zm2.18,13.13c1-4.88,3.86-7.8,8.76-8.75C855.05,473.1,855.74,479.63,848.88,478.6Zm10.94,19.69h-4.38v-4.37h4.38Zm4.38-8.75c-4.77.4-7-1.79-6.56-6.56,1.77.42,2.18,2.19,4.38,2.18,2.48-.4,1.2-2.19,0-2.18C867,476.58,866.14,485.76,864.2,489.54ZM862,448c7.07-2.7,1.67,7.09,8.74,4.37C868.86,460.57,861.08,454.83,862,448Zm0-13.13c.47-.49,5.36,3.38,4.36,4.38C864.11,441.46,860.8,436,862,434.83Zm6.56-70c-.06,2.14-2.69,1.7-4.38,2.19C864.26,364.85,866.87,365.28,868.58,364.79Zm2.18,24.08c-5.77.67-5.64-4.57-6.56-8.75C870,379.45,871.38,383.15,870.76,388.87Zm-2.18,46c-6.73-1.53-4.21-1.53-10.94,0C855.91,425.6,869.37,427.36,868.58,434.83ZM862,419.5h-6.58v-4.37H862Zm-6.58-10.94c-.05,2.14-2.68,1.7-4.36,2.19C851.12,408.63,853.75,409.05,855.44,408.56Zm-4.36,8.76c-7.61,1.91-7.53-3.37-4.38-6.57C849.39,411.72,851.18,413.55,851.08,417.32Zm-6.59-111.61c.43-2.49,2.21-1.22,2.21,0C846.27,308.19,844.49,306.93,844.49,305.71Zm-2.18-15.33c2.7,1,4.49,2.8,4.39,6.58C839.09,298.86,839.17,293.58,842.31,290.38Zm-4.38,46c12.83,2.92-7.93,10.34,0,0ZM835.75,402c3.91-.28,4.62,2.68,8.74,2.19-1.43,2.94-4.68,4.07-8.74,4.37Zm8.74,76.6c-.51,3.85-3.76,5-8.74,4.38C833.55,476.4,840.63,479.1,844.49,478.6ZM759.15,108.74c-.42,2.48-2.2,1.22-2.2,0C757.38,106.25,759.15,107.52,759.15,108.74ZM748.21,255.37c.34,6.17-6.2,5.49-8.76,8.76,2.82,5.16-.28,4.07,2.2,10.94-6,1.59-4.42-4.35-8.76-4.38-5.45.23-6.78,4.1-10.94,0,.61-4.5,5.83-4.37,8.76-6.56.85-5.25-10,1.21-6.59-6.57C734.57,259.25,738.21,254.14,748.21,255.37Zm-19.7,63.47c-.86-4.25,10-3.21,6.56,2.18h-4.36C731.09,319.16,729.85,319,728.51,318.84Zm-8.74,10.94V325.4c1.86.41,2.05-.85,2.18-2.19h4.38v4.38c-1.86-.4-2.08.86-2.21,2.19h4.39v4.37h-4.39v-4.37Zm-10.95-74.41c.41-2.48,2.18-1.21,2.18,0C710.58,257.86,708.8,256.58,708.82,255.37ZM711,266.31c-.42,2.49-2.2,1.22-2.18,0C709.23,263.83,711,265.1,711,266.31Zm-4.38-32.83c.53-2.75,4.36-2.2,4.38,0C709.06,234.83,707.09,236.13,706.62,233.48ZM711,283.82v4.37h-4.38v-4.37Zm-6.56-6.57c-1.13-1.12,1.58-2.79,2.18-2.18C707.75,276.2,705,277.86,704.44,277.25Zm-2.2-6.56c-1.13-1.13,1.58-2.79,2.2-2.19C705.58,269.63,702.86,271.3,702.24,270.69Zm0,19.69h4.38v4.38h-4.38Zm2.2,37.21h8.74V332h-8.74Zm8.74,6.56c4.68-1,4.17,3.14,4.38,6.58-1.77-.42-2.18-2.21-4.38-2.19Zm0-15.31v-4.38h4.38v4.38Zm0-32.83v-4.38h4.38V286Zm2.2-50.34c-1.13-1.13,1.59-2.79,2.18-2.19C718.7,234.61,716,236.28,715.38,235.67Zm8.74-6.56c5,3.09-.14,14.26-6.56,13.13C719.66,237.76,722,233.58,724.12,229.11Zm-4.35,24.08c-.43,2.47-2.21,1.2-2.21,0C718,250.69,719.77,252,719.77,253.19ZM722,301.33c1.13,1.13-1.59,2.8-2.18,2.19C718.63,302.38,721.35,300.73,722,301.33Zm8.76,43.77c-4.68,1-4.17-3.12-4.38-6.56C729,339.49,730.81,341.33,730.71,345.1Zm6.56-56.91c4.66-1,4.17,3.13,4.38,6.57-3.12-.19-6.2-.36-6.58,2.2-1.86.39-2.05-.86-2.18-2.2v-4.38c1.86-.39,2.07.86,2.18,2.19C737.21,292.51,736.78,289.89,737.27,288.19Zm-2.2-4.37v-4.38h4.38v4.38Zm10.94,35v4.37h-4.36v-4.37Zm-15.3-35c-1.14-1.13,1.58-2.8,2.18-2.19C734,282.77,731.31,284.43,730.71,283.82Zm6.56,54.72c2.07,4.5,11.26,1.85,10.94,8.75-9.4-2.49-7.2-1.35-15.32,2.19C732.55,344,736.33,342.7,737.27,338.54ZM732.89,216c-1.48,5.08-7.27,5.85-8.77,10.94-4.74.37-1-7.76-2.17-10.94C728.68,217.5,726.16,217.5,732.89,216Zm-13.12-76.6c4.25-1.08,7.86,10.85,0,8.75C723.4,143.78,719.55,145.35,719.77,139.38ZM722,167.82c1.13,1.14-1.59,2.8-2.18,2.19C718.63,168.88,721.35,167.23,722,167.82Zm-6.57-37.19c-1.13-1.14,1.59-2.8,2.18-2.2C718.7,129.57,716,131.23,715.38,130.63Zm2.18-8.76c-.34,2.57-4,1.84-6.56,2.18C711.34,121.49,715,122.21,717.56,121.87ZM715.38,135c-.06,2.13-2.69,1.69-4.38,2.19C711.07,135.06,713.67,135.49,715.38,135ZM711,211.59c1.14,1.14-1.58,2.8-2.18,2.2C707.69,212.65,710.4,211,711,211.59Zm-2.18-46c1.13,1.14-1.6,2.79-2.2,2.18C705.49,166.7,708.2,165,708.82,165.64Zm-2.2,96.3c1.13,1.13-1.58,2.79-2.18,2.19C703.31,263,706,261.33,706.62,261.94Zm-2.18-83.17c-.06,2.13-2.69,1.69-4.38,2.19C700.12,178.83,702.73,179.26,704.44,178.77Zm-6.56,46c1.13,1.13-1.6,2.8-2.2,2.19C694.54,225.78,697.26,224.13,697.88,224.73Zm2.18,111.61c0,5.17,3.76,6.45,2.18,13.14-4.17-.93-4-6.25-10.94-4.38C691.57,339.53,694.48,336.61,700.06,336.34Zm-6.56-2.19q.57,7.17-6.56,6.58Q686.33,333.56,693.5,334.15Zm-8.76-15.31h4.38v4.37h-4.38Zm0,6.56q7.17-.58,6.56,6.56Q684.15,332.58,684.74,325.4Zm-4.39,4.38H676V325.4c1.86.41,2.06-.85,2.18-2.19C682.73,324.44,682.81,326.63,680.35,329.78Zm0-48.15c0,2.13-2.67,1.7-4.36,2.19C676,281.7,678.67,282.12,680.35,281.63Zm-8.74-28.44H676v4.37h-4.38Zm-2.2-24.08c7.63,10.25-11,8.81,0,0Zm-6.56,85.35v-4.38h4.38v4.38Zm2.2,4.38v4.37h-4.38v-4.37Zm4.36-28.46c1.14,1.14-1.58,2.8-2.18,2.19C666.1,291.44,668.81,289.79,669.41,290.38Zm-8.74-32.82c5.17,2.85,4.21,11.82,6.56,17.51-3.93-.28-4.61,2.67-8.76,2.18-.79-3.72,1.71-4.13,4.38-4.37C661.72,263.28,662.17,265.69,660.67,257.56Zm-2.2-13.14c1.13,1.14-1.58,2.8-2.18,2.19C655.16,245.48,657.87,243.82,658.47,244.42Zm0,8.77c0,2.12-2.67,1.69-4.36,2.18C654.15,253.24,656.78,253.68,658.47,253.19Zm0,50.33c-2,1.34-3.91,2.65-4.36,0C654.64,300.76,658.45,301.3,658.47,303.52Zm-6.56,32.82c-.41,2.5-2.2,1.22-2.18,0C650.13,333.87,651.91,335.13,651.91,336.34Zm-2.18-91.92c1.13,1.14-1.58,2.8-2.2,2.19C646.39,245.48,649.11,243.82,649.73,244.42Zm-13.15-2.18v-4.38h8.77v4.38Zm8.77,21.89c-.43,2.48-2.21,1.21-2.18,0C643.57,261.64,645.35,262.91,645.35,264.13ZM638.79,321h4.38v4.38h-4.38Zm-2.21-61.27v-6.56C643,250,643,263,636.58,259.75Zm6.59-72.22c1.13,1.13-1.61,2.79-2.21,2.18C639.83,188.59,642.55,186.92,643.17,187.53Zm-4.38-37.21c-.43,2.49-2.21,1.22-2.21,0C637,147.84,638.79,149.1,638.79,150.32Zm-2.21,81c3.42,7.78-7.41,1.32-6.56,6.56-2.93-1.44-4.08-4.68-4.38-8.75,2.14,0,1.71,2.68,2.2,4.37C631.75,233.76,632.46,230.81,636.58,231.3Zm-8.74,67.84c-1.13-1.13,1.58-2.79,2.18-2.18C631.16,298.09,628.44,299.74,627.84,299.14Zm-4.38-39.39c-1.13-1.14,1.58-2.79,2.18-2.19C626.77,258.69,624.06,260.35,623.46,259.75Zm2.18,39.39v4.38h-4.36v-4.38ZM623.46,154.7c6.16-.32,6.31,5.35,6.56,10.94C625.3,164,617.8,160.32,623.46,154.7Zm-2.18,133.49c1.13,1.14-1.6,2.8-2.2,2.19C618,289.25,620.66,287.6,621.28,288.19Zm-2.2,17.52c-.53,2.74-4.34,2.2-4.38,0C615.68,302.52,616.62,305.93,619.08,305.71Zm13.14,19.69c-3.18,6.49-8.54-2.88-15.32,0,.19-3.11.36-6.2-2.2-6.56C619.23,313.75,625.9,325,632.22,325.4Zm-13.14,4.38c-.41,2.48-2.2,1.21-2.18,0C617.31,327.29,619.08,328.56,619.08,329.78Zm-4.38,17.51c1.13,1.13-1.58,2.8-2.18,2.19C611.38,348.34,614.1,346.68,614.7,347.29Zm-2.18-13.14c-.43,2.49-2.2,1.22-2.18,0C610.74,331.67,612.52,333,612.52,334.15ZM606,251c1.13,1.14-1.59,2.79-2.2,2.2C602.62,252.05,605.34,250.39,606,251Zm0,6.57c1.13,1.13-1.59,2.79-2.2,2.19C602.62,258.61,605.34,257,606,257.56Zm-11,83.17c3.53,2.14,5,5.83,2.18,8.75C594.22,348.8,595.38,344,595,340.73Zm-2.2-30.65c1.46-2.93,4.68-4.07,8.77-4.37v8.75C598.33,313.32,596.06,311.22,592.81,310.08Zm-6.56,32.83c-4.57.93-5.79-1.5-8.74-2.18,1.41-2.24,5-2.27,4.36-6.58C588.45,332,585.76,339,586.25,342.91Zm-8.74-41.58c1.13,1.13-1.6,2.8-2.2,2.19C574.18,302.38,576.89,300.73,577.51,301.33Zm0-15.32c1.13,1.14-1.6,2.79-2.2,2.18C574.18,287.07,576.89,285.4,577.51,286ZM579.69,332c-.43,2.49-2.2,1.22-2.18,0C577.92,329.48,579.69,330.76,579.69,332Zm0,15.33c-.06,2.12-2.67,1.7-4.38,2.19C575.37,347.35,578,347.78,579.69,347.29Zm0-19.7c.06-2.12,2.67-1.7,4.38-2.19C584,327.53,581.38,327.1,579.69,327.59Zm-28.45-54.71c-.66-4.46-4.39-5.83-6.57-8.75.51-6.79,7.77-6.83,13.14-8.76.64-6.66-.35-14.93,6.56-15.32.1,3.74-1.63,5.67-4.39,6.56,3.45,5.33,9.32,8.2,17.53,8.76-.7,5.07.34,8.41,2.18,10.94,5.15.05,6.43-3.76,13.12-2.18-2.69,7.07,7.1,1.67,4.38,8.75C578.45,269.45,571.38,272.52,551.24,272.88ZM564.37,321c-1.14-1.12,1.58-2.79,2.2-2.18C567.7,320,565,321.63,564.37,321Zm-2.18,32.83c-1.14-1.12,1.58-2.79,2.18-2.18C565.5,352.8,562.78,354.46,562.19,353.85Zm2.18-39.39c.77-2.87,3.84-3.44,4.38-6.56C574.2,308.78,568.88,316.38,564.37,314.46Zm4.38,26.27c1.13,1.13-1.58,2.78-2.18,2.18C565.43,341.78,568.15,340.12,568.75,340.73Zm0-4.39c-1.14-1.13,1.58-2.78,2.18-2.19C572.06,335.29,569.35,337,568.75,336.34Zm-10.94,2.2c9.48.9-2.31,12.69,0,0Zm0-21.89c.4-2.49,2.2-1.22,2.17,0C559.58,319.13,557.81,317.87,557.81,316.65Zm-10.95-39.4h8.77C558.17,284.85,543.39,287.43,546.86,277.25Zm8.77,48.15c-1.18,3.37-2.29.14-2.21-2.19C554.58,319.85,555.71,323.07,555.63,325.4ZM549,312.27c-1.13-1.13,1.58-2.79,2.2-2.19C552.38,311.21,549.66,312.88,549,312.27Zm-8.75-153.2c-4.79,4.55,1.92,7.08-2.18,10.94C531.93,170.16,534.06,158.77,540.29,159.07Zm-2.18-15.31c1.13,1.13-1.59,2.79-2.19,2.18C534.79,144.82,537.5,143.15,538.11,143.76Zm0,76.6c0-2.14,2.67-1.7,4.37-2.19C542.43,220.29,539.8,219.86,538.11,220.36Zm4.37,81c-.41,2.49-2.19,1.22-2.19,0C540.71,298.85,542.49,300.12,542.48,301.33Zm-4.37-94.11c-1.13-1.13,1.58-2.8,2.18-2.19C541.42,206.17,538.71,207.83,538.11,207.22Zm-2.19-24.07c1.13,1.13-1.58,2.8-2.19,2.19C532.6,184.2,535.31,182.54,535.92,183.15Zm-2.19,8.75c1.13,1.13-1.58,2.8-2.19,2.19C530.41,193,533.12,191.3,533.73,191.9Zm0,61.29c1.13,1.13-1.58,2.78-2.19,2.18C530.41,254.24,533.12,252.58,533.73,253.19Zm-4.38-26.27c-1.14-1.14,1.59-2.79,2.19-2.19C532.67,225.86,530,227.53,529.35,226.92Zm-2.18-43.77c-2.7-5.53,3.2.63,4.37,4.38C532.3,189.94,529.47,187.86,527.17,183.15Zm0,24.07c6.66-6-6,6.66,0,0Zm0,46c-2,1.34-3.92,2.63-4.38,0C523.33,250.43,527.13,251,527.17,253.19Zm2.18,63.46c-.05,2.13-2.67,1.7-4.37,2.19C525,316.7,527.66,317.14,529.35,316.65Zm-6.56-72.23c7.34-5.29-5.29,7.34,0,0ZM525,277.25c-.42,2.49-2.2,1.22-2.19,0C523.2,274.77,525,276,525,277.25Zm0,59.09c1.86.41,2.06-.85,2.19-2.19h4.37v4.39c-1.86-.41-2.06.85-2.19,2.19H525Zm4.37-63.46c-1.14-1.13,1.59-2.8,2.19-2.19C532.67,271.82,530,273.49,529.35,272.88Zm0-10.94c2.83-5.47,10.61,2.31,8.76,8.75C534.73,268.22,532.72,264.41,529.35,261.94Zm8.76,35c-.54,2.74-4.36,2.2-4.38,0C534.7,293.77,535.65,297.17,538.11,297Zm-4.38-13.14c1-3.18,1.92.23,4.38,0C537.57,286.57,533.75,286,533.73,283.82Zm2.19,24.08c-1.13-1.14,1.58-2.8,2.19-2.19C539.24,306.84,536.52,308.5,535.92,307.9Zm0,6.56c-1.13-1.13,1.58-2.79,2.19-2.19C539.24,313.4,536.52,315.07,535.92,314.46Zm-2.19-37.21c-6-6.66,6.66,6,0,0Zm4.38,46c-2.69-.95-4.5-2.8-4.38-6.56C536.42,317.6,538.23,319.45,538.11,323.21Zm2.18,13.13c1.13,1.14-1.58,2.8-2.18,2.2C537,337.4,539.69,335.74,540.29,336.34Zm2.19,2.2h4.38c1,4.67-3.13,4.16-6.57,4.37C540.71,341.14,542.49,340.73,542.48,338.54Zm17.5-116c-1.13-1.13,1.59-2.79,2.21-2.18C563.32,221.49,560.6,223.15,560,222.54Zm0,6.57c-1.13-1.13,1.59-2.8,2.21-2.19C563.32,228.05,560.6,229.72,560,229.11Zm0-74.41c-1.13-1.13,1.59-2.8,2.21-2.19C563.32,153.64,560.6,155.3,560,154.7Zm0,52.52c1.14,1.14-1.58,2.79-2.17,2.19C556.67,208.28,559.39,206.62,560,207.22Zm-6.56,21.89c1-3.19,1.93.22,4.39,0C557.27,231.86,553.45,231.31,553.42,229.11Zm-2.18,6.56c-1.13-1.13,1.59-2.79,2.18-2.19C554.56,234.61,551.84,236.28,551.24,235.67Zm4.39-35c-1.14-1.12,1.58-2.79,2.18-2.18C558.94,199.61,556.22,201.26,555.63,200.65Zm0,19.71v4.37h-4.39v-4.37Zm-4.39-32.83c-1.13-1.13,1.59-2.8,2.18-2.19C554.56,186.47,551.84,188.13,551.24,187.53Zm0,13.12c-1.34,2-2.65,3.92,0,4.38-6.65,6.6-1.22-4.87-4.38-6.56C541.66,194.07,549.3,199.43,551.24,200.65Zm17.51,24.08c1.13,1.13-1.58,2.8-2.18,2.19C565.43,225.78,568.15,224.13,568.75,224.73Zm-2.18-37.2c.4-2.49,2.18-1.22,2.18,0C568.32,190,566.55,188.74,566.57,187.53Zm4.36,52.52c.42-2.49,2.2-1.22,2.2,0C572.7,242.53,570.93,241.27,570.93,240.05Zm15.32-15.32c4.45,1.59,8.94,6.59,4.38,10.94-2.14,0-1.68-2.67-2.18-4.37a10.39,10.39,0,0,1-6.58,2.18C579.18,226.41,589,231.81,586.25,224.73Zm-4.38-32.83c.56-2.37,4.36-1.49,4.38-4.37C595.06,189.12,586.38,197.8,581.87,191.9Zm2.2,65.66c-.06-.06-3.12,7.82-4.38,6.57C577.13,261.55,582,255.45,584.07,257.56Zm6.56,32.82c-.42,2.49-2.2,1.22-2.18,0C588.86,287.9,590.63,289.18,590.63,290.38Zm2.18,50.35c1.14,1.13-1.58,2.78-2.18,2.18C589.5,341.78,592.22,340.12,592.81,340.73Zm6.59-197c1.13,1.13-1.61,2.79-2.21,2.18C596.06,144.82,598.78,143.15,599.4,143.76Zm-2.21,96.29c1.14,1.14-1.58,2.79-2.18,2.19C593.88,241.11,596.6,239.44,597.19,240.05Zm-6.56,6.56c-1.13-1.13,1.59-2.79,2.18-2.19C594,245.56,591.23,247.22,590.63,246.61Zm2.18-48.14c-.4,2.48-2.18,1.21-2.18,0C591,196,592.83,197.25,592.81,198.47Zm-2.18-52.53c1.14,1.13-1.58,2.8-2.18,2.19C587.32,147,590,145.34,590.63,145.94Zm0,35c1.14,1.13-1.58,2.8-2.18,2.19C587.32,182,590,180.36,590.63,181Zm-8.76-43.77h4.38v4.38h-4.38Zm2.2,21.88c.41,1.86-.85,2.06-2.2,2.19,1.43,2.23,5,2.27,4.38,6.56-5-2.32-8-6.63-8.74-13.12C579.73,156.12,579.75,159.74,584.07,159.07Zm-4.38,81c1.13,1.14-1.58,2.79-2.18,2.19C576.38,241.11,579.09,239.44,579.69,240.05Zm-6.56-102.86c-.43,2.49-2.2,1.22-2.2,0C571.35,134.71,573.13,136,573.13,137.19Zm0,41.58c1.13,1.13-1.58,2.8-2.2,2.19C569.8,179.82,572.51,178.17,573.13,178.77Zm0,26.26c6.73-4-.53,3.23-2,4.25.1-.64-2.25-3.39-2.41-2.06C569.09,204.66,571.35,206.1,573.13,205Zm-4.38-26.26c1.13,1.13-1.58,2.8-2.18,2.19C565.43,179.82,568.15,178.17,568.75,178.77Zm-2.18-19.7c1.13,1.14-1.61,2.8-2.2,2.19C563.23,160.13,566,158.47,566.57,159.07Zm0,56.91c1.13,1.13-1.61,2.79-2.2,2.19C563.23,217,566,215.37,566.57,216Zm-4.38-76.6c1.13,1.13-1.59,2.8-2.21,2.19C558.85,140.43,561.57,138.77,562.19,139.38ZM560,143.76c1.14,1.13-1.58,2.79-2.17,2.18C556.67,144.82,559.39,143.15,560,143.76Zm-6.56,0c1.14,1.13-1.58,2.79-2.18,2.18C550.11,144.82,552.83,143.15,553.42,143.76Zm-2.18,8.75c2.87.77,3.44,3.85,6.57,4.37C556.91,162.34,549.32,157,551.24,152.51Zm0,26.26c1.14,1.13-1.58,2.8-2.2,2.19C547.91,179.82,550.62,178.17,551.24,178.77Zm-4.38-32.83c1.14,1.13-1.58,2.8-2.19,2.19C543.54,147,546.25,145.34,546.86,145.94Zm-4.38,30.65c-.41,2.48-2.19,1.2-2.19,0C540.71,174.1,542.49,175.37,542.48,176.59ZM529.35,135c4.22-4.26,13.4-2.29,10.94,6.57C534,142,528.35,141.83,529.35,135Zm0,41.59c-3.62-2.22-2.37-9.3-4.37-13.14C530.57,163.7,529.31,170.78,529.35,176.59Zm-2.18-17.52c-7.95,2.11-1.84-9.83-8.77-8.75-.39-1.86.86-2.06,2.2-2.19H525C519.62,153.29,528.25,152.2,527.17,159.07ZM518.4,294.76c-1.12-1.13,1.6-2.79,2.2-2.19C521.73,293.71,519,295.37,518.4,294.76ZM520.6,135c1.13,1.13-1.59,2.79-2.2,2.19C517.28,136.05,520,134.4,520.6,135Zm-2.2,32.82c1.14,1.14-1.58,2.8-2.17,2.19C515.09,168.88,517.81,167.23,518.4,167.82Zm0,37.21c1.14,1.14-1.58,2.8-2.17,2.19C515.09,206.09,517.81,204.42,518.4,205ZM511.84,216c-1.15,3.36-2.28.14-2.19-2.19C510.82,210.42,511.94,213.65,511.84,216Zm6.56,15.32c2.72,7.07-7.07,1.67-4.37,8.75-5.27-3.36-1.06-12.83-4.38-13.13C512.92,219.69,512.23,234.24,518.4,231.3Zm-6.56,24.07c2.88-6.18,12.2,10.86,0,8.76-.62-3.54,2.08-3.78,2.19-6.57C514.44,255.7,513.18,255.49,511.84,255.37Zm0,96.3c1.14,1.13-1.58,2.79-2.19,2.18C508.52,352.73,511.24,351.06,511.84,351.67Zm-15.32-28.46c1.13,1.14-1.58,2.8-2.18,2.19C493.21,324.27,495.92,322.61,496.52,323.21Zm-4.37-124.74c7.34-5.29-5.29,7.34,0,0Zm6.56,140.07c-.42,2.48-2.19,1.21-2.19,0C496.94,336.05,498.72,337.32,498.71,338.54Zm-2.19-24.08c.54-2.76,4.36-2.21,4.38,0C499.93,317.64,499,314.23,496.52,314.46Zm0-124.75c.42-2.48,2.2-1.21,2.19,0C498.29,192.2,496.52,190.93,496.52,189.71Zm2.19,46c2.09,1.57,7.86,1.05,6.57,0C510.26,239.72,497.78,244.61,498.71,235.67Zm4.38-15.31c1.14,1.13-1.58,2.79-2.19,2.18C499.77,221.41,502.48,219.75,503.09,220.36Zm2.19-11c6.66-6-6,6.66,0,0Zm2.18,72.22c-.4,2.49-2.19,1.22-2.18,0C505.7,279.15,507.47,280.41,507.46,281.63Zm-4.37,52.52c7.34-5.29-5.29,7.35,0,0Zm4.37,8.76c1.14,1.13-1.58,2.8-2.18,2.19C504.15,344,506.86,342.31,507.46,342.91Zm0-162c-1,3.18-1.91-.23-4.37,0C503.64,178.21,507.44,178.76,507.46,181Zm-2.18-26.26c-.06,2.13-2.68,1.7-4.38,2.18C501,154.75,503.58,155.19,505.28,154.7Zm0,13.12c-1.6,7.56-6.59,1.47-10.94,0C497.87,164.35,501.26,167,505.28,167.82Zm-10.94-17.5c1.13,1.13-1.58,2.8-2.19,2.19C491,151.38,493.73,149.71,494.34,150.32Zm0,24.08c2.87.77,3.44,3.84,6.56,4.37-1.48,8.18-7.28-1.62-8.75,6.57C484.91,182.06,496.69,180,494.34,174.4Zm-4.38,0c1.13,1.13-1.58,2.78-2.19,2.19C486.63,175.45,489.35,173.79,490,174.4Zm4.38,37.19c-.61,5.08-5.85,5-8.76,2.2C486.26,210.82,491.06,212,494.34,211.59ZM483.4,181c1.13,1.13-1.59,2.8-2.19,2.19C480.07,182,482.79,180.36,483.4,181Zm0-8.75c1.13,1.13-1.59,2.79-2.19,2.19C480.07,173.26,482.79,171.6,483.4,172.21Zm0,17.5c-.42,2.49-2.2,1.22-2.19,0C481.62,187.23,483.4,188.5,483.4,189.71Zm-2.19,67.85c1.59-5.12,10.27,5.61,4.37,8.75C479.64,267.88,487.15,256,481.21,257.56Zm4.37,81c-.54,2.74-4.35,2.2-4.37,0C482.18,335.35,483.13,338.76,485.58,338.54ZM483.4,248.8c3.3-7.72,4.14,4,2.18,4.39C484.28,253.41,482.83,250.11,483.4,248.8Zm4.37-24.07c6.66-6-6,6.66,0,0Zm-4.37-15.32c-1.14-1.13,1.58-2.79,2.18-2.19C486.71,208.36,484,210,483.4,209.41Zm-2.19-65.65c-.07,2.13-2.69,1.7-4.38,2.18C476.89,143.81,479.51,144.25,481.21,143.76Zm4.37,19.69c-4.49,1.9-4.36-11.13-6.56-4.38-6-2,4.27-8.06-4.39-8.75C480.39,144,483.2,159.14,485.58,163.45ZM479,345.1c-1.59,14.92-12.12-8.06,0,0Zm-8.76-19.7V321h6.57v4.38Zm6.57-46c-1.14-1.13,1.58-2.79,2.19-2.19C480.15,278.38,477.43,280.05,476.83,279.44Zm-6.57-142.25c-.41,2.49-2.2,1.22-2.19,0C468.49,134.71,470.26,136,470.26,137.19Zm-2.19,13.13c-.54,2.76-4.35,2.21-4.38,0C464.66,147.14,465.62,150.55,468.07,150.32Zm-4.38,122.56c-.4,2.48-2.19,1.22-2.18,0C461.93,270.39,463.7,271.66,463.69,272.88Zm-6.56-116h4.38v4.38h-4.38Zm2.19,148.83c1.13,1.13-1.58,2.79-2.19,2.19C456,306.76,458.71,305.1,459.32,305.71Zm-2.19,39.39c-1,3.18-1.92-.23-4.38,0C453.29,342.35,457.11,342.9,457.13,345.1Zm-2.19-28.45c1.13,1.13-1.58,2.79-2.19,2.19C451.63,317.71,454.34,316,454.94,316.65Zm0-15.32c1.13,1.13-1.58,2.8-2.19,2.19C451.63,302.38,454.34,300.73,454.94,301.33Zm-2.19-19.7c-1.7,4-2.35-1.31-2.18-4.38C452.27,273.26,452.92,278.57,452.75,281.63ZM439.63,172.21v-6.57C446,162.43,446,175.42,439.63,172.21Zm2.18-15.33c.41-2.48,2.2-1.21,2.19,0C443.58,159.37,441.81,158.1,441.81,156.88ZM444,176.59c-.42,2.48-2.19,1.2-2.19,0C442.22,174.1,444,175.37,444,176.59Zm0,96.29c3.26,1.85,3.17,7,4.38,10.94C441,286.07,445,277,444,272.88Zm4.38-15.32c1.13,1.13-1.58,2.79-2.19,2.19C445.05,258.61,447.77,257,448.38,257.56Zm-2.19,37.2c-1.14-1.13,1.58-2.79,2.19-2.19C449.51,293.71,446.8,295.37,446.19,294.76Zm2.19,8.76c-.06,2.12-2.68,1.7-4.38,2.19C444.06,303.58,446.68,304,448.38,303.52Zm2.19,21.88c-1,3.19-1.92-.22-4.38,0C446.73,322.64,450.54,323.19,450.57,325.4ZM448.38,321c-1.14-1.12,1.58-2.79,2.19-2.18C451.7,320,449,321.63,448.38,321Zm4.37-54.71h-4.37v-4.37h4.37Zm-2.18-124.74c-.06,2.13-2.68,1.7-4.38,2.19C446.25,141.62,448.87,142.06,450.57,141.57Zm-13.13,4.37c4.17.93,9.41.8,8.75,6.57C444.57,149,435.48,153,437.44,145.94Zm-4.39,26.27c4.14.24,1.52,7.23,6.58,6.56C437.66,184.68,430.73,177.75,433.05,172.21ZM428.68,251c7.58,14.15-4.7,16.49,0,0Zm0-4.38c.42-2.48,2.19-1.21,2.18,0C430.46,249.1,428.67,247.83,428.68,246.61Zm8.76,30.64c-4.33-1.51-5.84-5.83-6.58-10.94C432.94,270.08,439,269.9,437.44,277.25ZM435.25,216c.54-2.76,4.34-2.22,4.38,0C437.67,217.32,435.7,218.63,435.25,216Zm-8.76-26.27c.92-4.18.79-9.42,6.56-8.75C432.07,184.07,422.35,195.29,426.49,189.71Zm-4.38,122.56v-6.56C428.5,302.49,428.5,315.49,422.11,312.27Zm2.19-56.9c1.14,1.13-1.58,2.79-2.19,2.19C421,256.42,423.69,254.77,424.3,255.37Zm-2.19-61.28c1.14,1.13-1.58,2.8-2.19,2.19C418.8,195.15,421.51,193.48,422.11,194.09Zm0,10.94c1.14,1.14-1.58,2.8-2.19,2.19C418.8,206.09,421.51,204.42,422.11,205Zm-2.19,24.08c-.05,2.13-2.67,1.7-4.37,2.19C415.6,229.16,418.23,229.6,419.92,229.11Zm-4.37-43.77c-1.13-1.14,1.58-2.8,2.19-2.19C418.87,184.28,416.16,186,415.55,185.34Zm2.19-6.57c-1,3.18-1.92-.22-4.38,0C413.9,176,417.71,176.56,417.74,178.77Zm-6.57,81c-1.13-1.14,1.58-2.79,2.19-2.19C414.49,258.69,411.78,260.35,411.17,259.75Zm2.19-105c.93,2.9,2.82,13.8,0,17.51-7,.17-.5-8.59-4.38-15.33C411.53,157.24,412.88,156.4,413.36,154.7Zm-2.19-4.38c1.13,1.13-1.58,2.8-2.19,2.19C407.86,151.38,410.57,149.71,411.17,150.32ZM409,189.71c8.85,3.22-1.26,8.08-6.56,4.38.54-2.76,4.35-2.21,4.38,0C408.93,194,408.5,191.41,409,189.71Zm-4.37,67.85c.05-2.13,2.68-1.7,4.37-2.19C408.93,257.5,406.31,257.06,404.61,257.56Zm0,89.73c-1.14-1.14,1.58-2.79,2.19-2.19C407.93,346.23,405.22,347.9,404.61,347.29ZM406.8,181c1.13,1.13-1.58,2.8-2.19,2.19C403.47,182,406.19,180.36,406.8,181Zm-4.38-13.14c-4-7,9.58,11.38,0,0Zm0,135.7c1.13,1.13-1.58,2.8-2.19,2.19C399.09,304.57,401.81,302.91,402.42,303.52ZM398,316.65c6.65-6-6,6.66,0,0Zm-2.18,30.64c-1.14-1.14,1.58-2.79,2.18-2.19C399.17,346.23,396.45,347.9,395.86,347.29Zm4.37-102.87h-4.37v-4.37h4.37Zm-6.56-85.35c1.13,1.14-1.59,2.8-2.2,2.19C390.34,160.13,393.06,158.47,393.67,159.07Zm2.19,8.75c-3.21,9.73,0,12.85,0,24.08-7.28-3.67-4-17.92-6.58-26.26C392.82,165,393.06,167.71,395.86,167.82Zm-10.95,43.77c8.38.83,3.43,14.94,13.13,8.77-2.88,15.51-9.84,2.72-17.51,0C378.94,214.38,384.88,215.94,384.91,211.59Zm6.56,127c-1.13-1.14,1.59-2.8,2.2-2.2C394.8,337.48,392.08,339.14,391.47,338.54Zm-2.19-35c-4.67,1-4.16-3.13-4.37-6.56C387.61,297.91,389.4,299.75,389.28,303.52ZM382.72,286v4.37h-4.38V286Zm-4.38-162c-.41,2.49-2.19,1.22-2.19,0C376.57,121.57,378.35,122.85,378.34,124.05ZM374,119.68c1.13,1.14-1.58,2.79-2.19,2.19C370.65,120.74,373.36,119.07,374,119.68Zm-4.38,6.56c1.67,3.44,7,3.27,6.56,8.76C370.39,135.66,369,132,369.59,126.24ZM374,266.31c-.41,2.49-2.2,1.22-2.19,0C372.2,263.83,374,265.1,374,266.31Zm-2.19,10.94c1.13,1.13-1.58,2.8-2.19,2.19C368.46,278.31,371.17,276.65,371.78,277.25Zm-17.51-10.94c.41-1.77,2.2-2.18,2.19-4.37-.5-3.15-6.53-.77-6.57-4.38v-4.37C355.24,254.81,366.65,266.08,354.27,266.31Zm-2.18-146.63H347.7V115.3h4.39Zm-4.39-8.75c-1.73,7.67-7.65,2.52-10.94,0C338.35,109.13,343.34,108.28,347.7,110.93Zm-6.56,41.58c-1.13-1.13,1.59-2.8,2.18-2.19C344.46,151.45,341.74,153.12,341.14,152.51ZM339,183.15c-1.13-1.14,1.58-2.79,2.19-2.19C342.28,182.09,339.56,183.76,339,183.15Zm0,109.42c-.41,2.49-2.2,1.22-2.19,0C337.18,290.09,339,291.36,339,292.57Zm-6.57-188.21c1.13,1.13-1.58,2.8-2.18,2.19C329.07,105.42,331.78,103.76,332.38,104.36ZM330.2,297c-1.13-1.14,1.58-2.8,2.18-2.2C333.51,295.9,330.8,297.55,330.2,297Zm0-17.52c1.13,1.13-1.58,2.8-2.19,2.19C326.88,280.5,329.59,278.84,330.2,279.44Zm-4.38-78.79c1.13,1.14-1.58,2.8-2.19,2.19C322.49,201.71,325.21,200.05,325.82,200.65Zm0,78.79c-1.95,1.35-3.91,2.65-4.38,0C322,276.69,325.8,277.24,325.82,279.44ZM306.12,216c2-3.86,8.06-3.62,8.76-8.76-1.91-6.46-3.28,5.08-8.76,2.19-1.69-1.95-2.35-4.94-2.19-8.76,3.11.19,6.2.36,6.56-2.18,3,2.15,4.39,5.84,6.58,8.75C317.1,214.1,310.69,220.28,306.12,216Zm8.76,94.1c-1,3.18-1.93-.22-4.39,0C311,307.33,314.85,307.88,314.88,310.08Zm-13.14-76.6c-1.65-3.32,1.38-1.62,2.19,0,1.48,3-1.46,4.9-2.19,2.19C301.58,235.06,302,234.05,301.74,233.48Zm2.19,37.21c8.09,6.63-6.64,7.37,0,0Zm0-43.77h-4.38c.41-1.86-.84-2.06-2.18-2.19C296.5,220.49,307.33,221.53,303.93,226.92Zm-6.56,39.39c-.41,2.49-2.2,1.22-2.19,0C295.6,263.83,297.37,265.1,297.37,266.31Zm10.94,98.48c2.2,10.23-3.81,12.24-13.13,10.94C292,364.67,304.09,361.67,308.31,364.79Zm-4.38-19.69c.42-2.48,2.2-1.21,2.19,0C305.71,347.59,303.92,346.32,303.93,345.1Zm4.38-2.19c.06-2.13,2.68-1.69,4.38-2.18C312.63,342.85,310,342.42,308.31,342.91Zm6.57,6.57c1.13,1.13-1.59,2.79-2.19,2.19C311.55,350.54,314.27,348.87,314.88,349.48Zm-13.14-13.14c-.39-1.86.86-2.06,2.19-2.19-.41-2.48-2.19-1.2-2.19,0-5.44-.33-.64-7.4,0-8.75,6.2.37,9.13,4,15.33,4.38C316.54,341.4,308.09,331.47,301.74,336.34Zm13.14-30.63c-1.14-1.14,1.58-2.8,2.19-2.19C318.2,304.65,315.48,306.32,314.88,305.71Zm0-83.17c1-3.18,1.92.22,4.38,0C318.71,225.29,314.9,224.75,314.88,222.54Zm-2.19-30.64c1-3.17,1.92.23,4.38,0C316.52,194.66,312.72,194.11,312.69,191.9Zm2.19-32.83c1.13,1.14-1.59,2.8-2.19,2.19C311.55,160.13,314.27,158.47,314.88,159.07Zm-2.19-15.31c1.13,1.13-1.59,2.79-2.2,2.18C309.37,144.82,312.09,143.15,312.69,143.76Zm-2.2-24.08c1.14,1.14-1.58,2.79-2.18,2.19C307.18,120.74,309.9,119.07,310.49,119.68Zm-6.56,41.58h4.38v4.38h-4.38Zm2.19,11c1.14,1.13-1.58,2.79-2.19,2.19C302.8,173.26,305.52,171.6,306.12,172.21Zm-4.38-41.58c1.14,1.13-1.58,2.78-2.19,2.19C298.43,131.68,301.15,130,301.74,130.63Zm0,13.13c-.41,2.48-2.19,1.21-2.19,0C300,141.27,301.75,142.54,301.74,143.76Zm0,28.45c1.14,1.13-1.58,2.79-2.19,2.19C298.43,173.26,301.15,171.6,301.74,172.21Zm6.57,8.75c4.43,3.17-15,.89-8.76,13.13-3.92.28-4.61-2.68-8.75-2.19.94-4.17,4.71-5.49,4.38-10.94C299.76,185.73,301.42,179.87,308.31,181ZM290.8,283.82c6.37,1.9,2.47,3.27,2.19,8.75C290,291.9,291.17,287.09,290.8,283.82Zm-4.37-10.94c-1.13-1.13,1.58-2.8,2.18-2.19C289.74,271.82,287,273.49,286.43,272.88Zm-2.19,72.22c-1.13-1.14,1.58-2.79,2.19-2.19C287.56,344,284.85,345.71,284.24,345.1Zm0-133.51c-1.13-1.12,1.58-2.78,2.19-2.18C287.56,210.55,284.85,212.2,284.24,211.59Zm6.56,63.48c1.13,1.13-1.58,2.79-2.19,2.18C287.49,276.13,290.2,274.46,290.8,275.07ZM293,224.73c1.13,1.13-1.58,2.8-2.19,2.19C289.67,225.78,292.38,224.13,293,224.73Zm2.19-98.49c1.14,1.14-1.58,2.8-2.19,2.19C291.86,127.3,294.57,125.65,295.18,126.24ZM293,135c1.13,1.13-1.58,2.79-2.19,2.19C289.67,136.05,292.38,134.4,293,135Zm-2.19,61.28c1.13,1.13-1.58,2.79-2.19,2.19C287.49,197.34,290.2,195.67,290.8,196.28ZM288.61,205c1.13,1.14-1.58,2.8-2.18,2.19C285.3,206.09,288,204.42,288.61,205Zm-4.37-6.56c6.66-6-6,6.66,0,0ZM282.05,325.4h4.38v4.38h-4.38Zm0,65.66c1.13,1.13-1.58,2.8-2.19,2.19C278.72,392.12,281.44,390.45,282.05,391.06ZM249.22,478.6c-6.68-3.54,6.42-11.38,8.75-6.56C257.38,476.55,248.28,472.55,249.22,478.6Zm2.19,17.5c-.41,2.49-2.2,1.22-2.19,0C249.64,493.62,251.42,494.9,251.41,496.1Zm-13.13-72.21c6-1.6,4.4,4.34,8.75,4.38C245.66,433.59,236,429.42,238.28,423.89ZM247,454.52c-.42,2.49-2.19,1.22-2.19,0C245.26,452,247,453.32,247,454.52Zm-6.56,13.14c-3.81-14.47,5.59,17.7,0,0Zm24.07-91.93c.67,5.06-6.32,2.44-6.57,6.58-5.49-1.81-18.84,4.25-17.5-4.39C247.19,380.59,254.08,378.33,264.54,375.73ZM242.66,196.28c-1.13-1.13,1.58-2.8,2.18-2.19C246,195.22,243.26,196.89,242.66,196.28Zm8.75,78.79c1.13,1.13-1.58,2.79-2.19,2.18C248.09,276.13,250.8,274.46,251.41,275.07ZM273.3,384.5c-4.88-.92-1.71-11.62,0-13.14,2.87.77,3.44,3.85,6.56,4.37-1,3.19-1.93-.21-4.37,0C269.35,377.89,278.66,381.58,273.3,384.5Zm-13.14-46c1.14,1.13-1.58,2.78-2.19,2.19C256.84,339.59,259.55,337.93,260.16,338.54ZM258,345.1c-.41,2.49-2.19,1.22-2.19,0C256.2,342.62,258,343.89,258,345.1Zm6.57-39.39c-.69,10.79-9.9,1.59,0,0Zm8.76,54.71c1.13,1.13-1.59,2.79-2.19,2.19C270,361.48,272.69,359.81,273.3,360.42Zm-4.39-6.57c-1.13-1.12,1.59-2.79,2.2-2.18C272.24,352.8,269.52,354.46,268.91,353.85Zm4.39,4.38c-1.14-1.13,1.58-2.79,2.19-2.19C276.62,357.17,273.9,358.84,273.3,358.23Zm-6.58-15.32c-1.92-7,7.23-3,6.58-8.76C276.87,334.42,271.21,343.49,266.72,342.91Zm4.39-32.83c-1.14-1.12,1.58-2.79,2.19-2.18C274.43,309,271.71,310.69,271.11,310.08Zm0-19.7c-2.27,2.27-3.4-1-2.2-2.19C271.18,285.94,272.31,289.18,271.11,290.38Zm-4.39-8.75c-1.12-1.13,1.6-2.79,2.19-2.19C270.05,280.57,267.33,282.24,266.72,281.63Zm-2.18-6.56c-1.13-1.13,1.59-2.8,2.18-2.19C267.86,274,265.14,275.67,264.54,275.07Zm4.37,89.72c-.05,2.14-2.67,1.7-4.37,2.19C264.6,364.85,267.22,365.28,268.91,364.79Zm2.2,24.08c-.42,2.49-2.2,1.22-2.2,0C269.33,386.39,271.12,387.66,271.11,388.87ZM275.49,367c1-3.17,1.91.23,4.37,0C279.32,369.74,275.51,369.19,275.49,367Zm0-83.16c.41-2.49,2.19-1.22,2.18,0C277.26,286.3,275.48,285,275.49,283.82Zm0-52.52c.41-2.49,2.19-1.22,2.18,0C277.26,233.78,275.48,232.51,275.49,231.3Zm-10.95-52.53c1.6-4.45,6.59-8.94,10.95-4.37C273.63,177.64,270,179.1,264.54,178.77Zm4.37,8.76v4.37h-4.37v-4.37Zm-6.56,78.78c-1.13-1.13,1.59-2.79,2.19-2.18C265.68,265.26,263,266.92,262.35,266.31ZM258,226.92c.07-2.13,2.69-1.7,4.38-2.19C262.29,226.85,259.67,226.43,258,226.92Zm0-13.13c-1.13-1.14,1.58-2.79,2.19-2.2C261.3,212.73,258.58,214.39,258,213.79Zm0,17.51c1.14,1.13-1.58,2.79-2.19,2.18C254.66,232.36,257.37,230.69,258,231.3Zm-2.19-85.36c-1.12-1.12,1.59-2.79,2.19-2.18C259.11,144.89,256.39,146.55,255.78,145.94Zm-2.18-15.31c6.66-6-6,6.65,0,0Zm0,291.07c1.14,1.13-1.58,2.79-2.19,2.19C250.28,422.75,253,421.1,253.6,421.7Zm-2.19-32.83c.42-2.48,2.19-1.21,2.19,0C253.19,391.36,251.4,390.09,251.41,388.87Zm4.37,61.28c4.65.69.48,10.37-4.37,8.75C249.82,452.93,255.76,454.5,255.78,450.15Zm-10.94-56.9c-.41,2.48-2.19,1.22-2.18,0C243.07,390.76,244.85,392,244.84,393.25Zm-4.37,21.88c1.13,1.14-1.58,2.79-2.19,2.19C237.14,416.19,239.86,414.53,240.47,415.13Zm8.75,0c1.13,1.14-1.58,2.79-2.19,2.19C245.9,416.19,248.61,414.53,249.22,415.13ZM258,430.45c1.84-6.95,2.89,3.89,2.19,6.57C258.32,444,257.28,433.13,258,430.45Zm8.75-17.51c1.21,4.86-4.17,3.12-4.37,6.56C256.9,418.62,262.22,411,266.72,412.94Zm-2.18,32.83c-.41,2.49-2.2,1.22-2.19,0C262.77,443.29,264.54,444.55,264.54,445.77Zm6.57,24.08c-13.54,8-11.3-4.6,0,0Zm-2.2-61.29c1.52-4.32,5.85-5.83,10.95-6.56C276.58,404.55,274.5,408.33,268.91,408.56Zm10.95-107.23c1.13,1.13-1.58,2.8-2.19,2.19C276.54,302.38,279.26,300.73,279.86,301.33Zm-2.19-181.65c-2.58,3.25-1.89,9.78-8.76,8.75C271.5,125.19,270.81,118.66,277.67,119.68Zm-10.95,8.75c1.14,1.14-1.58,2.8-2.18,2.2C263.41,129.49,266.13,127.83,266.72,128.43ZM264.54,205c-8.85,2.46-10.82-6.72-6.57-10.94C264.13,193.77,264.29,199.45,264.54,205ZM258,89.05c1.14,1.13-1.58,2.78-2.19,2.18C254.66,90.1,257.37,88.44,258,89.05Zm0,28.44c-.35,2.57-4,1.85-6.56,2.19C251.76,117.12,255.4,117.83,258,117.49Zm-6.56,37.21h-6.57v-4.38h6.57Zm-2.19-52.53c-.42,2.49-2.19,1.22-2.19,0C247.45,99.69,249.23,101,249.22,102.17Zm0,32.83c-.42,2.49-2.19,1.21-2.19,0C247.45,132.52,249.23,133.79,249.22,135Zm-4.38-24.07c1.13,1.13-1.58,2.79-2.18,2.18C241.53,112,244.24,110.32,244.84,110.93Zm-6.56,70h4.38v4.38h-4.38Zm-2.19-35c1.13,1.13-1.59,2.8-2.19,2.19C232.77,147,235.49,145.34,236.09,145.94Zm0,21.88c1.13,1.14-1.59,2.8-2.19,2.19C232.77,168.88,235.49,167.23,236.09,167.82Zm-6.56,39.4a10.26,10.26,0,0,1-2.2-6.57c2.59-2.51,7.74-2.47,13.14-2.18C240.78,205.35,234.86,206,229.53,207.22Zm8.75,85.35c1.13,1.14-1.58,2.8-2.19,2.19C235,293.63,237.67,292,238.28,292.57Zm4.38,30.64c-2.94,8-10,11.85-17.52,15.33C221.05,331.13,235,325.83,242.66,323.21Zm-17.52,63.47c1.45-6.55,4.69,2.09,8.76,0C233.58,392.13,226.49,387.32,225.14,386.68Zm8.76,28.45c1.13,1.14-1.59,2.79-2.18,2.19C230.58,416.19,233.3,414.53,233.9,415.13Zm-4.37,0c-6.59,2.21-3.88-4.87-4.39-8.75C229,406.91,230.13,410.14,229.53,415.13Zm0,26.26c7.34-5.29-5.29,7.34,0,0Zm-8.76-19.69v-4.38h4.37v4.38Zm0,26.26c9.48.91-2.31,12.7,0,0Zm6.56,8.75c1.14,1.14-1.58,2.8-2.19,2.19C224,457.77,226.73,456.11,227.33,456.71Zm0-113.8c1.14,1.13-1.58,2.8-2.19,2.19C224,344,226.73,342.31,227.33,342.91Zm-8.75,2.19c5.44.33.64,7.41,0,8.75C212,352.42,220.68,349.18,218.58,345.1Zm0,19.69c3.2,6.39.17,3.33-2.19-2.18C214.45,358.06,216.86,361.36,218.58,364.79Zm-4.38,81c-.41,2.49-2.19,1.22-2.19,0C212.43,443.29,214.21,444.55,214.2,445.77Zm0-17.5c1.14,1.13-1.58,2.79-2.19,2.18C210.89,429.32,213.6,427.66,214.2,428.27Zm2.19,21.88c1.14,1.14-1.58,2.79-2.19,2.18C213.07,451.21,215.78,449.54,216.39,450.15Zm0,19.7c7.34-5.29-5.29,7.34,0,0Zm0-48.15c-1,3.18-1.92-.23-4.38,0C212.56,419,216.37,419.49,216.39,421.7Zm-6.56-24.08c.42-2.48,2.19-1.21,2.18,0C211.61,400.11,209.82,398.84,209.83,397.62ZM212,375.73c1.13,1.14-1.58,2.8-2.18,2.19C208.7,376.79,211.41,375.14,212,375.73Zm-6.56,15.33c-.06,2.13-2.68,1.7-4.38,2.19C201.13,391.12,203.75,391.55,205.45,391.06Zm-2.19,50.33c-4.7,3.91,1.27-7.47-2.19-10.94,2.87.78,3.45,3.86,6.57,4.38C206.22,437.05,202.61,437.09,203.26,441.39Zm8.75-17.5c0,2.12-2.67,1.69-4.37,2.19C207.69,424,210.32,424.38,212,423.89Zm-2.18,32.82c0-2.12,2.67-1.69,4.37-2.19C214.15,456.65,211.53,456.22,209.83,456.71Zm8.75,78.79c-4.05,5.93.57-5,4.37-4.38C227,525.19,222.4,536.12,218.58,535.5Zm10.95-39.4c-3.24-1.13-5.52-3.23-8.76-4.37C221.46,487.1,231.14,491.25,229.53,496.1ZM223,478.6c-3.23,2.53-5.51,2.53-8.75,0,1.17-7.48,10.55-3.34,15.33-2.19C231.85,481.92,221.32,486.94,223,478.6Zm6.58-4.38c-1.14-1.12,1.58-2.79,2.19-2.18C232.85,473.17,230.13,474.83,229.53,474.22Zm2.19,8.76c1.15-3.38,2.27-.14,2.18,2.18C232.74,488.54,231.62,485.3,231.72,483Zm2.18-46c-2.26,2.26-3.4-1-2.18-2.19C234,432.56,235.12,435.81,233.9,437Zm0-43.77c1-3.19,1.92.22,4.38,0C237.73,396,233.93,395.45,233.9,393.25Zm2.19,81c3.24,1.87,4.71,5.51,4.38,10.94,3.69,2.11,6.44,6.88,2.19,10.94C233.64,490.76,239.79,483.44,236.09,474.22ZM240.47,518c-1.14-1.12,1.58-2.79,2.19-2.18C243.79,516.94,241.08,518.6,240.47,518Zm2.19,10.94c-.62-3.47,11.82-3.06,6.56,2.19C250.06,530.29,242.63,528.78,242.66,528.93Zm6.56,6.57c-1.13-1.13,1.58-2.8,2.19-2.19C252.54,534.45,249.83,536.11,249.22,535.5Zm6.56,13.14c-1.12-1.14,1.59-2.8,2.19-2.19C259.11,547.58,256.39,549.23,255.78,548.64Zm-2.18-6.58c-.93-4.57,1.5-5.79,2.18-8.75C262,533.58,260,542.64,253.6,542.06Zm10.94-8.75h-4.38v-4.38h4.38Zm-4.38-8.75a5.17,5.17,0,0,1,8.75-4.38C268.39,524,265.15,525.17,260.16,524.56Zm8.75-8.75h-6.56v-4.38h6.56Zm2.2-39.4c.54-2.75,4.34-2.2,4.38,0C273.53,477.75,271.56,479.06,271.11,476.41Zm2.19,35c-1.14-1.14,1.58-2.79,2.19-2.19C276.62,510.37,273.9,512,273.3,511.43Zm8.75,83.16q-8.54,2-6.56-6.56C277.53,590.37,283.56,588.71,282.05,594.59ZM279.86,588c-1.14-1.14,1.58-2.79,2.19-2.19C283.18,587,280.47,588.63,279.86,588Zm0-6.57c-1.14-1.13,1.58-2.79,2.19-2.19C283.18,580.41,280.47,582.06,279.86,581.46Zm2.19-39.4c-6-6.65,6.66,6,0,0Zm0,6.58c-1.14-1.14,1.58-2.8,2.19-2.19C285.37,547.58,282.66,549.23,282.05,548.64Zm4.38,59.08c6.66-6-6,6.66,0,0Zm2.18-30.64c-1.12-1.13,1.59-2.78,2.19-2.19C291.93,576,289.22,577.69,288.61,577.08Zm6.57,37.21c.05-2.14,2.68-1.7,4.37-2.19C299.5,614.23,296.88,613.8,295.18,614.29Zm0-17.51c.55-2.75,4.35-2.2,4.37,0C298.59,600,297.64,596.55,295.18,596.78Zm2.19-15.32c-1.13-1.13,1.58-2.79,2.18-2.19C300.69,580.41,298,582.06,297.37,581.46ZM299.55,564c3.9,1.6.32,4,0,6.57C295.66,568.92,299.24,566.54,299.55,564Zm4.38,32.83c-1.13-1.14,1.59-2.79,2.19-2.19C307.26,595.72,304.54,597.39,303.93,596.78Zm4.38,6.57c-1.13-1.13,1.59-2.8,2.18-2.19C311.63,602.29,308.91,604,308.31,603.35Zm-2.19-13.13a10.37,10.37,0,0,0,2.19-6.58c-4.67-1-4.16,3.14-4.38,6.58-8.56-7.4,1.32-11.15,8.76-11C313.12,585.54,313,591.22,306.12,590.22Zm6.57,19.69c-1.14-1.13,1.58-2.79,2.19-2.19C316,608.85,313.29,610.52,312.69,609.91Zm2.19-6.56c-1.14-1.13,1.58-2.8,2.19-2.19C318.2,602.29,315.48,604,314.88,603.35Zm4.38,17.5c1-3.18,1.91.23,4.37,0C323.09,623.61,319.28,623.07,319.26,620.85ZM328,609.91c-3.87-4.1-6.39,2.61-10.94-2.19C316.68,604.15,331.39,603.31,328,609.91Zm0-17.5c.42-2.49,2.19-1.22,2.19,0C329.78,594.89,328,593.62,328,592.41Zm30.64,24.06c-1.14-1.12,1.58-2.79,2.19-2.18C362,615.43,359.26,617.08,358.65,616.47Zm17.5,4.38h-6.56c-.93-4.57,1.5-5.79,2.19-8.75C375.63,612.63,376.77,615.86,376.15,620.85Zm6.57,24.08c-1.13-1.13,1.58-2.8,2.19-2.19C386.05,643.87,383.33,645.54,382.72,644.93Zm8.75-15.32c-6.71-2.15,2.51-5.84,2.2-8.76C400.38,623,391.14,626.69,391.47,629.61Zm24.08,15.32c-.35-6.19,6.57-5.1,6.56-10.94,3.54-.62,3.77,2.06,6.57,2.19C426.34,641.14,422,644.13,415.55,644.93Zm6.56-15.32c.07-2.13,2.69-1.7,4.38-2.19C426.43,629.55,423.81,629.11,422.11,629.61Zm4.38,21.88V640.55c4.91-1.68,7,10.11,10.95,2.19-1.23-5-3.42,2.65-6.58-2.19.19-3.46-1-8.35,2.19-8.75,7.51-.39-.19,7.39,8.76,8.75-3.65,4.35.2,2.79,0,8.75C432.21,648.36,434.63,656,426.49,651.49ZM441.81,634c.36,2.54-.49,3.89-2.18,4.37C439.26,635.81,440.11,634.47,441.81,634Zm-4.37,21.88v4.37h-4.39v-4.37Zm4.37,39.39c-6.18-1.8-5.67,3.09-10.95,2.19C429.69,689.57,442.53,684.46,441.81,695.26Zm-6.56,21.89v-4.37h4.38v4.37Zm4.38,4.38c-.42,2.48-2.21,1.22-2.19,0C437.85,719,439.63,720.31,439.63,721.53ZM426.49,704c-6.14-1-2.58-4.6-6.57-10.94C425.57,692,432.33,700.82,426.49,704Zm-6.57-21.88c-.05,2.14-2.67,1.7-4.37,2.19C415.6,682.19,418.23,682.62,419.92,682.13Zm-2.18,15.32c-.27,6.22-9.34,4.21-8.76-2.19C413.55,694.34,414.78,696.77,417.74,697.45ZM400.23,750c1.13,1.14-1.59,2.8-2.19,2.2C396.91,751,399.63,749.38,400.23,750Zm4.38,15.33c-.28,3.92,2.68,4.61,2.19,8.75-6.27.43-11.95.28-10.94-6.56C397.8,765.79,400.79,765.13,404.61,765.3Zm-4.38-28.46c2.38.55,1.48,4.36,4.38,4.38C403.67,747.28,397.72,741.34,400.23,736.84Zm2.19-13.12c.76-5.81,5.75-7.4,10.94-8.76C410.89,719.06,410.77,725.5,402.42,723.72ZM409,743.41c-4.58-1.94.7-12.22,6.57-10.94-3.84,7.75,1.45,5.38,2.19,13.13C412.06,747.9,411.41,730.9,409,743.41Zm8.76-19.69h4.37v4.37h-4.37Zm8.75,30.64h-4.38V750h4.38Zm-2.19-21.89c-.86-4.25,10-3.19,6.56,2.19h-4.37C426.9,732.79,425.64,732.59,424.3,732.47Zm6.56,13.13c.55-2.75,4.36-2.21,4.39,0C434.27,748.78,433.32,745.38,430.86,745.6Zm-2.18-24.07c3.53-.62,3.77,2.06,6.57,2.19C436.11,728,425.27,726.91,428.68,721.53Zm8.76,26.25c4.9-7.49,17.08-7.71,21.88-15.31,7.75.73,5.38,6,13.13,2.19.79,10.76-7.19,15.18-15.32,10.94,1.22-4.46,6.58-4.29,2.19-8.76-4.05.33-1.34,7.42-4.38,8.76C445.25,742.75,444.82,754.92,437.44,747.78Zm10.94-24.06c.49-3.15,6.53-.77,6.56-4.38,4.94,2.49-8.44,12,4.38,6.56,1.51,5.89-4.53,4.23-6.57,6.57-4.18-.92-9.42-.79-8.75-6.57h6.57C451,724,449.71,723.84,448.38,723.72Zm13.13-87.54c.13,7.19,13.87,7.36,6.56,15.31a10.47,10.47,0,0,1,6.56-2.19c.82,3.73-1.69,4.14-4.37,4.38-.36,6.93,5.82,7.32,4.37,15.33-7.35,2.24-3.39-6.81-4.37-11-5.43-1.54-9.27,9.35-4.38,11-.95,3.24-2.8-.87-6.56,0,3.15-11.91,7.35-10.26,6.56-24.08-.7-2.52-9.54-7.53-10.94-2.19C449,640.78,456,633.86,461.51,636.18Zm0-10.94c1.14,1.13-1.58,2.78-2.19,2.18C458.19,626.29,460.9,624.63,461.51,625.24Zm6.56,10.94c1.14,1.13-1.58,2.79-2.19,2.18C464.75,637.24,467.46,635.57,468.07,636.18Zm19.7,6.56c1.13,1.13-1.58,2.8-2.19,2.19C484.45,643.8,487.17,642.13,487.77,642.74Zm-2.19,10.94c-.41,2.49-2.19,1.22-2.18,0C483.81,651.2,485.59,652.46,485.58,653.68Zm-2.18-15.32c7.34-5.29-5.29,7.34,0,0Zm4.37,28.46c-2.53,3.23-2.53,5.51,0,8.75,4-2.55,1.51-11.62,10.94-8.75-.15,6.41-8.34,4.79-6.56,13.13,2.22-1.42,2.26-5,6.56-4.38-1,7.68-4.62,9.28-10.94,6.56-2.69-10.43-11.5-14.76-13.14-26.26C477.94,660.6,482.69,663.87,487.77,666.82Zm2.19-11c1.13,1.14-1.58,2.79-2.19,2.19C486.63,656.93,489.35,655.26,490,655.87Zm10.94,0c7.86.8,8,5.88,15.33,2.19a10.25,10.25,0,0,0-2.2,6.56C508.66,662.7,501.41,662.66,500.9,655.87Zm10.94,15.32c-1.86-.4-2.06.85-2.19,2.19-2.56-.36-1.84-4-2.19-6.56C511.19,666,511.6,668.52,511.84,671.19Zm-8.75,15.32c2.91-8.76,11-12.37,13.14-21.89,4.63,1.77,8.52,9,4.37,13.14.41,1.77,2.2,2.18,2.19,4.37,6.37-1.9,2.45-3.27,2.19-8.75,8.42-1.72,8.42,10.48,0,8.75-3,5,5.64,8.23,0,8.76,2.78,7.43,12.14,8.28,13.13,17.51a10.34,10.34,0,0,0-6.57-2.2,10.31,10.31,0,0,1,2.19,6.58,10.19,10.19,0,0,1,6.56-2.19c1.21,4.85-4.18,3.11-4.37,6.56-5.14-.7-4.9-6.78-8.75-8.75-7.76.24,4.65,7.23-2.19,6.56-7.37.8-3.65-9.48-6.58-13.13,11.07,4.08,5.1-14.48-2-22-.08,0-.13.08-.2.1s0-.2,0-.32a13.47,13.47,0,0,0-2.19-1.87c-1.94,1-3.91,1.92-4.38,4.37.42,2.49,2.2,1.22,2.19,0,6,2-4.27,8.06,4.39,8.76-6.16,1.42-21.11,2.79-26.27,0,3.31-6.62,9.61,1.81,15.32,0a15.39,15.39,0,0,0-6.57-4.38C499.26,683.75,503.06,684.3,503.09,686.51Zm28.45-37.21c4.74,4.15,5.1,11.11,13.13,6.57,5.7,1.74-6.24,3.66-8.75,4.37.66-8.93-3,.38-8.75-2.18C528.11,654.62,534.05,656.19,531.54,649.3Zm0-6.56c.41-2.48,2.2-1.22,2.19,0C533.31,645.23,531.54,644,531.54,642.74Zm8.75,2.19c1.13,1.13-1.58,2.79-2.18,2.19C537,646,539.69,644.32,540.29,644.93Zm0-13.13c1.13,1.13-1.58,2.8-2.18,2.19C537,632.85,539.69,631.19,540.29,631.8Zm13.13,28.44c6.82,5.8,2.08,15.74-6.56,17.52C548.21,671.08,556.69,671.53,553.42,660.24Zm24.09,24.08c7.76-1.37.19,9.73-2.2,6.57.11.15,2-4.14,2.2-4.38S577.34,684.35,577.51,684.32Zm-2.2-17.5c-6-6.66,6.67,6,0,0Zm10.94,32.82v8.76c2.7-2.45,4.49-1.91,4.38,2.19-4.19-.92-9.42-.79-8.76-6.58-3.87-.49-10.94,2.22-8.74-4.37C581.29,699.84,579.37,702.09,586.25,699.64Zm-4.38-54.71v-4.38h4.38v4.38ZM595,745.6c-1,3.18-1.92-.22-4.38,0C591.17,742.85,595,743.39,595,745.6Zm-4.38-113.8c.41-2.48,2.2-1.22,2.18,0C592.41,634.29,590.63,633,590.63,631.8Zm-4.38,227.6c6.65-8.09,7.37,6.65,0,0Zm4.38,8.75c-.42,2.49-2.2,1.22-2.18,0C588.86,865.67,590.63,867,590.63,868.15Zm0-87.54c.41-2.48,2.2-1.21,2.18,0C592.41,783.1,590.63,781.83,590.63,780.61Zm2.18,39.4h4.38v4.37h-4.38Zm-10.94-78.79c0,2.13-2.67,1.7-4.36,2.19C577.55,741.29,580.18,741.72,581.87,741.22Zm-6.56-19.69v-4.38h4.38v4.38Zm2.2,43.77c-3.46-3.25-2.46-9.78,4.36-8.75,1.45,10.19-7.82,9.68-8.74,17.5-2-1.34-3.91-2.64-4.38,0C561.86,769.82,575.18,767.56,577.51,765.3Zm-24.09,85.35c6.65.08,14.41,1.27,13.15-6.56,12.33,2,1,14.54,6.56,21.88-7.48,1.64-2.78-8.89-10.94-6.57C575,851.22,551.82,860,553.42,850.65Zm-8.75-21.89c5-7.64,7.75,5.18,15.31,2.2-.29,7.71-6.26,9.78-6.56,17.5-6.81,1-7.82-5.51-4.38-8.75,2.14.06,1.71,2.68,2.2,4.38,2.38-.55,1.48-4.36,4.39-4.38C551.16,836.87,550.09,830.66,544.67,828.76Zm-4.38-28.44c1-3.19,1.92.21,4.38,0,.62-3.54-2.07-3.78-2.19-6.57-3.74-.1-5.66,1.62-6.56,4.38-2.7,7.08,7.07,1.66,4.37,8.75-7,1.92-3-7.21-8.75-6.56,6-11,.47-15.53,6.57-28.46,1.08-6.91-10.87-.81-8.76-8.75,10.6,4,2.09-1.27,6.57-8.75,4.05-2.07,1.34,12.52,4.37,4.37,4.2,2.91-2.51,9.72,2.19,15.32,5.41.29,10.56.33,13.15-2.19-1.91-6.36-3.3-2.46-8.77-2.19-5.69-1.74,6.24-3.66,8.77-4.37,2.32,7.3-.71,7.47,2.18,15.31-3.72.81-4.13-1.7-4.39-4.37-6.73-1.63-4.21,6-10.94,4.37v-4.37c-5.59.25-4.34,7.33-4.37,13.14,5.84-6.56,4.85-3.68,6.56,2.17,4.35.46,9.35-9.27,11-4.37.59,3.92-2.08,4.49-2.21,2.2-6.07,6.32-2.56,22.22-13.13,24.06C536.58,813.33,552.29,803,540.29,800.32Zm-10.94,10.94c2.69,1,4.5,2.8,4.38,6.56C531,816.87,529.23,815,529.35,811.26Zm4.38,10.94c-.42,2.48-2.19,1.21-2.19,0C532,819.71,533.74,821,533.73,822.2ZM522.79,831c-7.14,3.23-6.33-12.3-10.95-4.39-3.24-1,.87-2.8,0-6.56,6.19-.39,5.1,8.23,10.95,2.19C526.78,824.79,517.76,824.09,522.79,831Zm-6.56-30.64a10.32,10.32,0,0,0,6.56,2.18c.66,5.77-3,7.19-8.76,6.57C513.76,805.14,516.72,804.45,516.23,800.32Zm2.17-19.71c1.14,1.14-1.58,2.8-2.17,2.19C515.09,781.67,517.81,780,518.4,780.61Zm2.2,6.57c4.92.91-.32,12,6.57,11C523.16,804.81,514.18,791.47,520.6,787.18Zm2.19-2.19c-5.32-1.25,1-14.16-6.56-13.13-1.88,1.33-5.65,13.1-6.58,2.19-6-.19-4.4,3.64-8.75,0-2.76.55-2.21,4.35,0,4.38-2,6-8.06-4.27-8.75,4.37-3.88-5.6-12.63-6.33-19.7-8.75,3.27-2.56,2.58-9.09,8.76-8.75-5.56,9.17,4.06,4.79,8.75,8.75,1.63-6.73-6-4.21-4.38-10.94,2.55.35,3.9-.48,4.38-2.19,4.05.33,1.34,7.41,4.38,8.75,2.37-.53,1.49-4.35,4.37-4.37-2.89-3.15-10-5.52-4.37-10.94-.64-2.1-12.92,1.1-6.57-6.58-6.19-1.8-5.67,3.09-10.94,2.19,2.09-4.46,4.47-8.65,6.57-13.13-7.09-2.7-1.68,7.09-8.77,4.38-2.39-5.58,7.48-11.26-2.18-10.94,2.2-2.92,3.6-6.6,6.57-8.75,4.28-5.76-9.26,16.42,6.56,13.13-2.47,6.87.63,5.78-2.18,10.94,1.51-1.72,12.2-4.87,13.12,0,6.46-1.9-5.08-3.28-2.18-8.76,2.56,3.27,9.09,2.59,8.75,8.76,2.57-6.19,9.52-8,10.94-15.32-7.08-2.7-1.67,7.08-8.75,4.38-.68-5.12-4.28-9,0-13.13-3.53-.62-3.77,2.06-6.57,2.19.3,4.07,1.44,7.31,4.38,8.75-4.08,5.37-5.81-6.42-13.13,0,.41-1.77,2.19-2.18,2.19-4.38-6.74-1.62-4.21,6-10.94,4.38.5-8.39,6.51-9.69,13.13-6.57-1.42-2.22-5-2.26-4.38-6.56,8.16,2.33,3.46-8.21,10.94-6.56,1.51,5.87-4.52,4.22-6.56,6.56.61,5.17,5.85-2.51,8.75-2.19.1-3.74-1.62-5.67-4.38-6.56,7.92-5.76-1.91-7.38,2.19-13.14,2.54,1.84,5.87,2.89,10.94,2.19.8-3.73-1.71-4.13-4.38-4.38,10.09-5.48,2.31,14.65,8.77,21.89-5.15-.7-4.91-6.78-8.77-8.75-6.41,1.86,2.86,5.5,0,10.94,4.58-3.35,14.48,9.28,19.71,0,4.16,1.88-2.37,1.3-2.19,4.38,2.54,4,11.61,1.52,8.75,10.94,3.85-.53,5-3.77,4.38-8.76a15.52,15.52,0,0,1,4.37,6.57c5.62-6.82,2.67-12.25,2.19-21.88,6,4.7,9.14-1.28,15.31,2.19,1.29,7.1-1.47,10.17-2.17,15.31-3.87-4.51-6.78-1.91-8.77-4.37-5.52,4.14,2,7.67-2.18,13.12,5.67-2.81,6.89-4.52,4.38-10.94,3.85,2,3.61,8.06,8.74,8.76-1,3.18-1.92-.22-4.35,0-6-1.57,1.56,10.31-4.39,8.75.32,4.05,7.42,1.35,8.74,4.37-5.74,2.12-13.07,1-8.74,13.14-3.44-.94-1.88-6.88-8.76-4.37,1.26-1.34,5.13-10.39,0-10.95.94-6.06,6.88-.11,4.38,4.37,3.15-.49.77-6.52,4.38-6.56-4.21-3.66-10.28-12.7-15.32-8.75a15.33,15.33,0,0,0,6.56,4.37c-3.91,4.47-8.08.62-4.37,8.75h-6.57c6.1-8.18-4-12.42,0-17.5-8.81,1.4-16.6,3.83-15.31,15.32-3.94.28-4.62-2.68-8.77-2.19,1.31,7.59,10.81,5.4,15.33,4.37-1.42-5.32-4.43-11.25,4.38-10.94-5.9,5.7,2.67,6.61,2.18,13.13-7.89-.89-3,4,2.19,2.2.58,7.15-8.49,4.63-8.75,10.94-.67-2.83.19-11-8.76-10.94-3,.67-1.81,5.48-2.19,8.75-6.58-2.2-3.87,4.88-4.38,8.75,2-1.7,4.95-2.35,8.77-2.18.19-6-3.65-4.41,0-8.76,2.55,1.34,3.19,15.43,8.75,6.57,8.31,3.1,8.19,14.62,2.19,21.88C525.12,786,523.84,781.09,522.79,785Zm-24.08,4.39c-.28,3.92,2.68,4.61,2.19,8.75-3.72.8-4.12-1.71-4.38-4.38-3.92-.28-4.62,2.68-8.75,2.19-.7-5.08.35-8.4,2.19-11,2.51.77,5.54,3.86,2.19,4.39C493.1,792.62,495,788.51,498.71,789.38Zm-2.19,21.88c-.41,2.48-2.19,1.21-2.18,0C494.76,808.77,496.53,810,496.52,811.26Zm6.57,21.89c1.91,6.9-16.54,11.19-13.13,0C494.05,837.43,498,833.82,503.09,833.15Zm-2.19-46c.42-2.49,2.19-1.21,2.19,0,1.86.41,2.06-.85,2.19-2.19C512,787.75,502.84,791.58,500.9,787.18Zm4.38,19.7c4.67-1,4.17,3.13,4.37,6.56-1.77-.4-2.18-2.19-4.37-2.18Zm0-24.08c.06-2.12,2.67-1.7,4.37-2.19C509.6,782.75,507,782.31,505.28,782.8Zm-24.07,6.58c-5.65-.54,3-3.78,0-8.77,1.77.42,2.18,2.2,4.37,2.19v4.38C483,786.83,481.69,787.67,481.21,789.38ZM479,798.13c-1.14-1.14,1.58-2.8,2.19-2.19C482.34,797.07,479.62,798.74,479,798.13Zm-19.7-26.27V765.3C465.7,762.08,465.7,775.08,459.32,771.86Zm2.19-15.31c1.41.94,3.91,8.85,0,4.37C460.44,759.7,459.48,755.2,461.51,756.55Zm0,56.89c7.34-5.29-5.29,7.34,0,0Zm2.18-24.06c8.66.36-.69-3.37,4.38-6.58,7.12.42,1.59,3.82,4.38,11-7.91-3-4.35,8.06-6.57,15.32C456.56,806.25,466.1,798.19,463.69,789.38Zm4.38-19.71c-1.84-8.38-4-16.41-13.13-17.5-.36-4.75,7.77-1,10.94-2.2v6.58c2.92-2.86,6.61-1.35,8.75,2.18,2.64-2.47,4-6.24,10.95-4.37-1.7,1.94-2.35,4.93-2.18,8.75-7.48-3.13-12.79-1.82-8.77,6.56Zm4.38-63.47c-4.22.9-1.73,8.49-8.76,6.58.75-4.4-.44-6.85-4.37-6.58.86-7.59,3.8-11.58,0-17.5,1.94-5.93,9.71,1.84,4.37,4.37,6.4,4.55,15.77,6.12,19.71,13.13,1.94-4.79,9.33-6.34,8.75,2.2-7-1.92-6.85,3.36-8.75,6.56,1.42,2.23,5,2.26,4.37,6.57-3.72.8-4.13-1.71-4.37-4.38-6.69-1.59-8,2.24-13.14,2.19v-6.56c6.53,2.6,7.44.59,13.14-2.19C482.83,706,473.78,710,472.45,706.2Zm-10.94,10.95c-.41-1.86.86-2.06,2.18-2.19h4.38c.61,5-.52,8.23-4.38,8.76-3.36-1.16-.14-2.29,2.19-2.19C464.92,719.58,464,717.62,461.51,717.15Zm-2.19-43.77c4.32,1.51,5.84,5.84,6.56,10.94C459.73,684.64,459.58,679,459.32,673.38Zm8.75,6.57c2.18-6.74,5.92,2.43,6.56,4.37C472.44,691.08,472.57,678,468.07,680Zm8.76-6.57c.41-2.48,2.2-1.21,2.19,0C478.6,675.87,476.83,674.6,476.83,673.38ZM479,695.26c7.34-5.29-5.29,7.34,0,0Zm4.38-6.56c3.69-10,8.86,12.57,0,8.75C484,696.11,488.84,689,483.4,688.7Zm8.75,13.13c-1.13-1.13,1.58-2.8,2.19-2.19C495.47,700.78,492.76,702.43,492.15,701.83Zm4.37,2.18c1.13,1.14-1.58,2.8-2.18,2.19C493.21,705.07,495.92,703.42,496.52,704Zm-4.37,8.77c-.06,2.12-2.68,1.69-4.38,2.18C487.83,712.83,490.45,713.27,492.15,712.78Zm30.64,4.37c1.13,1.13-1.59,2.8-2.19,2.19C519.46,718.2,522.18,716.55,522.79,717.15Zm8.75-30.64v-4.38h6.57v4.38Zm4.38,6.56c-.42,2.49-2.2,1.22-2.19,0C534.14,690.59,535.92,691.86,535.92,693.07ZM544.67,669h-4.38v-4.39h4.38ZM542.48,680c-1.13-1.14,1.58-2.8,2.19-2.19C545.81,678.89,543.09,680.55,542.48,680Zm-4.37,15.31c-1.13-1.13,1.58-2.79,2.18-2.19C541.42,694.2,538.71,695.87,538.11,695.26Zm2.18-17.5h-4.37v-4.38h4.37Zm0,21.88c1.13,1.14-1.58,2.79-2.18,2.19C537,700.7,539.69,699,540.29,699.64Zm2.19,21.89c1.13,1.13-1.58,2.79-2.19,2.19C539.16,722.59,541.88,720.92,542.48,721.53Zm4.38-15.33c.54-2.74,4.36-2.2,4.38,0C549.3,707.55,547.33,708.85,546.86,706.2Zm15.33,74.41c6.64-6-6,6.66,0,0ZM560,848.46c-1.13-1.13,1.59-2.79,2.21-2.19C563.32,847.4,560.6,849.07,560,848.46Zm-2.17-87.54v-4.37h6.56v4.37Zm-2.18,0c1.13,1.13-1.61,2.8-2.21,2.19C552.29,762,555,760.32,555.63,760.92Zm-4.39-6.56c.07-2.13,2.68-1.7,4.39-2.19C555.56,754.29,552.93,753.86,551.24,754.36Zm-24.07-11V739h4.37v4.38Zm6.56,48.14c-.06,2.14-2.68,1.7-4.38,2.2C529.41,791.62,532,792.05,533.73,791.55Zm-4.38,13.14c7.34-5.29-5.29,7.34,0,0ZM553.42,820c1.78.42,2.18,2.19,4.39,2.19v4.37h-6.57C550.62,823,553.32,822.81,553.42,820Zm-6.56-6.57c1-3.17,1.93.23,4.38,0C550.69,816.2,546.88,815.65,546.86,813.44Zm8.77-2.18c-1.2,1.66-1.74,1.9-2.21,0,.05.18-3-8,2.21-4.38C554.11,805.83,553.89,813.67,555.63,811.26ZM542.48,822.2c.17-.34.74-6.19,2.19-4.38C546.44,820,539.37,828.43,542.48,822.2ZM549,870.34c4.94.91-.32,12,6.59,10.95C549.64,889.94,545.49,871.78,549,870.34Zm4.38-2.19c.43-2.48,2.21-1.2,2.21,0C555.2,870.64,553.42,869.37,553.42,868.15Zm13.15-43.77c.4-2.48,2.18-1.21,2.18,0C568.32,826.87,566.55,825.6,566.57,824.38Zm2.18-162c-1.14-1.13,1.58-2.78,2.18-2.19C572.06,661.38,569.35,663,568.75,662.43Zm2.18-8.75h-4.36V649.3h4.36Zm-2.18,89.73c-.54,2.38-4.36,1.49-4.38,4.37-2.76-.53-2.21-4.34,0-4.37-.54-2.75-4.34-2.21-4.39,0-7.24-2.13,2.46-4.33,2.21-6.57C567.23,736.18,564.62,743.17,568.75,743.41ZM560,695.26c-1.13-1.13,1.59-2.79,2.21-2.19C563.32,694.2,560.6,695.87,560,695.26Zm0-17.5c3,1.44,4.09,4.68,4.39,8.75C560.52,686,559.39,682.75,560,677.76Zm0,8.75c-.12,4-8,17-2.17,13.13,6.56,1.45-2.1,4.68,0,8.76-5.8-2.24-3.36-12.7-15.33-8.76-.25-5.54,9.26-12.4,4.38-15.32,6.18-7.47,4.25,8,2.18,10.94C557.42,697.06,551.63,684.72,560,686.51Zm-10.94-35c-5.29,7.18-10.45-6.08,0,0Zm0-6.56c7.35-5.29-5.28,7.34,0,0Zm-6.56-13.13c10.35,3.42,2.92,10.84,0,0Zm-10.94,59.09c-.42,2.48-2.19,1.21-2.19,0C529.77,688.4,531.55,689.67,531.54,690.89Zm-59.09-48.15c4.86-1.21,3.11,4.18,6.57,4.38C478.13,652.57,470.53,647.25,472.45,642.74Zm-17.51,15.32c-.42,2.48-2.19,1.21-2.19,0C453.17,655.57,455,656.84,454.94,658.06Zm-6.56,94.11v-4.39h4.37v4.39Zm2.19,15.32v4.37h-4.38v-4.37ZM444,776.24c.06-2.13,2.68-1.7,4.38-2.19C448.32,776.18,445.7,775.75,444,776.24Zm6.57,0h4.37v4.37h-4.37Zm2.18,8.75c-1.12-1.13,1.59-2.78,2.19-2.19C456.07,783.94,453.36,785.6,452.75,785Zm-13.12,24.08c3.77-5.71,7.07-11.89,15.31-13.13-3.34,6.95-.77,9.62,0,17.5C448.59,809.19,449.26,806.22,439.63,809.07Zm2.18,17.5c8-2,2.92,12.37-2.18,10.95C438.73,832.25,443.62,832.76,441.81,826.57Zm-2.18,15.33c-.07,2.13-2.69,1.7-4.38,2.19C435.31,842,437.93,842.39,439.63,841.9Zm0,17.5c-.55,2.76-4.36,2.21-4.38,0C436.22,856.23,437.17,859.63,439.63,859.4Zm-24.08,2.19c1.78.42,2.18,2.2,4.37,2.19,2.57-.35,1.85-4,2.19-6.57,8.65-1.5,7.17,9.22,0,8.76.78,2.51,3.86,5.55,4.38,2.18,4.68,5.8-6.39,4.57,4.37,8.77v4.37c-6.88-1.09-8.54,4.77-13.12,0C427.62,876.14,412.53,872.82,415.55,861.59Zm15.31,41.58v4.38h-4.37v-4.38Zm-26.25-17.5c-1.14-1.14,1.58-2.8,2.19-2.19C407.93,884.61,405.22,886.28,404.61,885.67Zm2.19-15.33c-5.91-2,1-8.88,6.56-6.56C416.76,871.56,405.92,865.1,406.8,870.34Zm6.56,46H409v-4.39h4.38Zm-2.19-6.57c-1.13-1.13,1.58-2.79,2.19-2.19C414.49,908.69,411.78,910.34,411.17,909.74Zm0-28.45c-.69-5.08.35-8.4,2.19-10.95C420.08,870.75,418,882.13,411.17,881.29Zm6.57,41.58c.35-2.55-.49-3.89-2.19-4.37,2.3-5.73,8.89-7.16,17.5-6.58C430.16,917.78,428.36,924.74,417.74,922.87Zm8.75-72.22c-1-4.67,3.12-4.17,6.56-4.38C432.1,849,430.26,850.77,426.49,850.65Zm13.14,74.41c.41-2.48,2.19-1.21,2.18,0C441.4,927.55,439.62,926.28,439.63,925.06Zm-4.38-28.45c2.07-5.37,8.61,2.81,8.75,6.56C439.54,902.53,439.71,897.25,435.25,896.61ZM444,870.34h-4.37V866H444Zm32.83,39.4c-6.75,1.64-2.67-7.54-10.95-4.38,4,6.85-.67,1.14-6.56,4.38,5.82-10-9.08-8.94-8.75-19.7,7.88-5.16,21.58-.6,28.45,2.19C481,903.13,472.12,901.55,476.83,909.74Zm-24.08-28.45c1.59-4.9,12.48-1.06,10.94,4.38C456.71,887.54,456.93,882.23,452.75,881.29Zm19.7-6.56c5.51,2.2-1.74,9.67-6.57,8.75C464,876.45,473.1,880.47,472.45,874.73Zm2.18-8.76v4.37h-4.37V866Zm0-6.57c1.14,1.14-1.58,2.8-2.18,2.19C471.32,860.46,474,858.8,474.63,859.4Zm-15.31,2.19c-.15-6.17,11.24-4.05,10.94,2.19C464.08,865.59,464.59,860.7,459.32,861.59Zm6.56,10.94c-7.11-.17-11.79-2.79-13.13-8.75C459.66,864.17,465.81,865.32,465.88,872.53Zm-8.75-15.32h-6.56v-4.37h6.56Zm-2.19,2.19c-.05,2.13-2.67,1.7-4.37,2.19C450.62,859.46,453.24,859.89,454.94,859.4Zm4.38,15.33c-3.79,3.72-5.74-.35-13.13,2.19v-6.58C452.12,871.53,451.64,872.1,459.32,874.73Zm8.75,50.33c-7.78,3.41-1.32-7.43-6.56-6.56-6.83,4.41,1.06,13.77-13.13,13.13-1-4.67,3.12-4.17,6.56-4.38-6.33-6.6,3.8-9.06,4.38-15.33h8.75C469.78,913.45,473,924.14,468.07,925.06Zm2.19,6.57c-1.2-4.85,4.18-3.12,4.37-6.57C480.09,926,474.77,933.54,470.26,931.63Zm10.95-8.76h-4.38V918.5h4.38Zm0-54.72c1.08-6.87-7.55-5.78-2.19-10.94,7.06-2,3.07,7.14,6.56,8.76-4.18,8.24-4.18,9.27,0,17.51C479.43,880.74,478.34,874.51,481.21,868.15Zm17.5,54.72a10.23,10.23,0,0,0-6.56-2.18c-.66,5.77,4.56,5.64,8.75,6.56-.77,2.87-3.85,3.44-4.38,6.56-6.89.33-.92-12.2-10.94-8.75V914.11C490.74,916.25,499.47,914.82,498.71,922.87Zm-2.19-24.07c-1.6,3.89-4,.31-6.56,0-2.22,1.42-2.27,5-6.56,4.37-.93-4.57,1.49-5.79,2.18-8.75C491,894.08,492.35,897.86,496.52,898.8Zm2.19-17.51c-1.86-.4-2.06.85-2.19,2.19h-4.37V879.1c1.86.4,2.06-.85,2.19-2.18h4.37Zm-2.19-13.14c-.28-3.92,2.68-4.61,2.19-8.75-3.74-.09-5.66,1.63-6.56,4.38-6.55-4.39-10.46-11.42-21.89-10.94,1.59-6.69-2.24-8-2.19-13.13a10.34,10.34,0,0,1-6.56,2.19c1.22,4.45,6.59,4.28,2.18,8.75-4.67,1-4.17-3.13-4.37-6.56-2.65,5.37-11.8,4.24-13.13,10.94-6.17-2.21.61-9.3,0-13.13,7.85,4.23,8-.85,15.32-2.19-6.31-4.64-5.17-16.72-8.76-24.08,5.16,0,6.44,3.77,13.13,2.19,3.33-5.44,4.24-13.28,4.38-21.88,2.87.51,8.67,12.34,0,10.94,5.08,3.19,11-6,13.14,6.56,1.7-4.86,7.25-5.87,6.56-13.12,10.59,4.2-2.65,10.27-4.38,15.31-.64,5.76,8.49,1.72,6.57,8.75-6,.21-4.4-3.64-8.75,0-1.27,7.11,1.48,10.19,2.18,15.33-5.44.34-6.78-3.44-10.95-4.38,4.89,7.19-4.54,9.64,0,15.32,5.78.66,7.2-3,6.58-8.75,4,3.27,5.45,9.13,10.94,10.94,1.77-.42,2.18-2.2,4.37-2.19-2-6.39-8-.63-8.75-4.38-1.62-8.36,8.07-2.49,8.75,0,7.52-.95,12.27.86,17.51,2.19-3.75-2.08-4.41-7.26-8.75-8.75,3.89-7.44,14.08-.94,15.32,6.56,1.95-1.7,4.94-2.35,8.75-2.18-5.38-5.35,1.62-9.49,0-17.52,3.15,2.45,5.34,2.36,6.57-2.19,4.23,3.07,4.19,10.4,10.94,11-2.46,5.77-8.48-2.93-10.94-4.37-3.39,3.17-4.6,8.53-4.38,15.31-2.88,2.63-3.44.85-6.56,0,.88,6.93-4,12.26-8,9.37,2.77,3.55-4.63,15.5-.72,16.89-1.69,5.18-7.82-.07-5.82-3.18C506.21,872.1,502.62,867.49,496.52,868.15ZM540.29,855c-2.48-.41-1.21-2.2,0-2.19,1.82-6.19-3.08-5.67-2.18-10.94,1.95,1.34,3.91,2.64,4.37,0C548.85,844.94,541.86,852.7,540.29,855Zm0,6.56c-1.13-1.13,1.59-2.79,2.19-2.19C543.61,860.54,540.9,862.2,540.29,861.59Zm-4.37-2.19c-1.13-1.13,1.58-2.79,2.19-2.19C539.24,858.34,536.52,860,535.92,859.4ZM525,866c-2.27,2.26-5.59-3.17-4.38-4.38C521.09,861.1,526,865,525,866ZM500.9,876.92c1.61,3.48,10.72-.51,8.75,6.56C505.48,882.56,500.24,882.69,500.9,876.92Zm19.7,30.63c8.08,6.64-6.65,7.38,0,0Zm4.38,8.76c-1.14-1.14,1.58-2.79,2.19-2.2C528.3,915.25,525.59,916.91,525,916.31Zm6.56-2.2c.54-2.74,4.35-2.2,4.38,0C535,917.3,534,913.89,531.54,914.11Zm8.75,10.95q-8.53,2-6.56-6.56C535.77,920.82,541.8,919.18,540.29,925.06Zm13.13-8.75H549v-4.39h4.38Zm15.33,6.56c-2.55-1.83-5.88-2.89-10.94-2.18,0-4.35,6-2.79,4.38-8.77h6.56ZM560,909.74c-4.68-4.06-11.64-5.85-19.69-6.57-.35-2.54.49-3.89,2.19-4.37-2.77-7.84-13.9-.69-4.37,2.18-2.68,6.64-8.36-1.54-10.94-2.18,3.2-5.16,4.61-4.07,2.18-10.94,3.53-.62,3.77,2.06,6.57,2.18v-8.75c-7.47.55-11.37,4.68-10.94,13.13-5.05-2.06-7.07-.14-15.33-2.19-.65-5.76,3-7.18,8.75-6.56-.58-7.89-.54-15.14,8.77-13.14-7.74-4-.09-5.46,2.18-10.94-.94-3.44-6.88-1.87-4.37-8.75h8.75c-5.74,9.47,9.95,19.59,4.38,28.45.67,3,5.47,1.81,8.75,2.19,1.5,7.27-4.53,3.52-6.57,2.19,1.74,12.53,12.58-4.13,15.34,2.19,2.56-.35,1.83-4,2.18-6.57,4.18.92,9.42.79,8.76,6.57-6.71,1.32-11.42,4.64-17.53,6.56,1.43,2.22,5.05,2.27,4.38,6.56,2.57-.35,1.86-4,2.21-6.56,3.31,6,8.24,1.64,15.3,6.56a10.36,10.36,0,0,0-2.18,6.57C564.56,908.57,559.32,900.81,560,909.74Zm28.47,0c-6.43-2.5-8.14-1.29-10.94,4.37-2.88-.77-3.46-3.84-6.58-4.37,1.43-2.23,5-2.26,4.38-6.57,5.43-2.84,10.62,4.88,10.94,0,1.86-.39,2.07.86,2.2,2.19Zm0-15.32c-4.14-4.62-11-6.55-15.32-10.94.23-5.59,7.33-4.34,13.12-4.38,1.07,7.59,8.32,5.59,13.15,4.38v13.13C593.8,899,591.72,887.18,588.45,894.42Zm37.19-26.27v4.38h-4.36v-4.38Zm-4.36-10.94c.41-2.48,2.18-1.21,2.18,0C623,859.7,621.26,858.43,621.28,857.21Zm2.18-87.54c-1.13-1.12,1.58-2.79,2.18-2.18C626.77,768.62,624.06,770.28,623.46,769.67Zm0-13.12h-4.38v-4.38h4.38Zm0,15.31c-.06,2.13-2.67,1.7-4.38,2.19C619.14,771.92,621.77,772.35,623.46,771.86ZM630,881.29c-5.58-.25-11.26-.41-10.94-6.56C622.91,876.75,630.83,874.65,630,881.29Zm-2.18-120.37c-1.13-1.14,1.58-2.79,2.18-2.19C631.16,759.86,628.44,761.53,627.84,760.92ZM630,634c-5.06-.61-5-5.85-2.18-8.75C632.91,625.84,632.87,631.08,630,634Zm-2.18,102.85c-.53,3.86-3.76,5-8.76,4.38C616.88,734.64,624,737.35,627.84,736.84Zm-8.76,157.58c-1,3.18-1.92-.23-4.38,0C615.25,891.66,619.06,892.21,619.08,894.42Zm6.56-238.55h-4.36v-4.38h4.36Zm-4.36-6.57c-7.14-.38-10.54,5.15-10.94-4.37C613.61,641.46,622.8,641.72,621.28,649.3Zm-8.76,87.54c4.91,1.58,7.2,12.72-2.18,13.13,2.29-9.59-7.42-7.18-6.58-15.31C607.52,734.29,612.37,747.07,612.52,736.84Zm-8.76,37.21c6.86-1,9.76,1.9,8.76,8.75C606.94,782.54,604,779.62,603.76,774.05ZM610.34,785v6.56h-6.58V785ZM606,756.55h-4.38c.4-1.87-.86-2.08-2.18-2.19C598.52,750.1,609.36,751.16,606,756.55Zm-6.56-28.46c.4-2.48,2.18-1.21,2.18,0C601.15,730.58,599.37,729.31,599.4,728.09ZM601.58,704c-.07,2.14-2.68,1.7-4.39,2.19C597.26,704.08,599.89,704.51,601.58,704Zm-2.18-48.14c.4-2.49,2.18-1.22,2.18,0C601.15,658.35,599.37,657.09,599.4,655.87Zm4.36,273.57c-5.15,7-8.85-7.7,0,0Zm-2.18-19.7c.53-2.75,4.36-2.21,4.38,0C605,912.92,604,909.52,601.58,909.74ZM619.08,936c-5.69,1.32-7.87-.88-6.56-6.56C614.55,931.77,620.6,930.12,619.08,936Zm-8.74-17.5v-4.39h4.36v4.39Zm6.56,2.19c.53-2.76,4.34-2.22,4.38,0C620.3,923.86,619.36,920.46,616.9,920.69Zm-6.56-8.77c-7.76-.23,4.64-7.23-2.2-6.56-.86-4.24,10-3.19,6.56,2.19a10.39,10.39,0,0,1,6.58-2.19C621.28,915.69,612.47,907,610.34,911.92Zm10.94-15.31c.41-2.49,2.18-1.22,2.18,0C623,899.09,621.26,897.83,621.28,896.61Zm2.18,35c7.33-5.29-5.3,7.34,0,0Zm10.94-2.19c.41-2.49,2.21-1.22,2.18,0C636.18,931.92,634.4,930.66,634.4,929.44Zm-6.56-37.21c-1.32-8.62,4.9-9.69,10.95-10.94C637,886.79,635.92,893,627.84,892.23Zm4.38-15.31c1-3.19,1.91.21,4.36,0C636.05,879.66,632.25,879.12,632.22,876.92Zm6.57-4.39H634.4c.41-1.86-.85-2.06-2.18-2.19C631.35,866.1,642.18,867.15,638.79,872.53ZM641,911.92c.43-2.48,2.21-1.2,2.21,0C642.74,914.41,641,913.14,641,911.92Zm-2.17-157.56c.06-2.13,2.67-1.7,4.38-2.19C643.1,754.29,640.47,753.86,638.79,754.36Zm10.94,170.7v-4.37c4.66-1,4.16,3.12,4.38,6.56C652.33,926.83,651.91,925.06,649.73,925.06Zm4.38-8.75h-6.58v-4.39h6.58Zm2.18-6.57c1-3.18,1.92.22,4.38,0C660.11,912.49,656.31,912,656.29,909.74Zm8.76-10.94c-5.49,2.53-9.85,6.21-15.32,8.75C652,902,659.13,894,665.05,898.8Zm-4.38-15.32v4.38h-4.38v-4.38Zm-6.56,2.19c-2.69-1-4.51-2.8-4.38-6.57h6.56C656.91,882.63,654.22,882.87,654.11,885.67Zm-4.38-153.2c-2,1.35-3.91,2.64-4.38,0C645.88,729.71,649.71,730.26,649.73,732.47Zm-4.38,4.37c2.09,7.95-9.83,1.84-8.77,8.76C632.87,744.53,638.08,734.16,645.35,736.84Zm-8.77-37.2c-1.06.33-4.87-3-4.36-4.38C635.19,687.34,642.33,697.87,636.58,699.64Zm8.77-67.84H641v-4.38h4.39Zm32.82,0c-1.13-1.14,1.59-2.79,2.18-2.19C681.49,630.74,678.77,632.41,678.17,631.8Zm6.57,10.94h-4.39v-4.38h4.39ZM700.06,634h-4.38v-4.38h4.38Zm28.45-39.4q7.17-.6,6.56,6.57C730.3,601.56,728.12,599.36,728.51,594.59Zm10.94,32.83h-4.38V623h4.38Zm2.2-8.76h-4.38v-4.37h4.38Zm-4.38-15.31c2.69.95,4.49,2.8,4.38,6.56C734,611.82,734.13,606.55,737.27,603.35Zm10.94,8.75h-4.38v-4.38h4.38Zm6.56,0c-3.89-1.6-.32-4,0-6.57C758.66,607.14,755.09,609.52,754.77,612.1ZM761.33,599H757c.41-1.86-.85-2.06-2.18-2.19C753.9,592.54,764.73,593.58,761.33,599Zm-6.56-15.33c.41-1.76,2.2-2.18,2.18-4.37h4.38C762.36,583.94,758.21,583.44,754.77,583.64Zm15.33-13.12h-4.38v-4.38h4.38ZM781,581.46h-4.38a10.2,10.2,0,0,1-2.18-6.57H781Zm0-19.7c3.72-.8,4.13,1.71,4.38,4.38,3.46-.18,8.34,1.06,8.74-2.19C799.59,571.23,780.27,571.66,781,561.76Zm2.18-21.89V535.5h4.38v4.37Zm10.94-26.25c7.78-3.41,1.33,7.43,6.56,6.56-1.43,2.94-4.68,4.08-8.74,4.38C791.08,519.28,796,519.81,794.16,513.62Zm4.38,13.13c-7.35,5.29,5.28-7.34,0,0Zm-13.12,43.77c1.13,1.14-1.6,2.79-2.2,2.18C782.09,571.58,784.8,569.91,785.42,570.52ZM792,599c.54-2.76,4.34-2.21,4.38,0C794.4,600.31,792.43,601.62,792,599Zm6.56-13.13c-4.91-2.38-9.51-5.08-15.32-6.57,0-6,10.32-5.2,13.14-2.19-.81-3.72,1.69-4.12,4.36-4.38C800,580.46,794.72,578.09,798.54,585.84Zm0-17.51V564h4.38v4.38Zm4.38,6.56c2.7,1,4.49,2.8,4.39,6.57C802.63,582.48,803.14,578.33,802.92,574.89Zm6.57-17.5H805.1V553h4.39ZM803,544.27c2,.11,1.64,2.68,2.12,4.37-2.1-.07-1.69-2.65-2.17-4.35a60.18,60.18,0,0,1-8.77,4.35c-.81-10.79,13.06-9.31,6.56-19.71h6.59c1.39,4.78-6.22,7,2.18,6.57A14.11,14.11,0,0,1,803,544.27Zm4.33-21.9c-.56,2.76-4.36,2.21-4.39,0C803.89,519.19,804.85,522.6,807.31,522.37ZM802.92,518v-4.37h4.39V518Zm8.75,32.83c6.19-1.81,5.68,3.08,10.94,2.19C822.42,559.53,809.57,558.86,811.67,550.82Zm13.14-8.76c-7.74-1.17-11.28,1.86-13.14,6.58-5.48-3.52.08-14.34,8.76-10.95.87-5.24-10,1.21-6.56-6.57,5.25-.9,4.74,4,10.94,2.19Zm-17.5-179.45c-.82,3.72,1.68,4.13,4.36,4.37-.45,2.42-16.25,1.84-15.31-4.37C803.1,364.14,800.55,364.14,807.31,362.61Zm-8.77-17.51c.54-2.75,4.36-2.2,4.38,0C801,346.44,799,347.75,798.54,345.1Zm21.89,170.71h-4.38v-4.38h4.38Zm2.18,8.75c1.13,1.13-1.58,2.79-2.18,2.19C819.3,525.62,822,524,822.61,524.56Zm-10.94-17.51v-4.37h4.38v4.37Zm0-19.7c.3-4.07,1.45-7.31,4.38-8.75-1.41-2.22-5-2.27-4.38-6.56A18.15,18.15,0,0,1,822.61,483C814.34,479.81,818.42,489,811.67,487.35Zm0-70c.42-2.49,2.2-1.21,2.2,0C813.44,419.8,811.67,418.53,811.67,417.32Zm21.88,48.15c0,2.12-2.67,1.69-4.36,2.19C829.23,465.53,831.86,466,833.55,465.47Zm0,19.69c2.31,8.14-7.37,4.3-8.74,8.76,1.37,4.46,11.05.61,8.74,8.76-3.4,3.6-8.52-.75-13.12-2.2,2.86-6.79-.6-6.24,0-15.32,3.72-.8,4.12,1.71,4.38,4.38C829.15,489.51,827.59,483.57,833.55,485.16Zm-8.74-157.57c1.13,1.14-1.58,2.79-2.2,2.19C821.48,328.65,824.19,327,824.81,327.59Zm-4.38,81c1.13,1.14-1.58,2.8-2.18,2.19C817.12,409.62,819.83,408,820.43,408.56Zm-4.38-295.45c1.13,1.13-1.59,2.8-2.18,2.19C812.73,114.17,815.45,112.51,816.05,113.11Zm0,67.85c1.13,1.13-1.59,2.8-2.18,2.19C812.73,182,815.45,180.36,816.05,181Zm0,137.88c1.13,1.13-1.59,2.79-2.18,2.18C812.73,319.9,815.45,318.23,816.05,318.84ZM813.87,356v4.38h-4.38V356ZM805.1,268.5c.07-2.13,2.7-1.7,4.39-2.19C809.42,268.45,806.81,268,805.1,268.5Zm2.21-153.2c-.07,2.13-2.7,1.7-4.39,2.19C803,115.36,805.6,115.79,807.31,115.3Zm-6.59,120.37c1.78.42,2.18,2.2,4.38,2.19-.4,1.78-2.2,2.18-2.18,4.38-1.77-.41-2.17-2.2-4.38-2.19C799,238.28,800.75,237.87,800.72,235.67Zm2.2,28.46c-.61,5,.52,8.23,4.39,8.75-2.4,2.19-10.75,9.4-13.15,4.37-6.45,1.91,5.09,3.28,2.2,8.76-2-1.7-5-2.36-8.76-2.19V272.88C795.81,273.06,795.64,264.87,802.92,264.13ZM794.16,135c-.53,3.85-3.76,5-8.74,4.38C783.2,132.79,790.29,135.5,794.16,135ZM787.6,342.91c-.06,2.13-2.67,1.69-4.38,2.19C783.28,343,785.91,343.4,787.6,342.91Zm-8.22,68a111.26,111.26,0,0,1,7.4,17.62,10.75,10.75,0,0,0,3-.31c.2,2.7-.44,4.37-1.52,5.32a121.84,121.84,0,0,1,3,14.19,5.6,5.6,0,0,0,2.91.18c6.48-1.9-5.06-3.28-2.18-8.75,5.69,2.79,6.61,4.8,13.12,2.18-.81,3.73,1.71,4.14,4.39,4.38,3,5-5.65,8.23,0,8.75-.88,5.45-10,1.67-6.57-4.37-5.25-.87,1.22,10-6.56,6.56.94,2.7,2.8,4.5,6.56,4.39-1.68,4.16-5.65,7.32-10.29,8.92,0,1.27-.06,2.51-.08,3.76a3.77,3.77,0,0,0,1.61.44,2,2,0,0,1-1.68,2.41,209.26,209.26,0,0,1-3.18,30.42h4.86c-2,3.81.09,11.75-6.56,10.94,1.07-4.7,1.4-4.89,1-6.87-.66,3.18-1.4,6.27-2.22,9.29,3.08.91,4,4,3.43,8.52-4.86,1.64-4.65-1.8-4.41-5.28a121.72,121.72,0,0,1-15.58,33.8c3.94.52,5.41,3.5,9.05,4.31-1.32,4.07-9.08,2.1-10.75-1.82a102,102,0,0,1-9,10.88c1.83,1.77,2.29,4.18.09,6.26-2.42.28-4-.24-5.09-1.33a106.86,106.86,0,0,1-26.6,17.77Q684,613.73,614,620.57c-.58.37-1.24.55-1.5.28,0,0,0-.08-.08-.13-14.63,1.4-30.09,2.39-46.5,2.92,5.62,3.13,1.54,16,2.81,23.48-2.59-2.79-8.27-.93-10.94,2.18-6.14,0,5.21-6-4.39-4.37,2.16-3.54,5.84-5,8.77-2.19,6-2-4.28-8.06,4.38-8.75-3-.5-9-1.81-13.15-6.57a5.37,5.37,0,0,1,2.17-3.53c-6.83.14-13.75.24-20.88.24h-3c-4,0-7.83,0-11.7-.09a41.48,41.48,0,0,1-1.57,7.76,16.53,16.53,0,0,1-1.87-7.79c-3.27,0-6.46-.14-9.66-.22a6.9,6.9,0,0,0,.59,3.63c-2.59-.29-3.63-1.85-3.61-3.7l-4.51-.13a4.51,4.51,0,0,0-.63,1.65c.53,3.84,3.77,5,8.75,4.37,1,4.67-3.12,4.16-6.56,4.38.25,4.13,7.24,1.51,6.56,6.56,2.57-.35,1.85-4,2.19-6.56,6.17,2.21-.59,9.29,0,13.13.23,5.61,8.16,3.52,11,6.56-2.1,10.54,15.37,9.29,8.75,17.51-7.72-6.14-10.62-17.09-21.89-19.7.21-6-3.64-4.4,0-8.75a15.53,15.53,0,0,0-6.56-4.38c-8.56,3.94-5.62,10.75-2.19,17.51-3.85,2-4,7.66-6.56,11-5.94-3.31,3.48-9.45,4.37-13.14.7-5.8-12.26,2.05-8.75-6.56,1.86-.41,2.06.86,2.19,2.18,4.82-5.4,5.63-14.79,8.75-21.88-3.92-.28-4.62,2.68-8.75,2.19,1,1.95,1.92,3.92,4.38,4.38-.53,5.64-3.77-3-8.76,0a23.76,23.76,0,0,1,4.24-10.78l-6.4-.31c0,.05,0,.09,0,.14-1,.27-1.62.12-2-.26-2.68-.15-5.36-.3-8-.47-2.51,3.93,1.58,7.14,5.59,2.93,3.74,1.13-6.25,5.33,2.19,8.75-3.54,2.51-6.94,8.59-10.95,4.37.36-2.57,4-1.84,6.57-2.18.61-3.54-2.07-3.77-2.2-6.57-2.22,1.42-2.25,5-6.56,4.38,2.83-2.63-1.1-9.11,2.42-11.88-.78-.05-1.53-.12-2.3-.18-.44,1.15-6.19,6.5-2.31,1.11a15.43,15.43,0,0,1,1.78-1.15q-80.84-6-127.78-28.37a101.77,101.77,0,0,1-44.77-40.37c-2.15,5-8.54-3-8.68-6.7,4.38.63,4.31,5.73,8.56,6.5q-19.61-32.9-19.64-85.32c0-20.46,4-38.83,11.84-55.17-.65-.47-.18-1.13.82-1.77a114.15,114.15,0,0,1,6-10.41,180.6,180.6,0,0,0-9.73-20.16c4.49,5.27,11.1,8.42,10.93,18.35a122.34,122.34,0,0,1,20.17-23.08q16.95-15.3,43-21.51a218.13,218.13,0,0,1,28.95-4.71c.51-.93,1.8-3.86,2-4.07s-.14-2.16,0-2.19c5.22-.92,3.53,3.76,1.13,6a161.36,161.36,0,0,1,16.2-.41c14.9.69,35.44,1.93,61.64,4,11.32.9,21.64,1.58,31.33,2.07.46-2.7.91-5.73-.87-9.47a10.34,10.34,0,0,0,6.57,2.19,51.54,51.54,0,0,0-1.18,7.51c10.87.49,20.93.73,30.61.73,14.34,0,41.08-1.37,79.83-4.55q18-1.39,33.19-1.94c1.08-2.36,5.48-1.4,8.56-1.75v1.52q27.9-.56,45,2.17a92.85,92.85,0,0,1,45.16,20.38h1.78v1.57c1,.86,2,1.69,3,2.6.83.73,1.6,1.49,2.41,2.23,1.76-2.22,5.1-2.87,5.56-6.4a10.26,10.26,0,0,0,6.57,2.19c1,5.5-2,9.4-5.77,10.48A120.24,120.24,0,0,1,778.84,410v-5.78C785,401.07,785.2,413.15,779.38,411ZM511.84,629.61c-.41,2.49-2.19,1.21-2.19,0C510.07,627.13,511.85,628.4,511.84,629.61ZM284.24,404.19c.42-2.49,2.19-1.22,2.19,0C286,406.67,284.23,405.41,284.24,404.19ZM757,255.37c1.18-3.37,2.29-.14,2.2,2.19C758,260.93,756.87,257.7,757,255.37Zm13.15,43.77c5.45.89.13,8.48-4.38,6.57C764.52,300.86,769.9,302.59,770.1,299.14Zm6.56,59.09c7.12.41,1.58,3.8,4.38,10.94C773.69,371.42,777.62,362.37,776.66,358.23ZM781,143.76c-2.91,7.3-9.94,10.49-15.32,15.31,2.62,2.88.85,3.44,0,6.57-1.63-5.68-7.19-7.4-8.77-13.13C759.2,144.46,772.15,138.17,781,143.76Z" transform="translate(-139.16 -87)" fill="#43a1e2"/><path d="M551.24,264.13c.6.6,3.32-1.06,2.18-2.19C552.83,261.33,550.11,263,551.24,264.13Z" transform="translate(-139.16 -87)" fill="#43a1e2"/><path d="M557.81,266.31c6.64,6-6-6.66,0,0Z" transform="translate(-139.16 -87)" fill="#43a1e2"/><path d="M557.81,933.81c.88,1.4,2.62,1.93,3.65,3.19h2.47C562.8,935,561,933.75,557.81,933.81Z" transform="translate(-139.16 -87)" fill="#43a1e2"/><path d="M375.87,429.3a74.16,74.16,0,0,0-11.43,23.47c1.95-.57,3.95-.25,5.15,1.75-.51,2.25-3.38,2.14-6.16,2.11a88.75,88.75,0,0,0-2,12.44,1.84,1.84,0,0,0,1.58.78c-.58,1.63-1.22,2.36-1.85,2.51,0,.64,0,1.3-.06,1.95,5.94,1.87,2.17,3.28,1.91,8.67,1.94-1,3.91-1.92,4.37-4.38,2.76,4.54,5.67,8.92,10.94,10.94-3.28,3.84-10.75-6.08-17.21-6.53a89.81,89.81,0,0,0,3,19.73c.46-.2.91-.27,1.11-.06.62.62.08,1.39-.63,1.86A75.45,75.45,0,0,0,373,523.36a1.91,1.91,0,0,1,.7,1c.7,1.07,1.38,2.16,2.14,3.2a55.94,55.94,0,0,0,10.21,10.74c1.17-2,3.21-3.58,5.39-2.85-.35,2.55.49,3.89,2.2,4.37-.42,2.49-2.21,1.22-2.2,0a3.51,3.51,0,0,0-3,.34A40.32,40.32,0,0,0,412,547.6c13.07,0,24.29-6.37,33.8-19.14-2.89-3.42-1.16-3.44,2-2.82,8.89-12.89,13.56-28.61,13.56-47.12,0-19.57-5.24-35.84-14.89-49.22s-21-20-34.47-20C397.79,409.31,385.66,415.93,375.87,429.3Zm-6.28,82.13c-5.44-.33-.64-7.41,0-8.75C375.23,503.2,366.59,506.44,369.59,511.43ZM444,489.54c1.13,1.14-1.59,2.8-2.19,2.19C440.68,490.6,443.4,488.93,444,489.54Zm-6.56,2.19c1.13,1.14-1.59,2.79-2.19,2.19C434.11,492.79,436.83,491.12,437.44,491.73Zm-4.39-70c-.41,2.49-2.19,1.21-2.19,0C431.28,419.22,433.07,420.49,433.05,421.7Zm0,100.67c-.41,2.49-2.19,1.22-2.19,0C431.28,519.89,433.07,521.15,433.05,522.37Zm-6.56-107.24c-.41,2.48-2.2,1.22-2.19,0C424.72,412.64,426.49,413.92,426.49,415.13Zm-10.94,94.11c1.86-.4,2.06.85,2.19,2.19,2.13-.07,1.7-2.69,2.18-4.38,2.38.54,1.49,4.36,4.38,4.38C425,515.3,412,515.34,415.55,509.24Zm-43.77-28.45c-1.13-1.13,1.58-2.8,2.19-2.19C375.1,479.73,372.39,481.4,371.78,480.79Zm6.56,28.45c.25-7.75,7.24,4.65,6.57-2.19,2.13.06,1.7,2.68,2.18,4.38-1.86-.41-2.06.85-2.18,2.19C382.68,512.2,382.65,508.58,378.34,509.24Zm4.38,21.88c-6.71-2.15,2.51-5.83,2.19-8.75C391.62,524.52,382.39,528.2,382.72,531.12Zm17.51,0c-1.14-1.13,1.58-2.79,2.19-2.19C403.55,530.06,400.84,531.73,400.23,531.12Zm6.57-41.58c-.42,2.49-2.2,1.22-2.19,0C405,487.06,406.8,488.32,406.8,489.54Zm4.37,26.27c-7.79-.69-11.44-4.24-10.94,6.56-3.43-.94-1.87-6.88-8.76-4.38,1.35-2,2.66-3.91,0-4.37C396.15,513.4,407.56,505.06,411.17,515.81ZM398,483c1.13,1.13-1.59,2.79-2.18,2.18C394.72,484,397.44,482.37,398,483Zm-4.37,24.07c-2.4-8.55-11.27-10.62-13.14-19.7C383.14,495.05,398.77,498.64,393.67,507.05Zm-6.58-19.7c-.4,2.49-2.19,1.22-2.18,0C385.33,484.87,387.1,486.14,387.09,487.35Zm-2.18-6.56c-11.35,3.74-9.53-20.42-17.51-6.57-4.79-2.15,2-11,6.57-10.94-1.35-2-5.1-8.07,2.18-6.57-2.52,2.6-2.93,17,4.38,11,2.49.41,1.22,2.2,0,2.19C378.9,476.58,386.54,474.05,384.91,480.79Z" transform="translate(-139.16 -87)" fill="#43a1e2"/><path d="M446.48,527.59c.13-.18.24-.37.37-.55A1.41,1.41,0,0,0,446.48,527.59Z" transform="translate(-139.16 -87)" fill="#43a1e2"/></g></svg>